SplineFontDB: 3.2
FontName: Playlist-Script
FullName: Playlist Script
FamilyName: Playlist
Weight: Normal
Copyright: Copyright \\(c\\) 2016 by Artimasa. All rights reserved.
Version: 001.001
ItalicAngle: 0
UnderlinePosition: -100
UnderlineWidth: 50
Ascent: 800
Descent: 200
InvalidEm: 0
sfntRevision: 0x00010000
LayerCount: 2
Layer: 0 0 "Back" 1
Layer: 1 0 "Fore" 0
XUID: [1021 880 -511854397 12096076]
StyleMap: 0x0040
FSType: 4
OS2Version: 3
OS2_WeightWidthSlopeOnly: 0
OS2_UseTypoMetrics: 0
CreationTime: 1452095419
ModificationTime: 1767436573
PfmFamily: 81
TTFWeight: 400
TTFWidth: 5
LineGap: 21
VLineGap: 0
Panose: 0 0 0 0 0 0 0 0 0 0
OS2TypoAscent: 922
OS2TypoAOffset: 0
OS2TypoDescent: -402
OS2TypoDOffset: 0
OS2TypoLinegap: 41
OS2WinAscent: 1021
OS2WinAOffset: 0
OS2WinDescent: 470
OS2WinDOffset: 0
HheadAscent: 1021
HheadAOffset: 0
HheadDescent: -470
HheadDOffset: 0
OS2SubXSize: 650
OS2SubYSize: 600
OS2SubXOff: 0
OS2SubYOff: 75
OS2SupXSize: 650
OS2SupYSize: 600
OS2SupXOff: 0
OS2SupYOff: 350
OS2StrikeYSize: 50
OS2StrikeYPos: 208
OS2CapHeight: 700
OS2XHeight: 347
OS2Vendor: 'PYRS'
OS2CodePages: 00000001.00000000
OS2UnicodeRanges: 00000027.00000002.00000000.00000000
Lookup: 4 0 1 "'liga' Standard Ligatures in Latin lookup 0" { "'liga' Standard Ligatures in Latin lookup 0 subtable"  } ['liga' ('DFLT' <'dflt' > 'latn' <'dflt' > ) ]
DEI: 91125
LangName: 1033 "Copyright (c) 2016 by Artimasa. All rights reserved." "" "" "Artimasa: Playlist Script: 2016" "Playlist-Script" "1.000" "" "Upstairs Script is a trademark of Artimasa." "Artimasa" "Artimasa" "Copyright (c) 2016 by Artimasa. All rights reserved." "www.artimasa.com" "www.artimasa.com"
Encoding: UnicodeBmp
UnicodeInterp: none
NameList: AGL For New Fonts
DisplaySize: -48
AntiAlias: 1
FitToEm: 0
WinInfo: 0 51 19
BeginPrivate: 2
BlueValues 21 [0 0 361 361 779 779]
OtherBlues 11 [-435 -402]
EndPrivate
BeginChars: 65539 181

StartChar: b
Encoding: 98 98 1
Width: 437
Flags: MW
HStem: 0 21G<20 20> 222 28 876 45
VStem: 0 101 164 34 313 67 324 60 423 38
LayerCount: 2
Fore
SplineSet
508 245 m 1xf3
 514 235 507 231 502 224 c 1
 496 221 l 2
 494 222 492 222 491 220 c 0
 494 217 494 215 492 212 c 0
 480 197 458 193 445 180 c 0
 438 173 437 169 429 161 c 0
 426 158 421 158 418 156 c 0
 410 151 399 142 393 135 c 0
 376 115 356 94 340 70 c 0
 311 28 228 -76 174 -10 c 0
 144 27 189 36 209 56 c 0
 225 72 238 91 255 107 c 0
 259 110 278 135 281 140 c 2
 284 145 l 1
 278 138 284 154 284 155 c 0
 286 163 293 172 297 180 c 0
 304 193 311 207 313 222 c 0
 314 232 316 253 303 256 c 0
 299 256 263 243 263 243 c 2
 262 244 268 247 267 249 c 1
 260 244 255 240 249 234 c 1
 250 235 251 235 252 235 c 1x4c
 244 231 179 145 174 137 c 0
 162 117 153 94 138 77 c 0
 135 75 133 74 131 75 c 0
 127 72 126 68 127 63 c 0
 123 55 119 47 116 39 c 0
 107 21 103 -6 93 -22 c 0
 81 -42 58 -36 41 -24 c 0
 32 -18 25 -9 20 0 c 2
 20 0 14 15 15 15 c 1
 13 19 11 22 10 27 c 1
 11 21 11 17 11 18 c 0
 -7 25 2 96 3 109 c 0
 7 162 17 214 30 266 c 0
 50 354 80 441 114 525 c 0
 144 598 174 672 213 741 c 0
 234 781 258 820 286 855 c 0
 310 884 344 922 386 921 c 0
 467 917 467 803 455 746 c 2
 455 746 456 725 451 721 c 1
 452 722 454 741 454 741 c 1
 448 717 l 1
 449 718 450 718 451 717 c 0
 454 703 440 678 435 666 c 0
 427 649 419 633 409 617 c 0
 394 589 376 562 360 534 c 0
 342 503 319 476 295 451 c 0
 290 445 234 386 227 391 c 1
 227 391 237 401 237 402 c 1
 224 391 211 379 197 368 c 1
 201 370 204 372 204 372 c 1
 193 354 162 352 152 334 c 0
 139 312 136 275 131 250 c 0
 119 197 109 143 101 89 c 1
 103 94 l 1
 99 78 l 1
 115 110 136 140 158 168 c 1
 148 157 136 144 125 130 c 1
 145 159 167 187 191 213 c 0
 219 243 252 281 291 299 c 0
 305 305 319 309 334 304 c 0
 373 292 378 251 380 219 c 1
 380 222 380 225 382 228 c 0
 385 230 385 176 384 171 c 1
 412 189 439 206 465 227 c 0
 477 236 495 263 507 246 c 1
 508 246 l 1
 508 245 l 1xf3
396 876 m 0
 392 876 388 875 385 872 c 1
 388 874 395 876 396 874 c 1
 394 877 355 833 345 821 c 1
 358 845 l 1
 332 812 314 775 297 738 c 1
 299 741 301 743 303 744 c 1
 295 737 237 585 231 571 c 0
 208 512 187 452 169 392 c 1
 214 428 257 466 293 511 c 0
 321 546 350 585 376 619 c 0
 389 636 397 668 404 689 c 0
 414 716 421 745 423 774 c 0
 424 792 428 876 396 876 c 0
199 693 m 0
 164 627 135 558 110 489 c 1
 136 558 166 627 204 692 c 0
 229 735 253 777 282 817 c 0
 303 846 327 877 362 889 c 1
 326 877 297 845 277 818 c 0
 246 778 222 737 199 693 c 0
265 98 m 0x4a
 289 135 317 179 324 224 c 1
 317 192 294 151 286 140 c 0
 269 116 252 93 234 70 c 0
 221 55 211 40 198 32 c 1
 223 46 248 75 265 98 c 0x4a
164 388 m 1
 170 393 173 415 175 423 c 2
 180 441 l 1
 167 400 l 1
 167 399 l 2
 166 398 166 397 166 396 c 0
 166 394 165 393 165 392 c 2
 164 390 l 1
 164 388 l 1
209 523 m 1
 258 648 l 1
 241 607 225 565 209 523 c 1
104 95 m 1
 109 107 117 119 125 130 c 1
 104 95 l 1
164 388 m 1
 164 389 165 390 165 391 c 1
 164 390 l 1
 164 388 l 1
187 204 m 1
 186 203 l 1
 186 203 187 203 187 204 c 1
EndSplineSet
Validated: 37
EndChar

StartChar: c
Encoding: 99 99 2
Width: 322
Flags: MW
HStem: -71 64 1 21G<10 10> 267 50 397 44
VStem: 0 28 28 64 199 8 207 7<393 393> 221 48
LayerCount: 2
Fore
SplineSet
362 185 m 0x7880
 345 163 328 142 313 119 c 0
 276 65 227 13 177 -29 c 0
 148 -53 110 -76 70 -71 c 0
 58 -69 46 -65 38 -56 c 0
 32 -50 5 -11 10 -5 c 1
 10 -5 14 -15 15 -16 c 1x88
 10 1 l 1
 10 -5 2 16 2 20 c 0
 0 33 0 47 0 60 c 0
 1 85 5 109 6 133 c 0
 7 155 12 176 19 197 c 0
 20 202 38 257 44 256 c 0
 45 256 42 247 43 247 c 0
 47 257 50 268 55 279 c 1
 51 274 l 1
 50 275 86 348 90 355 c 0
 106 381 125 404 150 422 c 0
 167 435 187 444 209 441 c 0
 236 437 245 424 255 403 c 0
 264 383 271 368 269 342 c 0
 268 327 266 307 259 292 c 0x7880
 252 278 221 259 205 270 c 0
 192 279 202 285 207 293 c 1
 202 289 l 1
 202 289 216 340 218 340 c 0x22
 219 340 215 318 215 317 c 1
 219 330 232 419 198 392 c 0
 185 382 177 361 170 348 c 0
 158 323 148 298 139 273 c 1
 151 305 165 337 183 366 c 0x3080
 189 377 196 389 207 395 c 0
 208 396 216 393 214 392 c 0
 213 391 209 395 207 393 c 0
 184 371 171 342 158 313 c 0x11
 131 250 109 184 98 117 c 0
 93 85 88 48 95 17 c 0
 97 10 99 0 106 -4 c 0
 123 -16 150 6 164 16 c 0
 185 32 208 48 225 66 c 1
 222 64 219 62 216 61 c 0
 214 61 233 85 235 87 c 0x8880
 245 97 254 108 263 119 c 0
 279 139 296 159 312 180 c 0
 320 190 372 273 392 253 c 0
 407 236 371 198 362 185 c 0x7880
69 258 m 0x24
 69 259 70 261 70 263 c 1x24
 62 244 49 227 47 210 c 1x48
 48 215 57 221 60 228 c 0
 64 237 67 248 69 258 c 0x24
32 141 m 0
 34 143 31 147 31 147 c 1
 27 135 27 122 28 110 c 1
 28 121 28 134 32 141 c 0
104 165 m 1
 118 213 l 1
 113 197 108 181 104 165 c 1
34 160 m 2
 36 163 l 1
 31 161 31 156 31 151 c 1
 31 153 33 157 34 160 c 2
122 225 m 2
 122 229 l 1
 121 227 121 225 121 223 c 1
 121 224 121 224 122 225 c 2
EndSplineSet
Validated: 33
EndChar

StartChar: d
Encoding: 100 100 3
Width: 518
Flags: MW
HStem: -125 59 281 52
VStem: -16 82 64 54 201 88<272 296> 540 47
LayerCount: 2
Fore
SplineSet
591 244 m 2xec
 594 219 562 199 546 183 c 0
 525 161 505 137 485 113 c 0
 444 63 412 5 371 -47 c 0
 339 -87 286 -160 233 -106 c 0
 190 -64 201 16 206 69 c 1
 176 39 144 10 110 -15 c 0
 91 -28 69 -43 45 -38 c 0
 -33 -22 -22 87 1 140 c 0
 14 171 19 204 37 236 c 0
 57 272 86 313 125 329 c 0
 172 348 215 295 242 264 c 1
 266 352 299 436 337 519 c 0
 339 522 346 551 354 557 c 1
 350 554 345 538 343 530 c 1
 347 541 353 552 359 563 c 1
 358 563 l 1
 361 567 374 599 377 603 c 0
 386 618 396 632 406 645 c 0
 425 667 448 688 475 698 c 0
 512 712 567 704 582 663 c 0
 602 607 565 541 538 495 c 0
 521 467 503 438 484 411 c 2
 458 377 l 1
 449 367 l 1
 450 369 451 371 450 372 c 1
 442 361 l 1
 443 361 l 1
 442 361 l 1
 439 357 l 1
 396 299 l 1
 401 305 409 315 411 314 c 1
 411 314 343 227 337 219 c 0
 312 188 309 136 303 97 c 0
 299 75 272 -66 307 -66 c 0
 316 -66 328 -49 333 -43 c 0
 348 -27 361 -10 374 8 c 0
 401 44 426 80 452 116 c 0
 478 151 505 186 534 218 c 0
 540 223 585 278 591 245 c 1
 591 244 l 2xec
223 178 m 2
 223 182 l 1xec
 227 200 234 217 224 233 c 0
 215 246 207 263 194 272 c 0
 189 276 182 281 175 279 c 0
 174 279 173 279 172 278 c 1
 177 281 l 1
 156 279 140 245 129 224 c 0
 107 182 88 138 75 92 c 0
 71 76 51 19 74 9 c 0x68
 86 3 106 18 118 29 c 1
 105 18 90 10 81 11 c 0x90
 48 13 72 78 87 118 c 1
 73 79 52 15 80 12 c 0
 103 10 139 51 154 65 c 0
 170 80 186 95 201 111 c 0
 218 128 218 149 222 173 c 2
 222 173 222 175 223 178 c 2
384 409 m 0
 383 408 383 407 383 406 c 2
 380 401 l 2
 379 397 378 395 379 396 c 1
 364 353 350 310 337 267 c 1
 338 269 340 271 342 273 c 1
 337 266 332 260 331 254 c 1
 335 258 l 1
 342 267 l 1
 393 333 l 1
 373 308 l 1
 351 285 l 1
 392 336 431 391 466 447 c 0
 496 495 544 566 540 626 c 0
 540 635 538 648 529 653 c 0
 506 666 480 620 471 605 c 0
 435 547 410 483 387 419 c 1
 387 418 l 1
 387 418 386 417 385 414 c 2
 385 413 l 2
 384 412 384 410 384 409 c 0
300 327 m 0
 303 332 308 346 308 354 c 1
 306 346 296 335 294 329 c 0
 290 317 295 304 287 294 c 1
 288 294 289 295 289 296 c 0
 292 299 298 322 300 327 c 0
141 50 m 2
 125 36 l 1
 126 36 l 1
 141 48 156 61 169 74 c 0
 180 84 211 106 213 119 c 1
 190 95 166 72 141 50 c 2
318 418 m 0
 323 433 331 450 336 466 c 1
 331 453 324 439 318 428 c 0
 311 414 308 399 303 384 c 1
 309 395 314 406 318 418 c 0
383 406 m 1
 380 401 l 2
 380 399 379 397 379 396 c 1
 383 406 l 1
167 274 m 1
 164 271 161 267 159 267 c 1
 160 267 163 271 167 274 c 1
195 276 m 1
 201 272 l 1
 199 274 197 275 195 276 c 1
393 294 m 1
 393 294 394 295 395 297 c 1
 394 296 393 295 393 294 c 1
395 297 m 1
 395 297 396 298 396 299 c 1
 395 297 l 1
EndSplineSet
Validated: 37
EndChar

StartChar: e
Encoding: 101 101 4
Width: 311
Flags: MW
HStem: -56 49
VStem: 0 9 11 76 237 53
LayerCount: 2
Fore
SplineSet
383 247 m 1
 387 239 384 234 379 228 c 2
 348 187 l 1
 294 117 l 2
 280 99 263 82 249 64 c 0
 234 44 221 23 204 4 c 0
 186 -15 165 -35 141 -48 c 0
 124 -57 108 -58 90 -53 c 0
 64 -46 41 -30 24 -10 c 0
 19 -4 14 1 13 9 c 0
 12 15 11 22 11 29 c 0
 10 41 14 50 16 62 c 0
 18 75 24 87 26 100 c 0
 28 114 32 127 34 140 c 0
 35 152 33 165 36 177 c 0
 38 185 44 193 47 202 c 1
 44 196 39 190 38 185 c 0
 35 177 33 169 30 162 c 0
 27 154 26 147 23 139 c 0
 19 130 15 122 14 112 c 0xb0
 13 103 14 94 13 85 c 0
 11 76 9 69 9 60 c 0
 9 57 11 51 11 49 c 0
 11 45 9 40 9 35 c 0
 9 26 11 17 12 7 c 1
 -4 35 -1 63 4 93 c 0
 9 123 13 152 20 181 c 0
 33 240 60 298 98 345 c 0
 129 386 170 417 224 407 c 0
 244 403 266 394 279 377 c 0
 293 358 292 334 285 312 c 0
 272 273 239 242 208 216 c 0
 195 205 181 194 166 185 c 0
 156 179 145 175 134 171 c 2
 117 165 l 2
 110 163 109 164 106 158 c 0
 101 148 104 138 102 128 c 0
 100 115 97 103 94 90 c 0
 89 66 81 35 87 10 c 0
 98 -41 182 38 197 52 c 0
 207 61 216 71 225 80 c 0
 230 86 236 91 240 97 c 2
 240 97 242 102 242 104 c 0
 254 123 270 141 285 159 c 0
 303 180 319 202 336 225 c 0
 345 238 366 275 382 248 c 1
 382 247 l 2
 383 246 383 246 383 247 c 1
135 236 m 0
 130 226 127 215 122 204 c 1
 154 221 183 244 206 271 c 2
 223 293 l 2
 226 298 231 301 233 307 c 0
 234 312 232 316 233 322 c 2
 237 343 l 2
 238 353 234 379 219 376 c 0
 212 374 205 365 201 360 c 2
 183 336 l 2
 162 305 151 271 136 239 c 1
 136 239 136 238 135 236 c 0
EndSplineSet
Validated: 33
EndChar

StartChar: f
Encoding: 102 102 5
Width: 341
Flags: MW
HStem: -266 42
VStem: -13 12 371 42
LayerCount: 2
Fore
SplineSet
413 246 m 1
 422 211 374 176 358 151 c 0
 331 105 276 64 225 50 c 0
 219 48 197 49 192 44 c 0
 186 39 185 6 184 -2 c 0
 181 -16 178 -30 174 -44 c 0
 158 -100 145 -165 113 -214 c 0
 85 -257 36 -286 -11 -250 c 0
 -52 -219 -52 -151 -49 -105 c 0
 -43 7 1 109 31 214 c 0
 59 313 105 406 153 498 c 0
 179 549 208 601 241 649 c 0
 265 683 304 749 350 754 c 0
 441 764 412 627 393 581 c 0
 356 494 303 410 245 335 c 0
 210 290 173 246 135 202 c 0
 123 189 111 175 98 162 c 0
 88 151 86 147 80 132 c 0
 75 117 70 103 66 89 c 0
 47 34 30 -21 16 -78 c 0
 7 -117 -7 -166 2 -206 c 1
 -2 -203 l 1
 -1 -204 l 1
 37 -275 100 -136 112 -106 c 0
 130 -64 144 -21 153 24 c 0
 155 34 160 49 158 59 c 0
 156 71 146 83 144 95 c 0
 139 117 139 143 144 166 c 0
 150 189 169 208 186 180 c 0
 192 168 194 154 196 141 c 0
 197 131 193 110 197 101 c 0
 203 87 227 95 239 101 c 0
 287 120 325 163 358 201 c 0
 363 207 405 272 413 247 c 1
 413 246 l 1
142 293 m 2
 121 242 l 1
 184 313 242 389 290 470 c 0
 304 493 400 684 362 695 c 0
 349 699 337 679 330 670 c 0
 303 635 283 595 262 556 c 0
 220 477 184 394 149 311 c 1
 150 312 149 308 143 295 c 1
 143 296 l 1
 143 295 142 294 142 293 c 2
10 -39 m 0
 -3 -77 -18 -124 -13 -167 c 1
 -13 -132 2 -86 6 -67 c 0
 10 -44 16 -20 23 2 c 1
 18 -11 14 -25 10 -39 c 0
146 303 m 1
 147 306 149 310 149 311 c 1
 146 303 l 1
EndSplineSet
Validated: 37
EndChar

StartChar: g
Encoding: 103 103 6
Width: 437
Flags: MW
HStem: -27 44 345 71
VStem: -64 40 -14 71 299 29
LayerCount: 2
Fore
SplineSet
510 240 m 0
 514 221 497 213 484 203 c 2
 403 141 l 2
 373 117 344 94 316 69 c 0
 302 58 287 47 275 35 c 0
 263 22 260 5 255 -12 c 0
 221 -127 191 -247 131 -351 c 0
 112 -385 96 -421 53 -432 c 0
 3 -444 -38 -404 -56 -361 c 0
 -76 -312 -56 -267 -27 -225 c 0xe0
 -2 -189 25 -153 54 -120 c 0
 74 -97 96 -77 118 -57 c 0
 139 -37 167 -17 186 6 c 0
 204 29 209 72 218 101 c 2
 240 179 l 1
 219 141 191 106 166 72 c 0
 143 40 120 2 87 -18 c 0
 72 -27 58 -31 43 -24 c 0
 36 -21 -2 13 2 20 c 1
 3 19 4 18 5 18 c 1
 2 25 l 1
 4 15 -8 38 -9 40 c 0
 -13 53 -14 67 -14 81 c 0
 -14 102 -13 125 -9 146 c 0
 -6 165 2 183 12 199 c 0
 13 202 33 235 37 233 c 0
 38 233 33 226 34 225 c 1
 51 250 l 1
 50 249 48 247 46 247 c 0
 39 251 135 354 145 363 c 0
 161 379 178 393 198 403 c 0
 209 409 216 407 225 409 c 0
 233 410 236 414 243 416 c 0
 267 422 303 414 318 394 c 0
 329 382 335 342 310 341 c 0
 304 341 301 345 296 348 c 1
 299 345 l 1
 299 345 272 346 260 344 c 1
 273 349 l 1
 213 339 162 266 130 220 c 1
 139 231 193 298 211 313 c 1
 193 296 138 226 134 220 c 0
 107 181 82 138 67 93 c 0
 62 79 41 -5 77 23 c 0
 103 42 132 76 152 103 c 1
 151 102 150 101 149 101 c 0xf8
 146 101 165 129 168 133 c 2
 195 174 l 2
 214 201 232 230 251 257 c 0
 259 268 272 290 284 295 c 0
 325 313 376 277 351 235 c 0
 324 188 296 138 280 88 c 1
 285 85 340 136 349 143 c 0
 371 161 393 179 416 195 c 0
 433 208 451 219 468 232 c 0
 477 240 506 269 510 240 c 0
156 -100 m 1
 161 -86 166 -71 170 -56 c 1
 125 -98 86 -142 48 -191 c 0
 17 -232 -37 -296 -21 -352 c 0
 3 -440 69 -320 83 -291 c 0
 111 -233 131 -172 152 -111 c 1
 151 -113 156 -99 156 -100 c 1
152 -170 m 1
 152 -167 l 1
 137 -207 118 -244 100 -283 c 1
 109 -267 121 -252 130 -235 c 0
 139 -214 146 -192 152 -170 c 1
102 200 m 2
 121 231 l 1
 118 226 113 221 110 218 c 0
 95 202 87 186 79 168 c 1
 87 179 96 189 102 200 c 2
101 174 m 1
 113 194 l 1
 105 183 98 172 92 161 c 1
 101 174 l 1
EndSplineSet
Validated: 37
EndChar

StartChar: h
Encoding: 104 104 7
Width: 431
Flags: MW
HStem: 380 55
VStem: 200 92 459 38
LayerCount: 2
Fore
SplineSet
496 246 m 0
 498 246 509 241 503 240 c 1
 507 241 480 185 476 180 c 0
 461 156 445 132 429 109 c 0
 400 65 373 14 335 -23 c 0
 321 -36 311 -43 292 -42 c 0
 269 -41 254 -31 239 -16 c 0
 236 -13 209 10 212 17 c 1
 218 8 l 1
 215 13 213 18 211 24 c 1
 211 20 l 2
 208 17 200 53 200 57 c 0
 199 72 202 87 205 102 c 0
 212 126 219 150 225 174 c 0
 232 199 245 223 257 247 c 0
 259 251 278 290 282 290 c 1
 282 289 278 280 279 279 c 1
 294 313 l 1
 291 310 l 1
 320 380 l 1
 283 350 254 309 225 273 c 0
 211 256 198 235 181 221 c 0
 175 216 173 219 168 213 c 0
 164 208 161 201 158 195 c 0
 135 157 106 123 82 86 c 2
 64 54 l 2
 62 49 62 46 58 41 c 0
 45 27 22 32 11 46 c 0
 2 56 1 70 1 82 c 0
 -3 126 7 173 15 216 c 0
 32 310 55 404 86 495 c 0
 113 576 154 649 193 725 c 0
 193 726 198 747 203 750 c 1
 202 749 196 731 196 731 c 1
 208 754 l 1
 208 754 207 754 206 755 c 0
 206 773 228 800 238 815 c 0
 252 838 267 860 283 882 c 0
 311 921 338 964 376 993 c 0
 396 1008 420 1022 446 1020 c 0
 459 1020 472 1015 481 1006 c 0
 485 1002 503 971 497 967 c 1
 497 967 492 982 491 982 c 1
 497 966 498 948 497 932 c 1
 498 934 498 935 499 935 c 0
 504 935 482 843 480 835 c 0
 470 800 456 766 441 733 c 0
 407 663 366 588 315 528 c 0
 305 517 292 509 283 500 c 0
 273 489 266 475 256 463 c 0
 230 433 202 405 173 379 c 0
 156 363 150 354 142 332 c 0
 135 311 129 290 122 270 c 0
 109 230 97 190 86 149 c 1
 103 175 121 200 140 225 c 1
 127 210 118 199 118 199 c 2
 116 200 242 354 255 368 c 0
 285 400 340 469 384 415 c 0
 409 384 390 347 375 317 c 0
 349 262 317 198 301 142 c 1
 302 143 307 158 310 156 c 0
 316 150 298 103 296 94 c 0
 295 87 288 55 296 50 c 0
 309 41 332 68 341 76 c 0
 377 111 410 150 443 188 c 0
 455 203 467 219 481 233 c 0
 484 236 491 246 496 246 c 0
409 919 m 2
 409 918 408 918 408 918 c 1
 372 861 341 799 310 739 c 0
 282 684 251 627 227 572 c 1
 230 577 233 582 235 583 c 1
 235 583 214 524 211 518 c 2
 181 439 l 1
 253 515 315 600 366 690 c 1
 346 657 325 624 303 594 c 2
 263 538 l 1
 245 520 l 1
 253 529 l 2
 263 541 272 553 281 565 c 0
 298 589 315 614 331 639 c 0
 364 691 394 744 418 800 c 0
 430 829 442 859 450 890 c 0
 454 905 467 947 453 959 c 0
 439 971 419 935 411 923 c 1
 412 924 411 922 410 920 c 1
 410 921 l 1
 410 920 409 920 409 920 c 1
 409 919 l 2
158 429 m 1
 157 426 l 2
 156 421 152 405 154 405 c 1
 151 406 191 511 195 521 c 0
 203 542 215 560 222 582 c 0
 230 605 240 625 251 646 c 0
 264 674 387 909 379 914 c 0
 377 915 281 732 272 712 c 0
 252 670 226 630 210 586 c 0
 192 534 167 483 158 429 c 1
227 499 m 1
 229 502 231 505 234 508 c 1
 231 505 229 501 227 499 c 1
409 919 m 1
 410 920 l 1
 409 920 l 1
 409 919 l 1
158 428 m 1
 158 427 157 427 157 426 c 1
 157 426 158 427 158 428 c 1
EndSplineSet
Validated: 37
EndChar

StartChar: i
Encoding: 105 105 8
Width: 189
Flags: HMW
HStem: 261 61 412 9 540 13
VStem: 1 68 119 91 132 8
LayerCount: 2
Fore
SplineSet
107 383 m 4
 108 371 144 347 156 347 c 4
 168 347 168 354 172 358 c 4
 180.514693183 366.514693183 191 381 187 394 c 4
 183 406 173 421 162 428 c 4
 149 435 131 438 117 432 c 4
 114 431 102 428 106 424 c 4
 107 422 108 422 110 422 c 5
 101 415 86 403 107 395 c 5
 105 393 107 384 107 383 c 1028xf0
262 246 m 0
 266 227 248 205 238 192 c 0
 221 167 205 143 186 119 c 0
 166 92 141 49 106 41 c 0
 98 40 60 50 61 56 c 1
 63 56 l 1
 55 60 63 51 51 60 c 0
 42 66 36 75 30 84 c 0
 19 99 5 112 1 130 c 0
 0 135 -2 171 6 171 c 0
 8 171 6 166 7 166 c 2
 10 184 l 1
 9 182 9 181 7 180 c 0
 3 181 22 252 24 258 c 0
 32 279 36 303 56 315 c 0
 71 325 90 323 109 315 c 0
 117 312 140 302 140 292 c 0
 140 286 135 285 132 282 c 1
 133 283 135 283 136 283 c 0
 139 281 124 260 122 261 c 0
 120 261 123 266 124 269 c 1
 105 238 89 203 77 168 c 1
 82 181 107 237 110 236 c 0
 113 235 44 115 78 98 c 0
 94 90 121 115 132 124 c 0xf4
 151 139 177 158 191 175 c 1
 189 173 187 173 184 173 c 0
 180 178 230 244 239 250 c 0
 246 255 260 259 262 246 c 0
68 134 m 2
 69 136 69 136 68 135 c 2
 66 127 l 1
 68 133 l 1
 68 134 l 2
EndSplineSet
Validated: 524323
EndChar

StartChar: j
Encoding: 106 106 9
Width: 256
Flags: HMW
HStem: -435 51 222 31 354 21 374 11 503 30
VStem: -272 47 -19 9 -5 9 109 7 135 8 153 90
LayerCount: 2
Fore
SplineSet
137 368 m 0
 138 356 174 332 186 332 c 0
 198 332 198 339 202 343 c 0
 210.514648438 351.514648438 221 366 217 379 c 0
 213 391 203 406 192 413 c 0
 179 420 161 423 147 417 c 0
 144 416 132 413 136 409 c 0
 137 407 138 407 140 407 c 1
 131 400 116 388 137 380 c 1
 135 378 137 369 137 368 c 1024xcfe0
324 220 m 1
 320 222 322 225 317 222 c 0
 318 220 319 219 321 219 c 1
 285 199 252 171 220 146 c 0
 179 115 139 83 100 50 c 0
 64 20 56 -48 40 -91 c 0
 24 -136 9 -182 -9 -226 c 0
 -22 -262 -39 -295 -58 -328 c 0
 -73 -355 -87 -388 -110 -409 c 0
 -138 -434 -177 -442 -213 -429 c 0
 -295 -399 -278 -318 -245 -259 c 0
 -227 -227 -203 -200 -182 -170 c 0
 -165 -146 -146 -121 -124 -99 c 0
 -94 -68 -61 -38 -28 -9 c 0
 -20 -1 -10 6 -3 14 c 0
 6 23 9 33 13 46 c 2
 32 105 l 2
 44 140 55 176 66 211 c 0
 72 228 77 246 83 262 c 0
 86 269 87 281 90 286 c 0
 115 323 196 286 173 240 c 0
 150 193 117 148 99 97 c 1
 144 133 189 168 237 200 c 0
 253 211 270 221 285 232 c 0
 295 240 320 267 328 245 c 0
 331 237 329 226 324 220 c 1
-66 -176 m 1
 -64 -171 -64 -170 -64 -171 c 1
 -20 -52 l 1
 -63 -89 -100 -129 -136 -173 c 0
 -171 -216 -216 -266 -225 -323 c 0
 -228 -343 -224 -378 -200 -384 c 0
 -178 -389 -158 -359 -148 -344 c 0
 -116 -295 -93 -241 -71 -186 c 0
 -70 -185 -68 -177 -66 -173 c 1
 -66 -176 l 1
-5 -101 m 1
 -9 -105 -11 -111 -15 -114 c 0
 -21 -119 -24 -141 -27 -149 c 1
 -20 -133 -7 -117 -5 -101 c 1
-19 -184 m 2
 -17 -179 -15 -173 -14 -167 c 1
 -15 -168 -15 -169 -15 -170 c 2
 -19 -182 l 1
 -19 -177 l 1
 -23 -185 -29 -193 -31 -203 c 0
 -33 -208 -33 -213 -34 -218 c 1
 -31 -209 l 1
 -28 -201 l 1
 -25 -196 l 1
 -22 -189 l 1
 -22 -190 l 1
 -19 -184 l 2
-10 -157 m 2
 -10 -157 -11 -158 -11 -159 c 1
 -10 -159 l 1
 -10 -160 l 1
 -6 -151 -2 -140 1 -131 c 2
 4 -125 l 1
 2 -127 l 2
 -4 -133 -7 -146 -10 -157 c 2
-6 -148 m 1
 -6 -146 -5 -144 -4 -142 c 1
 -6 -148 l 1
-3 -138 m 1
 -4 -142 l 1
 -4 -140 -4 -139 -3 -138 c 1
-11 -161 m 1
 -11 -160 l 1
 -12 -161 l 1
 -11 -161 l 1
EndSplineSet
Validated: 524323
EndChar

StartChar: k
Encoding: 107 107 10
Width: 456
Flags: MW
HStem: -1 21G<67 68> 763 50
VStem: 0 28 156 68<134 187> 374 40 397 64
LayerCount: 2
Fore
SplineSet
529 242 m 2xd8
 529 241 l 2xd8
 531 215 511 201 496 184 c 0
 482 166 468 147 451 130 c 0
 431 109 413 86 390 69 c 0
 388 67 343 42 340 38 c 1
 340 40 l 1
 332 34 345 40 333 30 c 0
 323 22 312 18 301 13 c 0
 288 8 276 -2 262 -3 c 0
 255 -3 212 12 218 21 c 0
 219 23 222 19 223 20 c 1
 218 23 214 27 210 32 c 1
 210 31 211 29 211 28 c 0
 209 26 180 66 178 71 c 0
 168 89 160 113 156 134 c 1
 108 54 l 2
 96 36 91 4 68 -1 c 0
 66 -1 39 -8 32 2 c 1
 34 -1 43 -2 50 -2 c 1
 42 -1 32 2 27 6 c 1
 27 5 28 4 28 4 c 2
 28 3 11 17 9 19 c 0
 2 29 0 42 0 54 c 0
 0 76 7 98 11 120 c 0
 22 170 37 220 45 271 c 0
 54 318 66 364 81 409 c 0
 89 434 97 458 106 482 c 0
 108 488 124 536 129 536 c 1
 129 536 123 517 124 516 c 1
 131 536 137 555 145 575 c 2
 145 575 146 576 146 577 c 0
 149 584 152 597 155 605 c 2
 175 647 l 2
 185 671 197 694 210 716 c 0
 230 751 257 790 295 807 c 0
 341 828 383 791 404 750 c 0
 415 727 418 708 410 685 c 0
 396 643 372 599 344 566 c 0xf8
 321 541 306 502 286 472 c 0
 259 431 232 390 202 352 c 0
 189 335 175 318 161 301 c 0
 145 282 139 268 132 244 c 0
 118 197 105 150 94 103 c 1
 121 150 l 2
 123 154 139 176 139 175 c 1
 145 186 152 197 159 207 c 1
 158 206 139 183 139 183 c 1
 137 195 159 220 166 230 c 0
 177 248 190 265 202 283 c 0
 229 319 258 354 292 384 c 0
 327 415 392 467 438 428 c 0
 484 388 454 339 419 304 c 0x44
 387 273 348 248 309 227 c 0
 288 215 267 204 245 195 c 0
 241 193 226 189 224 187 c 0
 224 186 228 166 225 165 c 0
 224 165 222 168 221 171 c 1
 227 136 239 97 262 71 c 1
 256 81 233 126 232 136 c 1
 235 123 269 62 283 60 c 0
 287 59 290 60 293 60 c 0
 325 62 351 95 374 113 c 0
 397 130 427 148 446 167 c 1
 444 165 441 165 439 165 c 0
 436 170 501 242 506 247 c 0
 515 255 528 260 529 242 c 2xd8
312 730 m 0
 273 678 250 613 227 553 c 0
 203 489 184 424 166 359 c 1
 221 431 272 506 316 586 c 0
 327 606 338 626 348 647 c 1
 339 631 331 616 323 603 c 0
 308 575 292 548 275 521 c 2
 253 486 l 2
 248 480 240 471 236 464 c 1
 242 479 255 493 265 508 c 2
 292 552 l 2
 311 584 330 617 345 651 c 0
 356 674 387 731 369 755 c 0
 351 779 322 744 312 730 c 0
212 215 m 1
 263 235 308 276 345 316 c 0
 353 325 410 390 394 402 c 0
 377 414 327 357 318 347 c 0x84
 279 306 245 261 212 215 c 1
218 574 m 0
 193 514 177 447 164 384 c 0
 164 383 163 383 163 382 c 1
 164 383 l 1
 162 375 l 1
 175 425 191 473 207 523 c 0
 221 565 233 607 249 648 c 0
 251 654 266 676 271 689 c 1
 266 680 256 667 255 663 c 0
 241 633 230 603 218 574 c 0
146 577 m 1
 146 577 146 576 145 576 c 1
 146 577 l 1
145 575 m 1
 145 576 l 1
 145 575 l 1
EndSplineSet
Validated: 37
EndChar

StartChar: l
Encoding: 108 108 11
Width: 354
Flags: MW
HStem: -177 63 794 59
VStem: 1 27 31 62 393 49<772 778 773 778>
LayerCount: 2
Fore
SplineSet
400 255 m 0
 423 279 425 242 421 226 c 0
 415 204 402 184 390 164 c 0
 360 116 334 65 301 17 c 0
 265 -35 226 -88 180 -133 c 0
 141 -170 87 -199 40 -156 c 0
 -2 -117 -2 -47 1 6 c 0
 5 62 20 116 33 170 c 0
 34 172 33 196 38 203 c 1
 37 201 37 194 36 188 c 1
 38 195 40 202 43 209 c 1
 40 209 l 1
 37 229 51 260 57 279 c 0
 64 302 72 326 80 349 c 0
 95 392 111 434 125 477 c 0
 138 520 158 561 178 601 c 0
 187 620 197 639 208 658 c 0
 211 663 233 706 238 705 c 1
 230 688 l 1
 262 743 l 1
 261 742 l 1
 266 750 273 765 278 771 c 2
 301 802 l 2
 315 819 332 843 355 850 c 0
 399 864 435 818 441 779 c 1
 442 778 l 1
 442 773 l 1
 448 712 412 640 385 588 c 0
 369 556 352 517 327 491 c 0
 310 472 301 452 287 429 c 0
 249 368 208 307 163 251 c 0
 152 237 145 228 140 210 c 0
 134 191 129 172 124 152 c 0
 118 132 113 112 108 92 c 0
 106 83 97 55 98 53 c 0
 95 41 93 28 92 16 c 1
 100 46 l 1
 105 38 97 8 96 -1 c 0
 94 -16 93 -32 93 -48 c 0
 93 -67 93 -110 118 -114 c 0
 152 -118 188 -67 205 -46 c 0
 246 3 280 58 314 112 c 0
 332 140 349 168 366 197 c 0
 377 215 386 240 400 255 c 0
275 613 m 0
 238 524 209 428 180 340 c 1
 254 459 338 584 383 718 c 1
 366 670 341 624 318 580 c 0
 304 555 291 530 276 505 c 0
 267 490 249 467 243 451 c 1
 251 477 275 507 289 531 c 2
 331 609 l 2
 355 657 391 716 393 772 c 2
 393 773 l 2
 395 826 350 766 343 755 c 0
 315 710 295 661 275 613 c 0
243 683 m 0xd8
 232 662 222 642 213 620 c 0
 212 619 212 617 212 616 c 1
 234 656 260 694 281 736 c 1
 271 718 253 702 243 683 c 0xd8
54 166 m 0xe8
 55 167 55 170 53 169 c 0
 49 169 44 148 41 125 c 1
 41 126 l 1
 34 91 30 54 28 18 c 1
 31 50 l 1
 31 47 l 1xd8
 31 54 33 60 34 67 c 0
 40 97 41 135 53 163 c 2
 53 163 53 164 54 166 c 0xe8
EndSplineSet
Validated: 33
EndChar

StartChar: m
Encoding: 109 109 12
Width: 535
Flags: MW
HStem: 333 52 383 51
VStem: 1 65 189 11 260 8 328 74<92 128.5> 373 104
LayerCount: 2
Fore
SplineSet
608 240 m 1xbc
 614 214 587 181 574 162 c 0
 549 126 524 89 496 55 c 0
 477 30 442 -17 407 -18 c 0
 400 -19 358 -5 360 3 c 1
 361 2 l 1
 359 3 359 5 358 7 c 1
 358 5 344 19 342 24 c 0
 336 35 333 48 331 60 c 0
 328 80 328 99 328 118 c 0
 328 139 331 158 338 178 c 0xbc
 339 182 357 238 363 237 c 0
 364 237 360 229 362 228 c 1
 365 238 369 248 373 259 c 1
 372 257 371 255 369 253 c 1
 368 254 396 322 401 333 c 1xba
 368 302 351 259 318 227 c 0
 297 206 281 166 264 138 c 0
 250 114 237 78 205 109 c 0
 196 117 191 128 189 140 c 0
 188 153 193 166 196 178 c 0
 199 189 196 193 197 205 c 0
 201 241 224 276 237 310 c 0
 240 321 272 382 256 383 c 0
 254 384 239 363 236 360 c 0
 224 346 212 331 202 316 c 0
 169 265 148 214 120 161 c 0
 109 140 100 119 90 99 c 0
 86 89 79 80 76 70 c 0
 76 67 75 59 74 57 c 0
 64 39 25 65 15 77 c 0
 -6 102 2 125 1 153 c 0
 -1 190 13 226 25 261 c 0
 30 278 37 295 45 312 c 0
 50 321 58 329 62 339 c 0
 65 344 61 349 70 353 c 0
 77 356 87 350 93 345 c 0
 101 338 106 325 111 319 c 0
 116 312 126 307 122 293 c 0
 122 291 120 289 119 287 c 0
 113 277 104 268 97 258 c 0
 94 254 89 248 88 243 c 0
 86 236 88 233 86 226 c 0
 83 212 75 200 72 186 c 0
 70 177 66 166 66 157 c 0
 66 147 70 139 68 128 c 1
 83 152 90 182 104 208 c 0
 120 240 136 274 155 305 c 0
 171 330 190 354 206 380 c 0
 219 401 241 431 267 434 c 0
 303 439 331 395 323 363 c 0x7a
 316 338 301 313 292 289 c 0
 280 254 270 218 260 183 c 1
 272 208 287 232 303 257 c 1
 283 230 l 1
 282 237 365 345 375 355 c 4
 402 381 459 409 474 354 c 0
 487 306 462 250 445 207 c 0xba
 429 169 406 124 398 86 c 1
 399 88 400 90 402 92 c 1
 402 92 395 44 404 42 c 0
 423 38 462 92 473 104 c 0
 500 134 526 166 552 197 c 0
 557 203 601 263 608 241 c 0
 609 239 608 240 608 240 c 1xbc
249 306 m 1
 250 307 l 1
 250 306 l 1
 256 321 274 368 268 382 c 1
 272 366 248 304 244 296 c 0
 234 273 222 250 214 226 c 0
 207 206 200 179 200 156 c 1
 202 178 212 202 220 222 c 0
 230 249 236 278 248 303 c 2
 248 303 249 305 250 306 c 1
 249 306 l 1
EndSplineSet
Validated: 37
EndChar

StartChar: n
Encoding: 110 110 13
Width: 341
Flags: MW
HStem: 36 390 103 65<65 69>
VStem: 8 61 69 9 156 41<123 123> 197 17
LayerCount: 2
Fore
SplineSet
414 238 m 0x98
 418 214 380 180 368 164 c 0
 346 136 326 106 302 80 c 0
 284 61 254 29 226 38 c 0
 220 40 183 60 184 65 c 1
 187 63 l 1
 181 69 l 1
 186 61 175 71 174 71 c 0
 169 76 165 84 162 90 c 0
 157 101 156 112 156 123 c 0
 156 134 158 145 159 156 c 0
 161 179 162 199 169 221 c 0
 171 226 192 282 199 280 c 0
 201 280 196 273 197 272 c 1
 211 300 l 1
 209 298 208 296 206 295 c 0
 205 296 218 319 221 324 c 1
 201 301 185 277 167 253 c 0
 154 236 138 225 129 209 c 0
 108 173 82 140 65 103 c 1
 61 111 l 1
 43 89 16 115 6 132 c 0
 -3 148 0 160 2 178 c 0
 4 194 3 210 8 227 c 0
 14 248 22 268 30 289 c 0
 37 310 44 331 52 352 c 0
 57 365 67 381 70 395 c 0
 73 406 70 413 83 421 c 0x68
 95 428 108 427 121 425 c 0
 137 422 166 405 149 380 c 0
 142 371 130 361 122 351 c 0
 113 340 114 335 110 322 c 0
 108 314 100 307 96 299 c 0
 90 288 86 274 82 261 c 0
 80 253 81 247 80 239 c 0
 78 218 71 197 69 176 c 1
 70 180 77 187 78 186 c 0
 79 185 68 168 69 168 c 2
 128 254 l 1
 115 237 105 225 105 225 c 2x58
 102 227 221 379 235 392 c 0
 264 419 301 418 315 371 c 0
 331 321 279 288 255 252 c 0
 242 232 231 208 221 187 c 0x98
 214 174 199 145 197 123 c 1
 199 138 210 156 214 166 c 0
 222 187 233 204 249 219 c 1
 242 206 234 194 228 182 c 1
 233 188 l 2
 235 188 224 154 223 152 c 0x94
 219 140 215 127 214 114 c 0
 213 113 214 97 214 97 c 1
 215 96 l 1
 215 97 222 98 224 99 c 0
 239 104 254 118 266 128 c 0
 290 147 313 168 336 188 c 0
 353 204 375 220 389 237 c 0
 395 246 409 262 414 238 c 0x98
EndSplineSet
Validated: 33
EndChar

StartChar: o
Encoding: 111 111 14
Width: 391
Flags: MW
HStem: 199 26 202 30 341 20G 435 39
VStem: 0 79 322 36
LayerCount: 2
Fore
SplineSet
460 249 m 1x7c
 489 212 372 204 361 202 c 0
 359 202 346 198 347 199 c 1
 337 195 339 196 332 187 c 0
 324 175 317 162 310 150 c 0
 306 146 270 93 263 96 c 1
 263 96 271 106 270 107 c 1
 241 73 l 1
 244 76 246 77 246 76 c 0
 240 59 207 39 192 28 c 0
 176 16 156 5 135 2 c 0
 115 0 93 4 74 13 c 0
 15 42 -20 122 12 183 c 0
 29 215 41 251 65 283 c 0
 79 300 94 317 113 329 c 0
 121 335 130 340 140 344 c 0
 147 348 162 349 167 353 c 0
 173 357 179 383 183 391 c 0
 187 399 192 407 197 414 c 0
 211 434 228 454 249 466 c 0
 283 485 317 466 342 441 c 2
 342 441 359 430 358 424 c 1
 354 428 l 1
 358 420 l 1
 359 419 l 1
 356 427 368 412 368 412 c 2
 373 404 376 395 378 386 c 0
 381 372 380 357 378 343 c 0
 374 306 363 268 352 232 c 1
 382 237 412 244 441 250 c 0
 448 252 455 257 460 250 c 0
 461 248 460 249 460 249 c 1x7c
114 47 m 1
 184 60 238 141 267 199 c 1
 223 205 169 224 158 274 c 1
 151 266 137 242 122 212 c 1
 128 221 l 1xbc
 126 211 30 35 113 47 c 1
 114 47 l 1
311 324 m 0xbc
 316 349 330 398 315 424 c 0
 295 455 258 410 243 390 c 0
 242 390 242 389 242 389 c 1
 241 387 l 1
 241 388 l 1
 240 386 239 385 240 385 c 1
 235 378 229 372 223 361 c 1
 224 362 235 380 236 377 c 0
 239 371 220 339 217 333 c 0
 211 317 206 301 204 284 c 0
 202 267 200 248 214 236 c 0
 222 229 235 227 246 226 c 0
 252 225 265 223 271 225 c 0
 281 227 278 224 283 234 c 0
 298 259 304 296 311 324 c 0xbc
242 389 m 1
 242 389 243 389 243 390 c 1
 242 389 l 1
EndSplineSet
Validated: 37
EndChar

StartChar: p
Encoding: 112 112 15
Width: 504
Flags: MW
HStem: -401 21G 365 83
VStem: -99 39 176 8 455 9
LayerCount: 2
Fore
SplineSet
566 248 m 0
 569 250 574 250 578 251 c 1
 570 224 545 215 527 199 c 0
 513 186 493 172 477 161 c 0
 464 152 450 155 440 145 c 0
 439 145 439 146 439 146 c 1
 436 143 433 138 426 134 c 0
 417 128 413 122 405 116 c 0
 391 106 381 110 371 105 c 1
 372 105 l 1
 365 102 319 47 315 41 c 0
 299 23 282 7 267 -10 c 0
 254 -24 227 -57 205 -57 c 0
 181 -57 159 -13 153 6 c 0
 144 33 157 24 174 28 c 0
 198 34 219 64 235 81 c 0
 256 104 275 129 296 153 c 0
 304 161 312 169 318 179 c 0
 319 182 324 199 328 199 c 1
 328 199 327 195 325 192 c 1
 331 201 l 1
 328 199 336 218 337 219 c 0
 342 230 348 240 354 251 c 0
 365 271 378 293 383 316 c 0
 386 327 394 369 372 365 c 0
 364 364 318 328 316 329 c 0
 315 330 322 336 321 337 c 1
 313 329 304 320 296 310 c 1
 298 312 300 313 302 314 c 1
 294 307 214 195 207 185 c 0
 191 163 178 139 163 115 c 0
 155 103 148 88 138 77 c 0
 133 73 127 71 124 67 c 0
 113 52 104 29 94 11 c 0
 81 -11 69 -35 55 -57 c 0
 43 -79 37 -102 29 -126 c 0
 23 -143 16 -158 11 -174 c 1
 12 -171 14 -168 16 -166 c 0
 19 -165 11 -202 10 -204 c 2
 1 -250 l 2
 -6 -283 -11 -317 -17 -350 c 0
 -18 -362 -18 -385 -28 -395 c 0
 -50 -416 -78 -381 -87 -364 c 0
 -113 -316 -89 -238 -81 -186 c 0
 -76 -152 -69 -117 -56 -85 c 0
 -51 -75 -46 -67 -42 -56 c 0
 -42 -55 -40 -34 -37 -33 c 1
 -37 -34 -36 -35 -36 -36 c 1
 -36 -34 -35 -32 -34 -29 c 1
 -39 -38 -34 -14 -34 -13 c 0
 -31 -2 -27 8 -24 18 c 0
 -17 37 -12 55 -8 74 c 0
 -6 82 19 166 29 164 c 0
 31 164 27 157 28 156 c 1
 32 165 35 174 38 183 c 1
 37 181 36 179 34 178 c 1
 34 178 71 282 75 293 c 0
 83 313 88 333 95 354 c 0
 96 358 101 367 101 372 c 0
 101 376 96 378 96 382 c 0
 94 408 110 435 143 426 c 0
 160 422 172 408 179 393 c 0
 188 376 183 369 180 354 c 1
 183 359 l 2
 187 359 179 317 173 318 c 0
 172 318 176 333 176 336 c 1
 168 308 159 281 150 254 c 1
 150 255 l 1
 144 238 l 2
 143 235 142 231 140 228 c 0
 116 158 78 39 74 24 c 1
 82 40 91 56 100 71 c 1
 91 58 84 48 84 48 c 1
 84 48 184 210 194 225 c 0
 230 279 266 335 307 387 c 0
 325 409 356 450 389 448 c 0
 443 444 456 383 455 343 c 1
 456 348 457 357 459 356 c 0
 474 348 451 274 447 262 c 0
 436 229 419 196 401 165 c 1
 421 176 439 189 458 202 c 0
 475 213 497 214 514 221 c 1
 513 221 511 222 511 223 c 0
 508 231 560 247 566 248 c 0
54 146 m 1
 54 146 54 147 53 148 c 1
 55 140 36 100 34 95 c 0
 18 54 -2 13 -15 -29 c 0
 -29 -75 -47 -123 -58 -172 c 1
 -49 -137 -37 -102 -24 -70 c 0
 -8 -32 7 8 20 48 c 0
 26 67 32 86 39 105 c 0
 44 117 53 132 54 145 c 2
 54 146 l 1
98 116 m 1
 94 105 91 93 88 83 c 1
 92 93 95 104 98 116 c 1
235 280 m 1
 228 271 222 261 216 252 c 1
 235 280 l 1
398 159 m 1
 407 165 l 1
 404 163 399 162 398 159 c 1
159 276 m 1
 156 268 l 1
 157 272 158 275 159 276 c 1
152 259 m 1
 156 268 l 1
 152 259 l 1
204 234 m 1
 205 236 206 238 205 237 c 0
 205 236 205 236 204 235 c 2
 204 234 l 1
152 259 m 1
 150 255 l 1
 151 256 152 257 152 259 c 1
-60 -181 m 1
 -59 -180 -59 -180 -59 -179 c 1
 -60 -180 -60 -180 -60 -181 c 1
104 128 m 1
 103 127 l 1
 103 127 104 127 104 128 c 1
EndSplineSet
Validated: 37
EndChar

StartChar: q
Encoding: 113 113 16
Width: 414
Flags: MW
HStem: -318 41 -277 8 347 69
VStem: 7 75 117 48 168 14 304 28 369 10 439 48
LayerCount: 2
Fore
SplineSet
487 245 m 0x7780
 488 236 477 234 472 229 c 2
 464 218 l 2
 455 209 441 196 429 193 c 0
 419 191 419 197 412 191 c 0
 411 192 412 193 413 193 c 1
 410 192 400 182 393 178 c 0
 380 172 374 177 366 173 c 1
 366 173 371 172 369 171 c 0
 355 167 335 155 333 145 c 0
 330 135 333 121 332 111 c 0
 331 96 330 81 328 67 c 0
 325 39 321 12 317 -15 c 0
 309 -71 302 -128 285 -182 c 0
 277 -205 267 -225 255 -245 c 0
 253 -250 240 -287 234 -287 c 1
 234 -287 240 -276 240 -275 c 1
 237 -280 234 -284 230 -288 c 1
 234 -287 226 -301 224 -303 c 0
 220 -309 214 -313 207 -315 c 0
 203 -317 199 -318 195 -318 c 0
 178 -319 161 -311 150 -300 c 0
 126 -278 116 -239 117 -207 c 0
 117 -198 124 -117 134 -118 c 0
 136 -118 133 -127 134 -128 c 1
 136 -118 136 -108 139 -98 c 1
 132 -96 203 95 210 113 c 1
 185 77 133 16 86 11 c 0x5a80
 64 9 41 19 26 34 c 0
 13 47 9 60 7 77 c 2
 7 77 0 108 2 109 c 1
 2 109 3 105 4 102 c 1
 4 110 l 1
 2 109 0 124 0 125 c 0
 0 134 3 142 5 150 c 0
 9 165 16 178 22 192 c 0
 29 212 35 228 47 245 c 0
 49 247 77 284 82 282 c 0
 83 281 78 276 79 275 c 1
 94 294 l 1
 93 293 91 293 90 293 c 0
 84 297 175 380 183 386 c 0
 207 404 227 416 256 416 c 0
 281 416 318 416 333 386 c 0
 339 374 341 348 325 342 c 0
 315 338 313 345 307 348 c 1
 309 345 l 2
 308 344 276 349 272 347 c 1
 274 349 289 351 288 351 c 0
 233 349 185 287 155 248 c 1
 162 256 233 334 238 328 c 1
 233 333 154 241 149 234 c 0
 121 196 97 154 88 109 c 0
 85 98 74 57 90 52 c 1
 91 52 l 1
 108 46 149 82 163 95 c 1
 161 94 159 92 156 92 c 1
 156 92 189 131 193 135 c 0
 211 155 229 174 246 194 c 0
 251 200 260 206 265 212 c 0
 279 230 285 255 299 273 c 0
 306 283 313 290 327 290 c 0
 343 290 374 276 379 258 c 0
 382 247 377 243 371 237 c 1
 375 239 l 1
 375 239 345 192 341 193 c 0
 340 194 347 205 350 212 c 1
 337 190 l 1
 341 191 342 189 338 186 c 1
 364 196 l 1
 359 195 351 194 349 194 c 1
 357 197 396 216 400 219 c 0
 408 224 411 227 421 229 c 0
 428 231 438 229 442 231 c 1
 429 233 456 244 457 245 c 0
 462 247 472 253 479 252 c 0
 483 251 486 251 487 245 c 0x7780
298 85 m 1
 298 86 l 1
 303 122 l 1
 273 64 247 4 225 -57 c 0
 204 -113 183 -174 182 -234 c 0
 182 -256 185 -282 207 -261 c 0
 227 -241 236 -209 246 -183 c 0
 252 -163 261 -141 266 -120 c 1
 265 -124 264 -128 263 -127 c 0
 257 -121 270 -86 271 -78 c 2
 280 -29 l 2
 287 9 292 47 298 85 c 1
196 -102 m 0x84
 188 -122 138 -274 183 -277 c 1x44
 144 -270 194 -123 201 -106 c 0
 215 -67 228 -30 242 7 c 1
 227 -28 209 -64 196 -102 c 0x84
267 63 m 1x23
 262 59 261 56 264 55 c 0
 265 56 267 57 267 58 c 1
 240 -8 l 1
 259 38 281 83 304 127 c 1
 304 133 l 1
 291 109 279 85 268 61 c 1
 268 62 267 62 267 63 c 1x23
224 -48 m 2
 224 -47 l 1
 223 -49 l 1
 223 -49 224 -49 224 -48 c 2
268 60 m 1
 267 58 l 1
 268 59 268 59 268 60 c 1
368 234 m 1
 368 234 369 235 369 236 c 1
 369 235 368 235 368 234 c 1
EndSplineSet
Validated: 37
EndChar

StartChar: r
Encoding: 114 114 17
Width: 337
Flags: MW
HStem: -98 9 207 48 333 31
VStem: 61 11 75 7 140 7 220 16
LayerCount: 2
Fore
SplineSet
410 243 m 0
 413 229 403 212 397 200 c 0
 389 183 379 167 368 151 c 0
 345 117 320 83 296 49 c 0
 272 16 246 -17 214 -44 c 0
 208 -48 162 -85 159 -84 c 0
 159 -83 160 -82 161 -81 c 1
 154 -84 l 1
 159 -83 140 -96 135 -98 c 0
 121 -101 106 -97 94 -89 c 0
 81 -81 74 -69 68 -55 c 0
 58 -33 57 -12 61 12 c 0
 62 17 76 75 83 74 c 0
 85 74 81 66 82 65 c 1
 89 90 l 2
 86 91 139 203 144 210 c 1
 114 204 76 205 55 231 c 0
 49 239 51 246 49 252 c 0
 46 260 42 264 40 271 c 0
 30 320 87 388 135 355 c 1
 133 358 l 1
 134 364 146 349 147 344 c 0
 147 340 139 312 134 314 c 0
 133 314 140 332 140 333 c 1
 133 314 112 293 110 273 c 0
 108 258 116 258 129 255 c 0
 148 250 178 253 202 246 c 1
 186 251 167 252 154 254 c 1
 154 254 153 254 153 255 c 1
 168 253 184 253 197 250 c 0
 226 243 244 232 232 201 c 0
 220 172 205 143 192 114 c 0
 180 86 170 56 159 27 c 0
 156 17 134 -25 142 -35 c 0
 152 -47 207 3 222 19 c 1
 219 16 216 16 214 14 c 0
 212 14 234 42 237 46 c 2
 266 83 l 1
 320 154 l 1
 375 228 l 2
 380 234 404 269 410 243 c 0
111 123 m 0
 99 95 87 66 80 36 c 1
 87 62 98 87 108 111 c 2
 127 155 l 2
 132 164 153 213 158 216 c 1
 151 214 137 178 135 175 c 0
 126 158 118 141 111 123 c 0
87 -69 m 1
 87 -70 l 1
 86 -69 85 -68 85 -67 c 1
 86 -68 l 1
 81 -57 76 -46 74 -40 c 1
 77 -53 l 1
 73 -32 l 1
 73 -31 l 2
 72 -29 72 -28 72 -28 c 1xf6
 72 -28 72 -29 73 -30 c 1
 73 -25 l 2
 72 -11 73 2 75 15 c 2
 75 16 l 1x88
 73 7 72 -1 72 -11 c 0
 71 -23 72 -37 75 -49 c 0
 76 -52 84 -69 90 -77 c 1
 90 -76 90 -75 89 -75 c 1
 95 -81 103 -86 112 -89 c 1
 101 -85 93 -77 87 -69 c 1
115 261 m 0
 113 262 111 267 111 269 c 1
 112 267 118 262 118 262 c 2
 123 258 130 256 138 255 c 1x48
 129 256 120 257 115 261 c 0
220 183 m 1
 220 184 l 1
 199 139 l 1
 220 183 l 1
76 19 m 1
 76 18 75 18 75 17 c 2
 75 16 l 1
 75 17 76 18 76 19 c 1
221 186 m 1
 220 185 l 1
 221 185 l 1
 221 186 l 1
221 186 m 1
 220 185 l 1
 221 185 l 1
 221 186 l 1
77 32 m 1
 77 33 78 34 78 36 c 1
 78 34 77 33 77 32 c 1
81 -60 m 1
 81 -61 82 -61 82 -62 c 1
 82 -61 81 -60 81 -60 c 1
112 271 m 1
 111 270 l 1
 111 270 111 271 112 271 c 1
EndSplineSet
Validated: 37
EndChar

StartChar: s
Encoding: 115 115 18
Width: 324
Flags: MW
HStem: -173 18 -155 43 342 66
VStem: -64 46 73 89 117 93<10 44> 170 10
LayerCount: 2
Fore
SplineSet
397 235 m 2x94
 397 234 l 1
 401 202 351 176 330 161 c 0
 301 140 272 120 240 103 c 0
 232 99 220 95 212 89 c 0
 201 80 203 81 205 65 c 0
 208 47 210 29 210 10 c 0
 211 -18 208 -46 198 -73 c 0x94
 174 -135 126 -175 57 -173 c 0
 -4 -172 -69 -140 -56 -74 c 1
 -57 -76 -60 -93 -61 -92 c 0
 -68 -88 -61 -66 -59 -61 c 0
 -47 -24 -15 5 15 28 c 0
 32 41 49 54 66 65 c 0
 79 73 109 85 111 99 c 0
 114 113 101 143 97 158 c 0
 93 177 86 197 84 217 c 0
 83 230 87 238 84 250 c 0
 79 266 74 281 73 298 c 0
 72 315 72 332 78 348 c 0
 86 372 139 427 166 402 c 1xb8
 166 407 179 388 180 382 c 0
 180 378 176 341 170 342 c 1
 170 342 172 351 173 358 c 1xb2
 168 344 160 331 159 316 c 0
 157 303 160 288 162 276 c 1
 162 278 162 280 164 281 c 1
 163 281 174 229 183 187 c 1
 176 214 167 246 163 265 c 1
 171 221 181 178 191 135 c 1
 192 136 193 138 192 143 c 1
 193 140 194 138 194 137 c 1xb8
 238 159 279 180 320 206 c 0
 338 218 357 238 376 247 c 0
 386 251 394 249 397 235 c 2x94
-7 -109 m 0
 7 -114 23 -111 37 -108 c 2
 65 -97 l 2
 66 -98 57 -104 57 -105 c 1
 69 -98 79 -89 88 -78 c 1
 83 -82 l 1
 91 -74 110 -34 111 -30 c 0
 118 -6 118 18 117 42 c 1
 115 40 112 39 110 38 c 1
 117 44 l 1
 105 37 l 1
 111 39 92 24 89 22 c 2
 59 2 l 2
 39 -12 17 -27 2 -47 c 0
 -7 -60 -33 -101 -7 -109 c 0
119 -138 m 0
 145 -126 159 -109 170 -87 c 1x54
 141 -128 90 -152 41 -155 c 1
 68 -154 93 -149 119 -138 c 0
192 146 m 1
 190 152 188 163 186 174 c 1
 189 163 191 153 192 146 c 1
205 42 m 1
 205 43 204 45 204 47 c 1
 204 45 204 43 205 42 c 1
EndSplineSet
Validated: 37
EndChar

StartChar: t
Encoding: 116 116 19
Width: 307
Flags: MW
HStem: -167 69 -98 9 482 36 491 32 670 103
VStem: 48 9
LayerCount: 2
Fore
SplineSet
406 520 m 2x1c
 406 519 l 2x1c
 407 505 390 494 378 491 c 0
 365 487 350 495 338 493 c 0
 331 491 333 488 327 486 c 0
 318 483 307 484 298 484 c 0
 285 484 257 491 246 484 c 0
 244 483 242 481 240 478 c 1
 243 484 l 1
 237 483 227 456 220 438 c 1
 231 460 l 1
 217 422 l 2
 207 401 198 379 189 358 c 0
 171 316 155 275 139 232 c 0
 112 154 85 72 67 -9 c 0
 64 -23 47 -81 66 -89 c 0
 69 -91 90 -79 89 -80 c 1
 94 -75 100 -70 105 -64 c 1
 101 -67 90 -76 90 -74 c 0
 89 -68 114 -48 118 -43 c 0
 128 -33 137 -22 146 -12 c 2x54
 204 59 l 2
 240 104 274 150 310 195 c 0
 318 205 336 240 349 243 c 0
 365 246 368 230 363 217 c 0
 354 190 327 168 313 144 c 0
 288 102 258 63 229 23 c 0
 197 -20 165 -63 130 -104 c 0
 114 -124 93 -152 68 -164 c 0
 49 -173 24 -162 8 -150 c 0
 -10 -138 -20 -120 -24 -100 c 0
 -25 -94 -31 -62 -25 -55 c 1
 -25 -70 l 1
 -23 -50 l 1
 -25 -54 -25 -41 -25 -39 c 0
 -25 -31 -23 -22 -21 -14 c 0
 -19 2 -15 17 -11 33 c 0
 -4 64 4 95 10 127 c 0
 15 159 26 189 36 219 c 0
 38 224 58 285 63 285 c 0
 64 285 61 273 61 272 c 1
 65 287 71 302 76 317 c 1
 74 312 71 307 71 309 c 0
 71 321 84 342 88 353 c 2
 100 388 l 2
 111 420 122 452 136 482 c 1
 108 480 81 482 55 477 c 0
 17 470 -31 474 -69 479 c 0
 -74 480 -98 481 -92 492 c 0
 -90 495 -68 500 -64 501 c 0
 -45 508 -25 508 -5 509 c 0
 34 513 72 511 111 516 c 0
 121 517 138 514 147 518 c 0
 156 521 156 528 160 537 c 0
 167 555 175 573 183 590 c 0xa4
 192 609 200 629 212 646 c 0
 220 657 228 660 234 672 c 0
 246 699 260 726 279 749 c 0
 299 775 334 779 365 773 c 0
 380 770 401 761 394 741 c 0
 391 733 381 728 375 722 c 0
 375 721 384 731 384 727 c 0
 383 720 346 669 343 670 c 0
 342 670 357 695 358 697 c 1
 320 641 288 580 258 519 c 1
 261 519 264 523 268 530 c 1
 265 524 263 520 263 519 c 1
 302 521 342 521 382 523 c 0
 390 523 405 534 406 520 c 2x1c
216 462 m 0x84
 256 547 292 635 346 712 c 1
 266 599 216 465 160 340 c 0
 127 267 99 191 77 114 c 0
 67 79 59 44 52 8 c 1
 57 27 l 2
 68 74 84 121 101 166 c 0
 137 265 171 367 216 462 c 0x84
282 561 m 1
 292 584 301 606 306 607 c 1
 282 561 l 1
179 343 m 0
 179 344 179 345 180 347 c 1
 171 327 164 307 156 288 c 1
 164 306 172 324 179 343 c 0
269 532 m 1
 272 538 276 546 279 554 c 1
 269 532 l 1
51 -98 m 1
 48 -96 l 1
 49 -97 50 -98 51 -98 c 1
EndSplineSet
Validated: 37
EndChar

StartChar: u
Encoding: 117 117 20
Width: 400
Flags: MW
HStem: 48 57 337 47
VStem: 2 83 181 10 217 22 346 16
LayerCount: 2
Fore
SplineSet
473 244 m 0
 474 232 458 210 452 200 c 0
 438 176 419 154 400 133 c 0
 371 102 329 51 282 48 c 0
 260 46 237 57 225 77 c 0
 204 115 226 163 239 198 c 1
 213 167 188 136 163 104 c 0xfc
 156 95 80 18 70 31 c 0
 70 32 79 36 78 37 c 0
 68 31 57 26 46 26 c 1
 47 25 49 25 51 25 c 0
 53 18 24 29 21 31 c 0
 10 41 5 57 2 71 c 0
 -3 103 2 135 10 166 c 0
 18 198 26 229 40 260 c 0
 47 276 59 284 66 298 c 0
 77 323 91 355 113 373 c 0
 131 389 163 386 181 372 c 0
 199 358 189 351 181 337 c 1
 183 340 185 342 187 343 c 0
 189 343 165 294 160 295 c 1
 160 295 163 305 166 311 c 1
 153 288 141 264 130 240 c 1
 132 243 134 244 136 244 c 1xf4
 134 245 98 152 95 144 c 0
 91 129 73 85 100 94 c 0
 129 102 157 142 175 163 c 0
 199 190 219 219 240 249 c 0
 262 282 288 337 339 323 c 0
 384 310 350 262 336 234 c 1
 338 236 340 239 341 238 c 0
 347 231 327 193 324 183 c 0
 318 164 310 142 309 121 c 0
 308 97 315 104 331 116 c 0xfc
 365 143 393 177 422 208 c 0
 424 210 470 263 473 244 c 0
321 224 m 0
 328 245 338 265 346 287 c 1
 336 262 306 230 314 205 c 0
 314 204 314 203 313 202 c 1
 314 203 315 204 315 205 c 0
 318 210 319 218 321 224 c 0
83 95 m 1
 81 104 95 152 109 191 c 1
 98 164 77 124 83 95 c 1
239 193 m 1xfc
 240 196 241 199 243 202 c 1
 240 200 239 197 239 193 c 1xfc
EndSplineSet
Validated: 37
EndChar

StartChar: v
Encoding: 118 118 21
Width: 415
Flags: MW
HStem: 111 37 263 24
VStem: 28 76 109 8 256 31
LayerCount: 2
Fore
SplineSet
488 239 m 0
 490 232 483 226 479 221 c 0
 468 206 455 193 441 181 c 0
 434 174 429 165 422 158 c 0
 379 109 253 75 256 175 c 1
 223 129 181 93 151 44 c 0
 134 17 123 -5 117 -36 c 0
 116 -48 114 -60 108 -70 c 0
 93 -93 66 -89 47 -75 c 0
 20 -55 22 -12 24 20 c 0
 24 32 31 44 32 54 c 2
 32 54 30 72 31 70 c 1
 30 73 28 76 28 86 c 0
 28 97 30 106 28 117 c 0
 27 130 24 138 27 152 c 0
 27 154 32 166 32 166 c 1
 32 165 32 163 33 163 c 1
 33 166 33 170 32 174 c 1
 31 173 l 1
 34 178 16 235 19 247 c 0
 23 262 33 264 43 270 c 0
 47 273 55 281 64 284 c 0
 75 288 91 289 99 278 c 0
 105 271 100 269 103 263 c 1
 102 266 107 267 108 264 c 0
 109 261 110 247 109 248 c 2
 106 255 l 1xe8
 111 238 113 220 115 203 c 2
 115 202 l 1
 117 172 l 1
 117 174 116 187 116 199 c 1
 120 158 128 84 127 74 c 1
 138 90 149 106 161 121 c 0
 166 129 173 135 179 141 c 0
 185 148 185 155 189 161 c 0
 199 179 217 192 230 207 c 2
 263 241 l 2
 284 265 303 294 333 312 c 0
 352 325 397 324 393 292 c 0
 391 284 387 280 381 275 c 0
 363 259 340 251 323 233 c 2
 305 214 l 1
 299 210 l 2
 297 204 301 205 300 203 c 0
 295 189 277 158 294 149 c 0
 302 145 322 146 330 148 c 0
 344 150 357 164 371 170 c 0
 385 177 396 186 408 196 c 0
 412 199 484 289 488 239 c 0
109 194 m 0
 110 210 108 226 105 241 c 0
 104 247 103 254 100 259 c 0
 99 260 90 273 90 270 c 0
 90 266 96 260 97 256 c 0
 100 249 101 241 102 233 c 0x90
 104 216 104 201 103 184 c 0xa0
 102 164 105 142 104 123 c 1
 107 146 108 170 109 194 c 0
103 107 m 0xa0
 104 110 104 111 102 111 c 0
 101 108 102 107 103 107 c 0xa0
118 132 m 1x90
 119 137 119 142 118 147 c 1
 118 132 l 1x90
115 212 m 1
 115 221 114 227 115 227 c 1
 115 212 l 1
116 200 m 1
 116 201 115 202 115 204 c 1
 115 203 l 1
 115 202 l 2
 115 201 115 201 116 200 c 1
EndSplineSet
Validated: 37
EndChar

StartChar: w
Encoding: 119 119 22
Width: 610
Flags: MW
HStem: -92 7 107 36 211 84 293 62
VStem: 0 83<67 81.5> 170 9 234 9<22 22> 249 64 369 11
LayerCount: 2
Fore
SplineSet
683 235 m 0xde80
 685 219 658 197 650 189 c 0
 622 160 592 124 550 111 c 0
 530 104 510 111 490 107 c 0
 488 107 485 108 483 108 c 0
 481 103 479 98 476 93 c 2
 468 73 l 1
 451 36 l 2
 440 14 425 -11 406 -28 c 0
 402 -31 372 -63 371 -62 c 0
 371 -61 371 -60 372 -59 c 1
 367 -62 l 1
 371 -61 357 -76 356 -77 c 0
 346 -85 333 -90 321 -92 c 0
 303 -95 279 -94 263 -86 c 0
 247 -78 239 -61 234 -44 c 0
 233 -40 226 2 232 3 c 0
 234 3 233 -4 235 -4 c 1
 234 4 234 13 234 22 c 1
 232 18 l 1
 225 18 250 143 252 154 c 1
 224 117 197 77 166 44 c 0
 150 28 132 13 111 4 c 0
 107 3 79 -11 78 -10 c 1
 84 -7 l 1
 74 -10 l 1
 82 -10 64 -16 62 -16 c 0
 54 -17 46 -16 39 -13 c 0
 27 -9 20 0 13 11 c 0
 4 28 -1 47 0 67 c 0
 0 69 8 120 14 119 c 0
 16 119 13 113 15 113 c 0
 16 120 17 128 19 134 c 1
 19 133 17 132 17 132 c 2
 13 133 48 232 51 240 c 0
 58 260 64 282 75 300 c 0
 79 307 87 310 89 313 c 0
 94 318 93 324 96 329 c 0
 108 352 141 364 164 349 c 0
 173 343 182 332 179 320 c 0
 178 314 173 313 170 308 c 1
 173 311 l 2
 177 310 161 277 158 278 c 0
 157 278 163 293 162 293 c 0xde80
 140 245 118 197 101 147 c 1
 104 154 140 245 143 244 c 0
 145 243 47 43 97 34 c 0
 113 31 137 61 147 70 c 0
 171 93 200 122 219 147 c 1
 217 145 215 144 213 143 c 0
 211 143 235 180 238 184 c 0
 247 198 257 211 267 225 c 0
 278 241 288 260 300 275 c 0
 316 293 344 302 365 287 c 0
 374 281 382 272 380 260 c 0
 379 253 372 251 369 246 c 1
 374 249 l 2
 376 249 363 210 359 211 c 0
 358 211 360 219 361 224 c 1
 342 170 327 113 318 56 c 1
 321 73 343 171 348 170 c 0
 350 169 281 -41 332 -46 c 0
 356 -49 385 21 395 38 c 0
 407 58 418 78 429 98 c 0xed80
 434 106 455 133 454 139 c 1
 450 136 l 1
 451 136 452 188 453 192 c 0
 458 214 466 234 478 253 c 0
 491 273 510 293 527 309 c 0
 530 311 531 314 534 315 c 0
 546 320 558 311 562 299 c 0
 567 281 555 266 545 253 c 0
 523 220 513 180 498 143 c 1
 510 143 527 140 538 148 c 0
 546 152 554 161 565 165 c 0
 585 175 605 190 620 207 c 0
 629 217 634 231 646 240 c 0
 657 247 681 256 683 235 c 0xde80
243 22 m 0
 240 -13 244 -69 280 -85 c 1
 247 -69 247 -18 249 14 c 0xdd80
 250 40 254 67 259 95 c 1
 252 71 245 47 243 22 c 0
294 198 m 0
 296 203 300 209 303 214 c 1
 289 198 282 177 276 156 c 1
 281 170 286 184 293 197 c 1
 293 196 293 196 294 198 c 0
90 113 m 1
 82 81 l 1
 82 81 83 82 83 81 c 1
 90 113 l 1
EndSplineSet
Validated: 37
EndChar

StartChar: x
Encoding: 120 120 23
Width: 370
Flags: MW
HStem: 254 27<307 316.5>
VStem: 54 93 76 74 306 29
LayerCount: 2
Fore
SplineSet
443 238 m 0xd0
 444 211 418 187 406 167 c 0
 388 136 368 109 345 80 c 0
 323 52 301 21 274 -4 c 0
 260 -16 246 -25 230 -33 c 0
 228 -35 206 -53 204 -52 c 1
 206 -50 l 1
 201 -52 l 1
 207 -51 190 -63 189 -64 c 0
 184 -66 179 -68 173 -68 c 0
 170 -69 168 -68 164 -68 c 0
 137 -66 104 -44 91 -19 c 1
 72 -46 46 -80 14 -92 c 0
 -3 -99 -36 -88 -20 -66 c 0
 -16 -60 -6 -58 0 -55 c 0
 12 -49 22 -40 32 -31 c 0
 43 -19 52 -5 63 8 c 0
 69 15 74 19 76 27 c 0
 76 29 73 42 74 43 c 0
 76 43 76 37 78 37 c 1
 72 62 l 1
 72 60 72 58 71 56 c 0
 67 55 56 158 56 167 c 0
 55 188 53 209 54 229 c 0
 55 247 60 257 65 271 c 0
 72 288 75 299 94 309 c 0
 105 316 119 321 133 319 c 0
 143 318 155 313 159 302 c 0
 162 292 155 289 154 281 c 1
 154 282 155 284 157 285 c 0
 159 285 156 247 152 247 c 0
 151 247 152 264 152 264 c 1
 147 216 144 168 144 120 c 1
 149 128 144 207 150 207 c 1
 150 207 147 132 147 125 c 1
 148 126 170 155 174 153 c 0
 176 152 172 150 173 148 c 1
 183 162 l 1
 182 161 181 160 179 160 c 0
 177 162 234 237 242 245 c 0xd0
 254 258 260 256 272 262 c 0
 283 268 290 280 307 281 c 0
 310 281 313 282 316 281 c 0
 326 280 342 267 332 256 c 0
 326 250 322 256 316 254 c 1
 317 254 318 254 320 253 c 0
 321 249 298 243 297 244 c 0
 297 245 306 251 306 251 c 1
 274 237 249 205 227 179 c 1
 231 183 256 210 270 223 c 1
 247 199 187 119 182 110 c 0
 176 99 171 88 164 78 c 0
 153 64 148 60 150 41 c 0
 152 26 155 -10 171 -17 c 0
 188 -26 212 1 222 10 c 0xb0
 254 35 293 67 318 97 c 1
 316 96 314 94 311 93 c 1
 311 93 342 138 346 143 c 0
 362 164 378 185 393 206 c 0
 399 215 416 248 426 251 c 0
 434 254 442 246 443 238 c 0xd0
146 56 m 1xb0
 142 52 147 33 150 22 c 1
 148 31 147 40 146 49 c 2
 146 56 l 1xb0
EndSplineSet
Validated: 37
EndChar

StartChar: y
Encoding: 121 121 24
Width: 510
Flags: MW
HStem: -11 8 -1 21G<88 88> 314 46 340 20G
VStem: 0 82
LayerCount: 2
Fore
SplineSet
583 239 m 0x58
 585 220 567 211 554 201 c 2
 467 132 l 2
 436 107 405 81 375 54 c 0
 363 43 343 31 333 17 c 0
 323 3 319 -27 313 -44 c 0
 276 -161 241 -284 177 -390 c 0
 157 -422 141 -456 100 -466 c 0
 55 -478 5 -455 -22 -418 c 0
 -62 -366 -18 -305 14 -262 c 0
 45 -221 76 -179 111 -142 c 0
 136 -116 163 -91 190 -66 c 0
 209 -47 242 -25 255 -1 c 0
 271 29 277 70 288 103 c 0
 296 131 305 159 314 187 c 1
 298 175 285 152 270 137 c 2
 204 71 l 2
 183 49 158 26 129 14 c 0x58
 123 12 87 -4 86 -3 c 1
 88 -1 l 1
 82 -3 l 1
 89 -3 70 -11 66 -11 c 0
 55 -13 43 -11 34 -6 c 0
 15 4 2 29 0 49 c 0
 -1 56 3 120 13 119 c 0
 15 119 12 113 14 112 c 1
 15 119 16 127 18 134 c 1
 16 132 l 1
 11 133 46 233 49 242 c 0
 57 262 63 284 74 303 c 0
 78 309 83 311 86 317 c 0
 88 319 91 326 94 330 c 0
 105 353 133 367 157 357 c 0
 168 353 183 339 180 326 c 0
 178 320 173 318 170 314 c 1
 171 314 172 315 173 315 c 0
 176 314 161 281 158 282 c 0
 156 282 159 290 160 294 c 1xa8
 138 248 117 200 101 151 c 1
 108 169 140 248 143 247 c 0
 146 246 47 54 95 39 c 0
 112 33 144 65 155 74 c 0
 182 95 216 119 238 142 c 1
 236 141 234 139 231 139 c 1
 232 139 279 196 286 204 c 0
 303 223 332 245 340 270 c 0
 344 284 346 294 367 298 c 0
 391 302 427 291 432 264 c 0
 434 252 429 243 423 233 c 0
 393 184 365 130 346 76 c 1
 392 115 438 154 487 191 c 0
 504 205 522 217 539 231 c 0
 549 240 580 271 583 239 c 0x58
153 -280 m 1
 183 -212 207 -142 231 -73 c 1
 189 -112 152 -153 117 -198 c 0
 83 -241 43 -288 28 -342 c 0
 22 -364 25 -430 65 -416 c 0
 86 -409 101 -380 112 -362 c 0
 125 -340 137 -317 147 -294 c 2
 147 -294 148 -292 148 -291 c 2
 148 -291 148 -290 149 -290 c 1
 149 -289 l 1
 153 -281 l 1
 153 -280 l 1
211 -266 m 0
 206 -276 202 -288 198 -299 c 1
 207 -283 l 2
 218 -265 223 -247 229 -229 c 1
 222 -241 215 -254 211 -266 c 0
245 -157 m 2
 247 -152 246 -145 245 -140 c 1
 247 -151 239 -167 235 -176 c 0
 231 -182 229 -192 227 -201 c 1
 245 -157 l 2
213 -242 m 1
 215 -240 216 -238 217 -236 c 1
 213 -242 l 1
EndSplineSet
Validated: 33
EndChar

StartChar: z
Encoding: 122 122 25
Width: 407
Flags: MW
HStem: -290 38 187 41 369 60<292 334>
VStem: -179 68 262 77
LayerCount: 2
Fore
SplineSet
328 156 m 1
 328 155 329 154 329 153 c 1
 416 218 l 2
 424 224 469 270 480 249 c 0
 484 237 471 223 463 215 c 0
 439 190 411 169 384 147 c 0
 372 137 356 127 346 116 c 0
 338 107 339 106 339 94 c 0
 339 85 339 76 338 68 c 0
 335 39 326 12 314 -14 c 0
 265 -120 180 -225 70 -270 c 1
 117 -243 169 -210 204 -167 c 0
 227 -139 248 -109 261 -75 c 0
 271 -49 285 -21 294 6 c 1
 284 -23 265 -54 250 -80 c 0
 232 -111 209 -139 187 -168 c 0
 158 -208 116 -238 75 -264 c 0
 32 -292 -27 -296 -77 -290 c 0
 -93 -288 -110 -284 -125 -278 c 0
 -141 -271 -156 -262 -165 -247 c 0
 -172 -236 -171 -216 -172 -212 c 0
 -172 -206 -172 -201 -171 -196 c 1
 -173 -201 -175 -207 -176 -207 c 0
 -189 -194 -157 -145 -149 -133 c 0
 -123 -99 -82 -76 -46 -55 c 0
 46 0 145 40 236 94 c 0
 254 105 264 108 262 129 c 0
 260 144 254 165 243 176 c 0
 221 197 183 182 160 171 c 0
 141 161 118 140 98 135 c 0
 82 132 69 143 65 158 c 0
 62 168 67 177 73 184 c 1
 73 185 l 1
 68 187 103 207 104 207 c 0
 119 214 129 220 142 231 c 0
 156 243 171 251 187 261 c 0
 188 261 203 273 207 277 c 0
 210 281 210 283 217 291 c 0
 226 300 238 307 247 316 c 0
 263 332 276 352 292 369 c 1
 280 364 l 1
 283 364 l 1
 285 360 195 337 188 336 c 0
 174 333 153 327 139 333 c 0
 131 336 129 341 123 345 c 0
 117 349 110 347 104 356 c 0
 98 367 101 380 107 390 c 0
 112 398 124 412 134 414 c 0
 140 415 143 413 147 413 c 1
 147 414 l 2
 146 418 176 422 176 419 c 0
 176 418 173 416 169 415 c 1
 190 418 210 421 231 422 c 1
 219 422 206 422 206 423 c 0
 206 425 323 429 334 429 c 0
 353 428 392 429 387 400 c 0
 385 388 372 375 364 367 c 0
 339 341 304 322 280 301 c 1
 283 303 285 304 288 304 c 1
 288 304 214 234 207 228 c 1
 264 231 307 206 326 151 c 1
 327 152 328 154 328 156 c 1
229 21 m 0
 232 27 233 32 235 37 c 1
 202 16 167 -2 134 -22 c 0
 133 -23 118 -38 112 -37 c 1
 128 -26 l 1
 106 -38 l 1
 107 -38 108 -39 108 -40 c 0
 101 -51 77 -61 66 -67 c 2
 21 -93 l 2
 -7 -109 -36 -125 -60 -147 c 0
 -85 -169 -131 -212 -101 -246 c 0
 -96 -252 -90 -255 -83 -257 c 0
 -75 -259 -32 -252 -31 -252 c 1
 -31 -252 -35 -254 -38 -256 c 1
 -25 -251 -12 -245 1 -238 c 1
 0 -238 l 1
 10 -233 25 -221 32 -217 c 0
 44 -209 56 -200 67 -190 c 0
 93 -168 118 -143 141 -118 c 0
 180 -75 208 -32 229 21 c 0
279 219 m 1
 298 208 312 191 321 171 c 1
 310 189 286 212 281 216 c 1
 282 215 236 234 236 231 c 1
 236 236 281 218 279 219 c 1
335 71 m 0
 336 83 337 96 336 108 c 1
 331 104 332 58 330 45 c 1
 332 53 334 62 335 71 c 0
327 426 m 2
 325 426 323 425 322 425 c 1
 334 425 l 1
 332 425 329 426 328 426 c 2
 327 426 l 2
328 156 m 1
 326 161 324 166 321 171 c 1
 325 165 328 160 328 156 c 1
117 208 m 1
 116 207 l 1
 117 207 117 207 118 208 c 1
 117 208 l 1
264 -95 m 1
 265 -94 266 -94 266 -93 c 1
 266 -94 265 -94 264 -95 c 1
EndSplineSet
Validated: 37
EndChar

StartChar: A
Encoding: 65 65 27
Width: 522
Flags: MW
HStem: -114 65<425.5 427 425.5 441.5> -114 887 488 95 624 149
VStem: 0 101 31 67 98 7 320 10<75 77> 332 69 402 116 546 11
LayerCount: 2
Fore
SplineSet
553 551 m 0x3820
 563 535 553 529 546 520 c 1
 547 521 548 522 550 522 c 0
 552 521 530 486 526 488 c 0
 525 488 528 492 530 496 c 1
 500 452 479 404 461 354 c 1
 473 386 497 444 505 449 c 1
 498 441 461 344 458 334 c 0
 444 294 433 253 427 212 c 0
 420 170 416 128 411 87 c 0x20a0
 407 54 399 16 402 -14 c 1
 402 -10 402 -6 404 -2 c 0
 405 -2 412 -46 418 -50 c 0
 421 -52 424 -49 427 -49 c 0
 445 -46 465 -18 475 -6 c 0
 482 2 494 26 504 30 c 0
 540 46 497 -64 487 -76 c 0
 471 -97 456 -114 427 -114 c 0
 403 -114 380 -105 362 -90 c 0
 330 -61 316 -16 314 25 c 0
 314 43 317 58 320 75 c 0
 320 79 318 109 321 110 c 1
 321 109 322 108 322 107 c 1
 322 109 321 111 322 112 c 1
 320 112 319 130 319 131 c 0
 320 144 323 156 325 169 c 0
 329 188 331 206 333 225 c 0
 333 232 351 317 361 316 c 0
 363 316 360 309 361 308 c 1
 369 336 l 1
 316 250 261 162 202 79 c 0
 183 54 149 -1 113 -3 c 0
 80 -5 50 30 34 55 c 2
 34 55 22 67 21 72 c 1
 22 69 31 60 31 60 c 1
 19 81 l 1
 22 71 14 88 13 88 c 0x8540
 9 95 7 103 6 110 c 0
 1 127 0 145 0 162 c 0
 1 198 11 232 18 267 c 0
 24 303 36 337 50 370 c 0
 53 376 80 444 87 443 c 1
 87 443 82 430 83 429 c 1x48
 89 445 97 461 105 477 c 1
 102 473 98 468 98 468 c 1
 99 484 117 505 124 519 c 2
 154 578 l 2x12
 177 618 205 655 234 691 c 0
 259 722 290 755 329 769 c 0
 349 776 371 772 391 768 c 0
 428 760 466 734 494 710 c 0
 505 700 527 684 526 667 c 0
 526 653 509 639 498 632 c 0
 473 616 465 625 459 648 c 1
 459 647 462 637 460 636 c 0
 458 635 449 667 448 671 c 0
 446 677 444 684 441 690 c 1
 444 685 447 682 449 680 c 1
 445 692 439 700 433 704 c 0
 423 708 411 706 395 700 c 0
 373 692 353 678 336 662 c 0
 288 619 252 562 222 505 c 1
 241 540 263 573 287 605 c 0
 299 621 312 636 327 650 c 0
 334 657 350 666 358 674 c 1
 347 661 328 649 317 638 c 0
 304 624 293 609 282 594 c 0
 258 561 237 526 218 490 c 0
 178 414 146 333 125 250 c 0
 115 212 106 173 101 134 c 0
 100 125 93 91 103 85 c 0
 118 76 161 127 168 135 c 0
 191 159 214 183 234 207 c 1
 230 203 226 198 224 199 c 0
 223 199 262 256 266 261 c 2
 314 329 l 2
 348 378 381 429 414 478 c 0
 422 490 428 503 435 516 c 0
 440 527 448 533 454 540 c 0
 461 547 462 560 469 568 c 0
 494 599 535 578 553 551 c 0x3820
106 222 m 0x41
 102 190 97 156 95 123 c 2
 95 119 l 1
 97 137 l 2
 99 170 106 203 114 236 c 0
 130 301 150 368 174 431 c 0
 197 490 223 547 256 601 c 0
 272 629 294 660 321 683 c 1
 290 658 266 622 249 592 c 0
 218 539 189 486 165 429 c 0
 137 364 116 292 106 222 c 0x41
330 69 m 0
 329 49 330 30 332 11 c 1
 331 22 332 33 333 44 c 0
 335 63 339 81 341 100 c 0
 342 116 341 133 343 148 c 1
 340 141 338 134 336 128 c 0
 331 108 330 90 330 69 c 0
181 420 m 1
 181 422 l 1
 179 417 l 1
 181 420 l 1
338 696 m 1
 334 694 330 690 326 687 c 1
 338 696 l 1
434 702 m 1
 434 700 436 697 438 694 c 1
 434 702 l 1
441 691 m 1
 441 691 439 692 438 694 c 1
 441 691 l 1
458 346 m 1
 461 354 l 1
 458 346 l 1
EndSplineSet
Validated: 37
EndChar

StartChar: B
Encoding: 66 66 28
Width: 643
Flags: MW
HStem: -158 961 301 51<431 431>
VStem: 26 105 29 35 335 12 494 89 564 99
LayerCount: 2
Fore
SplineSet
430 352 m 1x5a
 497 358 565 327 580 256 c 0
 587 221 580 181 569 147 c 0
 531 29 422 -54 312 -103 c 0
 266 -124 214 -142 164 -152 c 0
 133 -158 103 -160 73 -154 c 0
 57 -152 14 -148 4 -134 c 0
 -6 -122 5 -123 17 -121 c 0
 46 -116 74 -112 101 -103 c 0
 165 -84 226 -55 282 -21 c 0
 335 11 385 48 426 94 c 0
 445 116 463 140 475 166 c 0
 481 179 493 219 487 225 c 0
 485 226 481 245 481 256 c 1
 482 249 486 242 487 237 c 1
 486 248 484 259 479 270 c 1
 479 267 l 1
 476 272 464 286 463 286 c 0
 454 295 443 299 431 301 c 0x44
 406 304 390 291 368 285 c 0
 342 278 269 325 298 348 c 0
 311 358 332 363 347 372 c 0
 372 390 396 409 418 431 c 0
 442 454 463 480 483 507 c 0
 488 514 520 569 525 568 c 1
 525 568 517 550 517 549 c 1
 528 570 539 591 547 613 c 1
 547 614 l 1
 548 615 l 1
 549 618 l 2
 562 648 575 709 548 716 c 0
 530 721 509 695 498 684 c 0
 441 628 392 561 349 494 c 0
 324 456 301 418 278 379 c 0
 264 356 245 337 235 313 c 0
 204 240 171 170 147 94 c 0
 135 55 127 16 120 -24 c 1
 117 -18 l 1
 89 -48 48 -27 35 5 c 0
 20 38 28 86 29 121 c 0
 31 163 33 206 43 247 c 0
 47 264 53 279 59 295 c 0
 60 299 63 330 66 331 c 1
 66 330 66 329 67 328 c 1
 67 330 68 332 68 335 c 1
 64 325 67 351 68 352 c 0
 70 363 74 374 77 384 c 0
 83 404 88 422 91 442 c 0
 93 449 118 538 128 536 c 0
 130 535 126 529 127 528 c 1
 134 550 l 2
 131 551 179 657 183 666 c 0
 201 699 214 732 243 756 c 0
 261 770 283 813 316 801 c 0
 331 795 346 773 347 757 c 0
 347 745 341 743 335 736 c 1
 336 737 338 738 340 738 c 0
 342 737 316 703 313 704 c 0
 312 704 316 711 319 716 c 1
 283 667 255 613 231 557 c 1
 241 578 282 663 289 666 c 1
 284 663 237 561 232 552 c 0
 215 512 200 472 188 430 c 0
 177 390 169 350 158 310 c 0
 149 278 136 242 131 210 c 1
 132 212 133 214 135 216 c 0
 136 217 131 169 131 166 c 2
 127 128 l 1
 170 274 242 412 327 537 c 1
 295 491 265 443 237 394 c 0
 224 369 211 344 199 319 c 0
 190 301 171 272 168 254 c 1
 170 271 184 291 191 306 c 0
 199 325 208 343 218 361 c 0
 235 394 253 427 272 459 c 0
 314 526 360 592 410 653 c 0
 434 683 460 712 487 739 c 0
 508 759 537 791 567 796 c 0
 623 805 658 747 663 699 c 0
 681 555 556 407 430 352 c 1x5a
474 102 m 0x94
 481 118 492 145 494 162 c 1
 489 150 l 2
 472 115 453 88 428 59 c 2
 394 23 l 1
 406 32 421 38 435 50 c 0
 450 63 467 83 474 102 c 0x94
598 528 m 0
 587 508 574 490 560 472 c 1xa0
 569 482 577 492 586 501 c 0
 611 529 623 556 633 589 c 1
 623 567 608 545 598 528 c 0
72 218 m 0x94
 77 229 83 240 85 253 c 0
 86 259 86 265 86 270 c 1
 81 260 74 249 71 240 c 0
 65 219 62 189 64 167 c 1
 63 182 66 204 72 218 c 0x94
213 513 m 1
 215 519 l 1
 214 517 213 515 213 513 c 1
405 642 m 1
 398 635 l 1
 405 642 l 1
229 553 m 1
 231 557 l 1
 230 556 229 554 229 553 c 1
EndSplineSet
Validated: 37
EndChar

StartChar: C
Encoding: 67 67 29
Width: 499
Flags: MW
HStem: -146 77 714 21<411 411> 736 69
VStem: 0 8 474 10 487 56
LayerCount: 2
Fore
SplineSet
94 80 m 1
 94 79 93 79 93 78 c 2
 93 77 l 1
 88 46 87 18 88 -12 c 1
 91 -18 l 2
 92 -21 93 -26 93 -31 c 1
 99 -34 104 -51 109 -56 c 0
 118 -65 129 -68 141 -69 c 0
 150 -69 159 -68 167 -66 c 0
 228 -52 278 -5 318 39 c 0
 357 81 392 127 422 176 c 0
 426 182 434 206 445 205 c 0
 457 204 452 169 451 162 c 0
 438 60 369 -30 293 -94 c 0
 267 -115 233 -144 198 -146 c 0
 168 -148 136 -131 112 -116 c 0
 66 -89 24 -47 7 4 c 0
 -6 41 2 81 7 119 c 0
 8 121 5 140 9 145 c 1
 8 143 8 126 8 126 c 1
 9 133 9 142 11 149 c 1
 9 147 11 163 11 164 c 0
 12 173 14 181 16 190 c 0
 20 209 26 227 32 246 c 0
 44 284 60 321 72 360 c 0
 83 395 99 428 117 461 c 0
 122 470 163 552 172 550 c 1
 172 550 165 536 166 535 c 1
 176 552 186 570 197 587 c 1
 193 583 188 577 188 577 c 1
 192 590 208 607 216 618 c 0
 223 630 231 641 239 653 c 0
 257 679 277 705 298 729 c 0
 327 759 369 803 414 805 c 0
 495 810 542 724 543 656 c 2
 543 655 l 2
 543 619 534 578 510 551 c 0
 488 526 444 497 410 493 c 0
 402 492 388 489 390 501 c 0
 390 502 393 505 397 508 c 1
 396 508 l 1
 402 510 434 584 441 583 c 1
 441 583 429 556 426 549 c 1
 443 581 459 613 472 647 c 0
 479 667 493 702 484 723 c 0
 472 749 436 729 420 720 c 2xb4
 406 712 l 1
 411 714 l 1
 406 711 402 708 399 705 c 1
 404 709 410 713 416 715 c 0x54
 429 724 460 743 476 731 c 0
 488 721 485 706 480 692 c 1
 484 710 484 729 466 732 c 0
 448 735 434 720 420 716 c 1x58
 374 686 338 637 308 592 c 0
 274 543 244 490 218 436 c 0
 190 379 169 320 147 260 c 0
 126 203 105 145 94 86 c 1
 94 81 l 2
 94 80 94 80 93 79 c 1
 94 80 l 1
270 569 m 0x58
 286 596 306 628 329 656 c 1
 272 594 224 519 188 442 c 0
 158 378 133 314 112 247 c 1
 127 290 146 331 165 371 c 0
 198 439 231 505 270 569 c 0x58
373 679 m 0
 380 686 389 696 398 704 c 1
 373 684 353 659 334 634 c 1
 346 649 359 665 373 679 c 0
475 671 m 0
 475 670 475 669 474 667 c 1
 474 674 478 683 480 692 c 1
 479 684 477 677 475 671 c 0
EndSplineSet
Validated: 33
EndChar

StartChar: D
Encoding: 68 68 30
Width: 608
Flags: MW
HStem: -131 923
VStem: 69 43<246 263 251 263> 587 80
LayerCount: 2
Fore
SplineSet
664 705 m 0
 667 681 668 656 667 632 c 0
 666 607 658 582 659 558 c 0
 659 556 663 547 663 541 c 0
 662 531 660 519 658 509 c 0
 653 483 646 458 638 433 c 0
 623 381 604 332 582 282 c 0
 574 264 560 246 555 227 c 0
 552 216 551 204 546 192 c 0
 524 144 496 96 465 53 c 0
 426 -2 360 -83 283 -70 c 0
 207 -57 165 17 165 88 c 1
 183 49 219 -31 273 -18 c 0
 320 -6 351 58 373 95 c 0
 399 141 424 189 446 238 c 0
 480 314 506 396 534 476 c 0
 551 525 565 575 576 625 c 0
 579 639 598 708 578 715 c 0
 562 721 527 678 519 669 c 0
 483 630 450 588 417 546 c 0
 364 479 322 404 277 332 c 0
 223 243 175 150 136 54 c 0
 117 7 104 -34 98 -84 c 0
 96 -93 98 -110 90 -119 c 0
 71 -144 23 -125 9 -105 c 0
 -11 -76 7 -19 12 13 c 0
 19 63 25 113 39 162 c 0
 44 180 52 196 59 213 c 0
 60 216 65 249 68 250 c 1
 68 249 68 247 69 246 c 1
 69 251 l 1
 67 250 71 271 71 272 c 0
 74 286 79 299 84 312 c 0
 91 332 96 351 100 372 c 0
 101 379 130 470 139 468 c 0
 141 467 137 460 138 459 c 1
 142 468 144 478 148 487 c 1
 145 483 l 2
 142 484 196 611 201 621 c 0
 210 644 219 667 232 688 c 0
 240 702 251 709 257 721 c 0
 268 742 286 768 313 764 c 0
 331 761 350 741 357 724 c 0
 362 710 358 705 352 696 c 1
 356 699 l 2
 359 698 338 657 334 658 c 0
 333 658 337 668 340 674 c 1
 311 618 283 560 257 502 c 1
 271 531 301 595 311 611 c 1
 296 585 230 429 229 425 c 0
 195 339 170 248 140 160 c 1
 203 300 286 433 377 556 c 0
 420 614 465 671 514 722 c 0
 534 743 573 792 605 792 c 0
 647 792 660 738 664 705 c 0
122 349 m 1
 122 349 121 334 123 336 c 0
 129 343 132 364 135 374 c 0
 141 390 146 406 153 422 c 0
 165 451 178 479 192 508 c 0
 203 530 212 552 222 574 c 0
 226 584 232 593 236 602 c 0
 239 608 240 618 242 623 c 1
 220 586 202 547 183 509 c 0
 168 480 157 452 146 422 c 0
 137 399 125 373 122 349 c 1
437 162 m 2
 437 163 l 1
 441 169 475 243 475 244 c 1
 474 244 470 236 465 226 c 1
 465 225 l 2
 462 220 460 214 458 209 c 1
 459 214 l 1
 453 200 l 2
 450 192 447 184 443 176 c 1
 451 195 l 1
 438 167 423 139 407 111 c 0
 388 77 367 42 343 11 c 0
 333 -1 321 -16 307 -23 c 0
 306 -24 285 -28 286 -31 c 0
 295 -52 358 28 361 32 c 0
 383 64 404 100 423 135 c 0
 423 136 423 137 424 137 c 2
 429 147 l 2
 431 152 434 157 437 162 c 2
510 269 m 1
 510 270 l 1
 495 234 474 201 462 165 c 1
 467 181 481 196 489 211 c 0
 498 229 505 249 510 269 c 1
137 327 m 2
 140 330 l 1
 132 327 130 307 126 301 c 0
 121 293 116 289 115 279 c 0
 114 274 112 266 112 260 c 1
 114 268 125 280 128 286 c 0
 132 299 129 314 137 327 c 2
362 29 m 1
 377 49 390 71 403 96 c 1
 390 72 376 50 362 29 c 1
256 648 m 1
 252 644 252 641 254 639 c 1
 259 644 260 646 256 648 c 1
232 443 m 1
 236 451 239 459 242 468 c 1
 216 404 l 1
 232 442 l 1
 232 443 l 1
412 114 m 1
 410 109 l 1
 411 111 412 112 412 114 c 1
454 202 m 1
 454 201 453 201 453 200 c 1
 454 201 454 201 454 202 c 1
EndSplineSet
Validated: 37
EndChar

StartChar: E
Encoding: 69 69 31
Width: 465
Flags: MW
HStem: -152 74
VStem: 0 96 0 696
LayerCount: 2
Fore
SplineSet
696 730 m 0xa0
 698 711 658 705 647 702 c 0
 638 700 629 701 621 698 c 0
 618 700 615 700 611 698 c 1
 612 696 611 694 610 693 c 0
 593 685 573 680 554 677 c 0
 534 673 514 667 494 664 c 0
 486 663 477 663 469 660 c 0
 459 657 461 655 454 653 c 0
 436 646 417 646 399 644 c 0
 389 642 378 639 368 636 c 2
 350 633 l 2
 350 630 348 627 346 625 c 1
 346 628 346 630 348 633 c 1
 342 632 331 592 329 586 c 2
 308 533 l 2
 298 507 288 482 279 456 c 1
 291 489 307 530 316 551 c 1
 295 500 240 345 234 328 c 1
 278 333 322 336 365 341 c 0
 388 344 410 347 433 348 c 2
 446 348 l 2
 449 349 452 354 454 353 c 0
 466 349 463 340 455 333 c 0
 442 322 421 326 406 322 c 0
 398 320 402 318 393 314 c 0
 384 308 368 307 358 305 c 0
 339 303 321 299 302 296 c 0
 288 294 281 286 264 284 c 0
 251 282 226 284 215 276 c 0
 209 271 204 244 201 236 c 2
 189 199 l 2
 174 150 157 103 140 55 c 0
 130 29 121 3 112 -23 c 0
 106 -41 97 -57 96 -75 c 0
 96 -78 100 -56 103 -59 c 0
 106 -62 102 -74 103 -78 c 1
 147 -70 193 -40 232 -19 c 0
 270 1 307 24 345 44 c 0
 363 53 373 49 365 28 c 0
 358 9 339 -10 324 -24 c 0
 302 -44 281 -64 257 -83 c 0
 209 -119 139 -172 76 -146 c 0
 37 -130 -4 -93 0 -47 c 0
 2 -28 13 -15 22 1 c 0
 24 6 33 46 38 47 c 1
 38 47 35 37 34 34 c 1
 39 49 l 2
 38 50 42 65 42 67 c 2
 53 95 l 2
 60 113 68 130 74 148 c 0xc0
 88 183 95 219 110 254 c 1
 83 254 40 291 77 308 c 0
 78 308 79 308 79 309 c 0
 92 313 109 312 122 313 c 0
 128 314 134 317 139 318 c 0
 140 318 141 326 143 325 c 2
 143 325 141 317 140 316 c 1
 145 317 152 344 155 354 c 1
 154 351 152 348 150 345 c 1
 151 345 231 587 238 609 c 1
 206 604 146 610 152 656 c 0
 153 667 158 673 170 677 c 0
 197 687 254 673 270 697 c 0
 283 715 272 739 296 747 c 0
 313 753 336 743 350 733 c 0
 358 727 362 720 369 713 c 0
 371 710 372 707 372 703 c 1
 391 706 l 2
 437 711 483 714 529 720 c 0
 572 725 616 732 660 733 c 0
 665 733 672 733 676 734 c 0
 679 734 683 738 684 738 c 0
 689 738 695 738 696 730 c 0xa0
185 374 m 0
 201 411 210 455 222 492 c 1
 212 466 200 441 192 415 c 2
 145 286 l 1
 158 316 172 343 185 374 c 0
234 336 m 2
 243 360 l 1
 230 328 l 1
 233 328 235 331 234 336 c 2
322 564 m 1
 322 563 321 562 321 561 c 1
 321 561 322 563 322 564 c 1
322 564 m 1
 323 565 323 566 324 566 c 1
 323 566 323 565 322 564 c 1
319 558 m 1
 316 551 l 1
 319 558 l 1
EndSplineSet
Validated: 37
EndChar

StartChar: F
Encoding: 70 70 32
Width: 436
Flags: MW
HStem: 254 59 607 76
VStem: 0 681 60 45
LayerCount: 2
Fore
SplineSet
678 733 m 1xe0
 695 723 623 687 616 685 c 0
 603 681 605 679 595 671 c 0
 584 662 561 657 548 654 c 0
 495 640 446 626 393 622 c 0
 381 621 364 620 352 617 c 0
 339 613 342 615 337 600 c 2
 329 578 l 2
 320 549 312 519 303 489 c 0
 294 460 284 429 270 403 c 0
 266 397 254 358 252 358 c 1
 252 361 l 1
 249 353 l 1
 254 362 250 341 250 340 c 1
 284 343 317 346 351 348 c 0
 383 351 415 346 447 348 c 0
 449 348 464 360 460 341 c 0
 456 323 420 325 407 322 c 0
 395 319 389 312 372 309 c 0
 356 305 341 303 325 299 c 0
 313 296 298 298 286 293 c 0
 278 289 269 284 256 283 c 0
 242 282 232 283 225 270 c 0
 218 256 219 235 214 220 c 0
 212 215 189 146 183 147 c 0
 181 147 185 154 184 155 c 1
 180 146 177 136 174 128 c 1
 178 132 l 1
 179 131 141 13 138 3 c 0
 126 -33 121 -77 97 -104 c 0
 91 -111 102 -110 87 -115 c 0
 71 -120 43 -104 30 -95 c 0
 15 -85 3 -70 0 -52 c 0
 -2 -35 6 -31 11 -19 c 1
 7 -23 l 2
 4 -23 19 19 23 19 c 1
 23 18 22 16 22 14 c 1
 54 95 l 1
 46 75 39 61 39 62 c 1
 40 62 108 238 114 254 c 1
 91 253 41 275 67 303 c 0
 73 309 82 310 89 311 c 2
 119 316 l 2
 139 321 139 323 145 342 c 0
 153 366 161 389 171 413 c 0xd0
 188 453 212 494 226 532 c 1
 220 524 l 2
 218 524 230 560 231 564 c 0
 237 579 241 593 246 607 c 1
 215 605 133 607 150 660 c 0
 157 680 177 679 195 680 c 0
 209 681 222 681 236 683 c 0
 244 683 256 683 264 686 c 0
 275 689 275 687 279 700 c 0
 283 712 285 727 292 738 c 0
 315 776 367 726 366 695 c 1
 425 705 488 704 548 712 c 0
 578 716 609 720 640 726 c 0
 646 727 674 729 678 733 c 1xe0
203 263 m 1xd0
 202 261 202 260 203 264 c 2
 203 265 l 1
 175 190 143 116 118 41 c 1
 130 74 148 106 161 139 c 0
 176 180 190 222 203 263 c 1xd0
118 255 m 1
 115 254 109 236 105 224 c 1
 118 255 l 1
204 268 m 1
 203 267 203 266 203 265 c 1
 203 266 203 266 204 267 c 2
 204 268 l 1
204 268 m 1
 204 269 205 270 205 270 c 1
 205 271 l 1
 204 270 204 269 204 268 c 1
EndSplineSet
Validated: 37
EndChar

StartChar: G
Encoding: 71 71 33
Width: 557
Flags: MW
HStem: -408 64 49 81 686 73
VStem: 0 67 45 78 469 81
LayerCount: 2
Fore
SplineSet
576 438 m 0xd0
 577 427 573 418 568 408 c 0
 556 384 543 360 530 336 c 0
 523 322 525 312 519 296 c 0
 510 269 497 242 487 214 c 2
 427 67 l 2
 409 21 385 -23 372 -69 c 0
 359 -117 332 -162 309 -205 c 0
 285 -251 264 -297 232 -338 c 0
 215 -361 192 -391 165 -403 c 0
 138 -415 103 -406 77 -395 c 0
 -9 -359 -17 -272 24 -198 c 0
 49 -154 84 -115 123 -83 c 0
 138 -72 151 -58 165 -46 c 0
 175 -37 193 -15 208 -14 c 0
 239 -12 191 -58 186 -64 c 0
 154 -104 126 -148 104 -195 c 0
 89 -225 48 -301 77 -333 c 0
 104 -364 142 -319 158 -298 c 0x90
 220 -213 259 -110 298 -13 c 0
 337 87 371 189 407 291 c 1
 372 233 332 176 288 125 c 0
 260 94 224 54 180 49 c 0
 105 40 43 135 45 201 c 0
 45 202 41 222 45 226 c 1
 45 208 l 1
 48 231 l 1
 45 226 47 256 48 262 c 0
 53 282 59 302 67 322 c 0
 79 354 94 386 106 418 c 0
 118 450 135 479 154 508 c 0
 158 514 199 580 206 577 c 1
 206 577 199 565 200 565 c 0
 209 577 219 593 231 608 c 1
 223 600 l 1
 227 616 249 633 259 645 c 0
 274 662 288 679 304 695 c 0
 334 724 370 754 413 759 c 0
 461 766 505 738 531 698 c 0
 540 684 540 674 542 660 c 0
 543 647 550 637 550 623 c 0
 551 587 521 553 496 529 c 0
 472 506 435 473 402 464 c 0
 383 459 385 465 391 473 c 1
 388 471 385 468 385 470 c 0
 386 475 425 535 429 534 c 1
 429 534 414 506 413 504 c 1
 435 538 453 574 464 612 c 0
 469 630 477 659 469 677 c 0
 452 712 388 641 361 611 c 1
 374 625 387 639 402 653 c 0
 414 663 436 685 452 685 c 0
 487 685 461 608 460 608 c 0
 455 609 489 690 450 682 c 0
 417 675 384 632 363 608 c 0
 303 540 251 461 209 381 c 0
 188 340 169 297 151 255 c 0
 140 229 108 165 131 139 c 0
 158 108 224 167 240 181 c 1
 237 179 225 167 221 169 c 1x6c
 221 169 268 216 271 220 c 2
 324 278 l 2
 362 321 397 366 432 411 c 0
 446 429 462 447 473 466 c 0
 477 472 478 481 479 483 c 0
 500 526 573 473 576 438 c 0xd0
137 434 m 0
 105 379 80 320 68 259 c 1
 78 303 100 347 118 387 c 0
 139 434 169 480 197 523 c 0
 209 540 221 558 234 575 c 0
 240 583 248 601 257 609 c 1
 234 590 215 556 199 532 c 0
 177 501 157 467 137 434 c 0
522 351 m 2
 532 376 l 1
 492 291 455 203 425 114 c 1
 437 150 457 185 472 221 c 0
 490 263 506 307 522 351 c 2
393 40 m 0
 398 47 401 56 405 63 c 1
 401 59 397 55 395 51 c 2
 385 28 l 1
 387 32 390 36 393 40 c 0
384 25 m 1
 384 26 384 27 385 28 c 1
 384 25 l 1
313 551 m 1
 313 550 312 549 311 549 c 1
 312 549 313 550 313 551 c 1
EndSplineSet
Validated: 37
EndChar

StartChar: H
Encoding: 72 72 34
Width: 528
Flags: MW
HStem: 304 47 342 20G 735 10
VStem: 0 632
LayerCount: 2
Fore
SplineSet
627 679 m 0x70
 640 651 623 639 614 619 c 0
 610 608 609 596 603 583 c 2
 579 537 l 1
 531 442 l 2
 517 414 501 388 494 359 c 1
 514 359 538 355 558 357 c 0
 562 358 566 356 570 357 c 2
 570 357 572 363 575 362 c 0
 581 360 587 359 585 350 c 0
 582 340 563 337 557 336 c 0
 541 332 524 334 509 330 c 0
 501 328 495 326 484 321 c 0x70
 467 312 455 277 447 259 c 2
 414 179 l 2
 400 149 394 121 383 90 c 0
 359 27 333 -36 311 -100 c 0
 299 -134 287 -174 243 -147 c 0
 224 -135 215 -116 219 -95 c 0
 226 -60 240 -24 251 10 c 0
 265 52 281 92 298 132 c 0
 322 188 339 248 364 304 c 1
 346 301 331 293 311 292 c 0
 290 290 269 287 248 284 c 0
 228 282 190 279 178 265 c 0
 169 254 164 229 159 215 c 2
 152 187 l 2
 146 156 133 126 124 96 c 0
 113 62 102 28 93 -6 c 0
 87 -26 86 -72 62 -77 c 0
 37 -82 4 -46 1 -24 c 0
 -3 -3 7 20 12 39 c 0
 33 116 61 190 84 266 c 1
 70 270 40 284 49 304 c 0
 53 313 69 316 77 318 c 0
 95 323 101 318 109 334 c 0
 115 346 120 359 125 371 c 0
 135 398 146 424 156 450 c 0
 191 536 224 622 267 704 c 0
 271 710 275 717 278 724 c 1
 278 722 282 736 280 735 c 1
 290 749 310 746 325 740 c 0
 345 733 368 716 360 693 c 0
 355 681 343 670 336 658 c 0
 330 645 328 627 320 611 c 0
 311 591 302 570 292 550 c 0
 274 516 261 480 245 445 c 0
 235 424 235 404 226 383 c 0
 220 367 214 351 206 336 c 1
 233 336 257 345 284 348 c 2
 330 351 l 2
 344 352 367 349 380 354 c 0
 398 362 414 421 423 442 c 2xb0
 464 538 l 1
 537 702 l 2
 544 718 541 731 566 727 c 0
 591 724 616 702 627 679 c 0x70
191 365 m 2
 260 522 l 1
 240 479 212 438 195 393 c 0
 178 348 164 305 149 260 c 1
 162 295 176 330 191 365 c 2
310 -38 m 0
 319 -22 323 -6 328 11 c 1
 322 0 311 -10 308 -22 c 0
 304 -33 304 -44 302 -55 c 1
 304 -49 307 -44 310 -38 c 0
264 531 m 1
 263 529 262 528 262 526 c 1
 264 531 l 1
EndSplineSet
Validated: 33
EndChar

StartChar: I
Encoding: 73 73 35
Width: 448
Flags: MW
HStem: -13 26<352 366.5> 715 15
VStem: 143 79 359 20
LayerCount: 2
Fore
SplineSet
644 696 m 2
 647 677 606 674 595 673 c 0
 579 672 575 664 556 660 c 0
 538 656 520 652 502 649 c 0
 498 648 485 649 482 647 c 0
 475 641 482 639 481 633 c 0
 475 611 460 588 450 568 c 0
 431 532 414 496 396 459 c 0
 379 426 370 391 353 357 c 0
 334 319 318 280 302 241 c 0
 289 211 283 180 271 149 c 0
 252 103 236 55 222 7 c 1
 269 12 317 16 364 13 c 0
 369 13 378 11 383 12 c 0
 387 12 386 18 390 17 c 0
 395 16 398 13 398 7 c 0
 398 -9 363 -13 352 -13 c 0
 344 -14 339 -14 334 -16 c 0
 329 -19 323 -24 315 -26 c 2
 263 -37 l 2
 235 -43 213 -50 184 -54 c 0
 168 -56 152 -60 136 -62 c 0
 126 -64 119 -69 110 -72 c 0
 85 -80 41 -89 17 -75 c 0
 -1 -64 -8 -39 13 -28 c 0
 24 -22 41 -23 53 -20 c 0
 86 -14 119 -12 150 -2 c 1
 130 42 155 90 170 132 c 0
 179 158 190 183 202 208 c 0
 213 233 219 259 228 284 c 0
 249 342 277 398 302 454 c 0
 328 511 352 568 379 624 c 1
 369 622 363 618 353 614 c 0
 339 608 314 606 298 605 c 0
 276 604 235 617 247 647 c 0
 250 654 253 656 260 659 c 0
 272 665 290 665 303 667 c 0
 322 671 340 676 359 677 c 0
 373 678 383 681 397 685 c 0
 411 689 410 689 418 699 c 0
 422 703 426 710 428 715 c 2
 428 715 425 718 428 722 c 0
 433 728 438 729 446 730 c 0
 463 732 483 722 495 711 c 0
 503 704 503 700 514 698 c 0
 519 697 529 699 535 699 c 0
 560 701 585 702 610 700 c 0
 614 700 625 698 629 699 c 0
 633 699 631 705 635 704 c 0
 640 703 643 702 644 697 c 2
 644 696 l 2
390 508 m 0
 399 524 404 540 410 557 c 1
 403 546 390 535 386 524 c 0
 381 511 382 498 379 485 c 1
 382 493 386 500 390 508 c 0
349 452 m 2
 354 461 355 471 359 480 c 1
 355 475 351 470 349 466 c 0
 343 454 340 442 335 430 c 1
 349 452 l 2
EndSplineSet
Validated: 33
EndChar

StartChar: J
Encoding: 74 74 36
Width: 465
Flags: MW
HStem: -146 68
VStem: 0 622
LayerCount: 2
Fore
SplineSet
622 697 m 0
 623 687 617 679 612 672 c 0
 594 649 576 628 558 606 c 0
 546 590 545 574 535 556 c 2
 493 471 l 2
 469 419 448 367 427 315 c 0
 416 288 401 261 394 233 c 0
 387 208 381 183 370 157 c 0
 332 64 297 -32 235 -112 c 0
 221 -131 206 -146 180 -146 c 0
 155 -146 128 -138 106 -126 c 0
 57 -99 31 -46 18 6 c 0
 4 61 0 118 3 174 c 0
 4 187 -7 265 7 270 c 0
 23 275 27 244 29 234 c 0
 36 177 42 122 57 67 c 0
 65 39 74 10 85 -17 c 0
 92 -36 102 -64 122 -74 c 0
 161 -95 192 -19 204 6 c 0
 257 112 296 225 337 336 c 0
 376 442 414 554 475 651 c 1
 447 640 420 636 392 628 c 0
 367 621 343 608 318 601 c 0
 286 592 215 579 204 542 c 0
 199 523 215 501 226 487 c 0
 232 479 263 456 254 445 c 0
 253 443 236 437 235 437 c 0
 217 436 195 453 182 465 c 2
 161 484 l 2
 152 491 144 495 138 507 c 0
 133 516 129 524 129 534 c 0
 131 569 162 578 187 591 c 0
 224 610 270 619 313 631 c 0
 326 635 333 641 345 646 c 0
 365 655 388 659 408 665 c 0
 436 674 464 682 492 690 c 0
 504 694 500 690 510 699 c 0
 516 704 520 713 523 716 c 0
 543 739 617 736 622 697 c 0
415 362 m 0
 431 396 439 441 454 476 c 1
 442 452 430 429 421 404 c 2
 358 239 l 1
 375 283 396 319 415 362 c 0
EndSplineSet
Validated: 33
EndChar

StartChar: K
Encoding: 75 75 37
Width: 573
Flags: MW
HStem: -172 94 761 17
VStem: 27 45
LayerCount: 2
Fore
SplineSet
637 -34 m 0
 646 -23 655 -8 659 -35 c 0
 660 -47 657 -55 651 -65 c 0
 623 -109 583 -162 527 -172 c 0
 505 -176 485 -171 467 -161 c 0
 463 -158 410 -119 410 -115 c 1
 411 -115 412 -115 414 -116 c 1
 412 -114 410 -113 409 -113 c 1
 412 -116 399 -108 397 -107 c 0
 389 -101 383 -94 378 -87 c 0
 367 -74 356 -63 344 -52 c 0
 339 -48 292 7 299 14 c 0
 300 15 303 9 305 11 c 2
 292 27 l 1
 292 25 l 2
 290 22 231 116 225 125 c 0
 215 141 201 159 196 178 c 0
 195 181 196 184 199 185 c 0
 198 189 195 192 191 194 c 2
 173 229 l 1
 164 200 163 171 153 142 c 0
 140 99 130 57 120 15 c 2
 108 -37 l 2
 105 -50 106 -71 99 -83 c 0
 85 -109 53 -71 43 -56 c 0
 13 -16 32 31 43 74 c 0
 52 112 63 149 76 186 c 0
 87 215 91 244 98 274 c 0
 120 350 148 425 172 501 c 0
 195 568 217 636 245 703 c 0
 249 716 255 730 262 744 c 2
 269 761 l 2
 268 762 267 764 267 765 c 0
 280 788 318 777 335 764 c 0
 370 740 340 718 328 690 c 0
 324 680 326 673 323 661 c 0
 317 640 306 619 299 599 c 0
 288 571 278 543 268 514 c 2
 250 469 l 2
 243 453 240 439 238 422 c 0
 232 391 214 362 206 331 c 1
 255 369 300 407 343 451 c 0
 386 498 433 538 474 588 c 0
 512 636 562 692 579 751 c 0
 582 761 579 773 594 770 c 0
 615 765 632 725 636 706 c 1
 636 704 l 1
 643 661 621 629 593 596 c 0
 573 573 555 550 533 527 c 0
 522 516 518 505 509 493 c 0
 500 481 486 470 475 460 c 0
 452 440 431 417 408 397 c 0
 392 384 381 368 366 354 c 0
 323 315 271 279 218 253 c 1
 240 217 262 182 289 149 c 1
 281 161 265 183 255 200 c 1
 287 158 359 72 367 62 c 0
 393 38 419 15 444 -10 c 0
 461 -27 482 -50 500 -62 c 1
 495 -56 l 2
 495 -54 532 -71 536 -73 c 0
 546 -76 556 -79 566 -78 c 0
 592 -75 622 -53 637 -34 c 0
135 296 m 2
 140 318 l 1
 117 237 91 155 72 74 c 1
 81 105 94 136 104 168 c 0
 116 210 124 252 134 293 c 0
 134 294 134 295 135 296 c 2
322 109 m 1
 315 116 l 1
 322 106 331 97 339 88 c 1
 322 109 l 1
244 213 m 1
 241 218 239 221 239 222 c 1
 244 213 l 1
249 206 m 1
 245 211 l 1
 249 206 l 1
EndSplineSet
Validated: 41
EndChar

StartChar: M
Encoding: 77 77 38
Width: 833
Flags: MW
HStem: -243 65 482 55 605 54
VStem: 239 69<653 653> 524 63 552 70 571 8 728 7 738 82
LayerCount: 2
Fore
SplineSet
743 -169 m 0xc480
 753 -166 792 -142 795 -158 c 0
 799 -174 768 -201 758 -210 c 0
 741 -224 721 -234 700 -239 c 0
 656 -251 623 -235 595 -199 c 0
 537 -124 547 -35 571 49 c 1
 571 49 572 69 576 72 c 1
 576 71 575 62 574 58 c 1x84
 579 76 l 1
 579 75 578 75 577 75 c 0
 574 87 586 111 590 122 c 2
 612 172 l 2
 625 201 636 229 647 259 c 0x82
 658 292 676 323 691 354 c 0
 694 359 715 407 719 406 c 1
 719 406 715 394 716 393 c 1
 723 410 729 427 735 445 c 1
 728 431 l 1
 727 444 750 477 729 482 c 0
 712 486 687 460 676 450 c 0
 631 409 596 361 561 311 c 0
 544 287 529 263 508 242 c 0
 495 230 487 208 476 192 c 0
 458 163 442 134 425 106 c 0
 413 85 396 65 388 42 c 0
 378 14 367 -11 336 18 c 0
 306 47 306 85 314 123 c 0
 336 236 396 346 454 444 c 0
 479 486 501 533 518 579 c 0
 521 587 529 602 521 605 c 0
 511 609 487 590 480 585 c 0
 434 551 399 505 364 460 c 0
 329 414 297 366 265 317 c 0
 231 266 199 214 167 162 c 0
 152 137 135 113 125 86 c 0
 114 61 105 35 95 9 c 0
 89 -7 84 -32 74 -46 c 0
 61 -64 35 -63 18 -49 c 0
 3 -37 -1 -18 0 1 c 0
 3 56 27 115 48 165 c 0
 69 215 91 263 110 314 c 0
 148 418 204 518 233 626 c 1
 233 616 l 1
 239 653 l 2
 243 677 242 701 212 694 c 0
 190 688 172 672 157 655 c 0
 121 617 94 568 76 519 c 0
 72 509 69 493 68 487 c 0
 67 479 70 472 63 465 c 0
 51 455 38 463 30 474 c 0
 14 498 16 536 23 563 c 0
 30 587 47 604 57 626 c 0
 60 633 59 641 65 649 c 2
 75 663 l 2
 86 675 97 686 109 697 c 0
 132 716 157 730 186 739 c 0
 218 749 253 751 278 724 c 0
 294 707 303 676 308 654 c 0
 315 623 305 584 296 555 c 0
 287 526 278 496 268 467 c 0
 259 439 248 412 238 384 c 0
 230 362 226 341 219 319 c 1
 271 400 327 484 394 555 c 0
 427 590 506 706 561 639 c 0
 586 608 595 561 580 524 c 0
 566 490 541 460 526 427 c 0x79
 487 338 441 251 413 157 c 1
 449 219 486 281 528 340 c 1
 518 326 506 312 497 297 c 1
 515 325 531 349 535 354 c 0
 570 402 607 449 652 489 c 0
 676 511 708 537 743 537 c 0
 784 538 810 501 817 464 c 0
 833 377 774 296 739 223 c 1
 741 227 744 230 746 230 c 0
 747 230 721 165 718 159 c 0
 706 131 695 103 683 76 c 0
 662 24 641 -29 629 -83 c 0
 623 -109 612 -153 641 -169 c 0
 669 -184 715 -179 743 -169 c 0xc480
610 131 m 0
 594 98 586 65 576 32 c 1
 586 62 599 92 612 121 c 0
 628 155 648 195 655 231 c 0
 658 237 658 240 655 241 c 0
 645 229 641 202 635 187 c 0
 627 168 619 149 610 131 c 0
167 430 m 0
 149 389 133 348 117 306 c 1
 135 351 154 395 175 438 c 0
 197 483 212 530 224 577 c 1
 219 561 212 545 206 531 c 0
 192 498 181 463 167 430 c 0
487 282 m 1
 473 258 436 196 433 197 c 1
 433 197 461 240 487 282 c 1
639 473 m 1
 626 461 614 448 602 434 c 1
 639 473 l 1
568 0 m 0
 570 4 570 6 568 7 c 0
 565 3 565 1 568 0 c 0
592 422 m 1
 595 425 l 1
 596 427 l 1
 597 428 l 1
 597 427 596 427 596 427 c 1
 597 428 l 1
 599 430 l 1
 600 431 l 1
 602 434 l 1
 600 432 l 2
 599 431 596 428 594 424 c 1
 594 425 l 1
 592 422 l 1
489 285 m 1
 493 290 l 1
 493 291 l 1
 489 285 l 1
487 282 m 1
 488 283 489 284 489 285 c 1
 487 282 l 1
599 431 m 1
 600 431 600 432 600 432 c 1
 599 431 l 1
EndSplineSet
Validated: 37
EndChar

StartChar: L
Encoding: 76 76 39
Width: 499
Flags: MW
HStem: -84 15 57 76 465 23 710 53
VStem: 138 9 460 7 472 74
LayerCount: 2
Fore
SplineSet
475 132 m 0
 510 128 470 100 455 93 c 0
 396 63 328 61 266 39 c 0
 237 29 209 15 182 0 c 0
 166 -8 153 -14 142 -29 c 0
 140 -32 120 -54 121 -51 c 1
 115 -57 107 -64 100 -69 c 1
 105 -67 120 -57 121 -59 c 0
 123 -72 92 -82 82 -84 c 0
 60 -87 33 -81 26 -57 c 0
 16 -24 43 13 64 34 c 0
 74 44 85 52 98 57 c 0
 113 64 132 64 138 80 c 1
 138 79 139 103 144 106 c 0
 145 106 140 85 140 85 c 1
 143 93 144 101 147 110 c 1
 146 109 145 109 144 110 c 0
 139 123 155 159 158 172 c 0
 163 191 169 209 173 228 c 0
 182 262 187 294 191 329 c 0
 195 367 206 404 216 440 c 0
 218 445 235 509 240 509 c 0
 241 509 237 495 238 494 c 1
 244 514 249 534 255 553 c 1
 254 552 247 537 247 539 c 0
 245 550 256 568 260 579 c 2
 274 621 l 2
 284 649 295 677 312 703 c 0
 334 735 365 761 405 763 c 0
 433 765 462 755 485 742 c 0
 527 719 543 688 546 645 c 0
 549 592 513 517 471 485 c 0
 455 473 433 463 413 465 c 0
 400 466 384 473 392 488 c 1
 392 488 394 489 395 491 c 1
 394 491 l 1
 394 492 429 565 433 564 c 0
 434 564 421 532 421 530 c 1
 436 561 449 594 459 627 c 0
 464 644 479 685 467 703 c 0
 454 722 425 700 413 689 c 0xfa
 385 661 368 621 353 585 c 1
 370 624 396 688 440 704 c 0
 481 719 464 662 460 648 c 1
 463 659 471 700 455 705 c 0
 436 710 414 683 405 671 c 0
 364 618 341 548 320 485 c 0
 277 355 252 220 202 93 c 1
 268 113 337 130 406 134 c 0
 429 135 453 134 475 132 c 0
264 567 m 0
 253 532 242 498 233 463 c 1
 241 489 250 513 260 537 c 0
 291 605 319 715 399 735 c 1
 367 728 343 710 322 681 c 0
 296 646 278 608 264 567 c 0
317 489 m 1
 317 490 l 1
 309 466 301 443 294 419 c 1
 317 488 l 1
 317 490 l 1
 317 489 l 1
99 -70 m 1
 100 -69 l 1
 99 -69 99 -70 99 -70 c 1
EndSplineSet
Validated: 37
EndChar

StartChar: N
Encoding: 78 78 40
Width: 574
Flags: MW
HStem: -244 67 596 78 696 50
VStem: 0 14 19 47<486 541> 242 66 292 75 556 23<596 596> 635 7
LayerCount: 2
Fore
SplineSet
186 238 m 1xb480
 214 281 242 325 272 368 c 1
 246 332 l 1
 210 283 l 1
 276 383 346 481 426 570 c 0
 472 620 589 743 634 622 c 1
 634 620 l 2
 635 617 635 616 636 615 c 0
 666 518 588 415 546 333 c 1
 549 337 551 340 553 340 c 1
 552 340 525 275 522 268 c 0
 511 244 500 218 488 193 c 0
 461 134 434 75 410 14 c 0
 392 -31 367 -85 367 -136 c 0
 368 -181 419 -180 453 -177 c 0
 468 -175 481 -170 495 -166 c 0
 504 -163 523 -151 532 -152 c 0
 553 -154 518 -193 513 -199 c 0
 484 -228 434 -254 392 -240 c 0
 349 -226 321 -176 307 -136 c 0
 289 -87 288 -34 299 17 c 0
 310 62 332 102 350 144 c 0
 350 145 353 163 358 168 c 1
 357 165 353 150 353 150 c 1
 363 175 l 1
 362 174 362 174 361 175 c 0
 360 188 375 212 380 224 c 2
 407 278 l 2
 424 312 441 345 455 380 c 0
 469 415 486 448 503 482 c 0
 508 490 541 567 547 567 c 1
 547 567 542 552 543 551 c 1
 549 568 564 596 559 614 c 1
 559 613 558 596 556 596 c 0
 555 597 558 615 550 618 c 0
 545 619 537 613 534 611 c 0
 508 597 488 572 469 550 c 0
 424 500 381 447 342 392 c 0
 322 364 302 335 281 308 c 0
 274 298 265 292 258 286 c 0
 249 277 245 262 238 252 c 0
 202 192 162 135 127 74 c 0
 112 50 102 27 91 0 c 0
 85 -15 83 -39 70 -50 c 0
 39 -80 2 -41 0 -8 c 0
 -2 36 19 86 34 127 c 0
 52 179 81 227 98 279 c 0xd380
 136 397 202 506 233 626 c 0
 237 641 251 681 236 693 c 0
 224 702 201 690 191 684 c 0
 151 660 124 615 103 576 c 0
 92 557 83 537 76 517 c 0
 72 508 67 497 66 487 c 0
 66 485 71 478 67 470 c 0
 61 460 51 458 40 464 c 0
 20 475 18 508 19 528 c 0
 19 554 27 578 40 601 c 0
 44 608 50 613 54 621 c 0
 58 630 58 639 65 649 c 0x2c
 94 691 138 724 186 739 c 0
 215 748 246 751 271 731 c 0
 293 713 296 688 303 663 c 0
 318 614 297 566 284 517 c 0
 270 466 246 418 232 367 c 0
 222 330 209 294 194 258 c 1
 199 266 l 1
 193 257 189 248 186 238 c 1xb480
518 458 m 1x5180
 442 303 l 1
 464 346 491 385 514 428 c 0
 542 480 566 537 579 596 c 1
 578 594 578 593 579 598 c 2
 579 600 l 1
 574 577 559 544 557 539 c 2
 518 458 l 1x5180
114 283 m 1
 118 295 l 1
 101 250 76 204 56 159 c 0
 43 128 32 97 23 65 c 0
 19 51 16 36 14 21 c 0
 13 14 16 -1 15 -7 c 1
 19 3 17 17 19 29 c 0
 21 42 25 56 29 69 c 0
 38 98 48 127 61 155 c 0
 80 196 101 239 114 282 c 1
 114 283 l 1
125 310 m 0
 130 315 130 318 127 319 c 0
 123 314 123 311 125 310 c 0
426 565 m 1
 414 553 403 540 392 526 c 1
 403 539 414 552 426 565 c 1
206 276 m 1
 204 274 203 272 202 270 c 1
 206 276 l 1
371 500 m 2
 370 499 370 499 370 498 c 1
 374 504 l 1
 371 500 l 2
579 600 m 1
 579 601 580 603 580 604 c 1
 580 603 579 602 579 600 c 1
386 518 m 1
 392 526 l 1
 386 518 l 1
636 615 m 1
 635 618 l 1
 635 617 635 616 636 615 c 1
125 310 m 1
 125 311 126 311 126 311 c 1
 125 310 l 1
371 500 m 1
 371 499 370 499 370 499 c 1
 371 499 371 500 371 500 c 1
202 270 m 1
 199 266 l 1
 202 270 l 1
EndSplineSet
Validated: 37
EndChar

StartChar: O
Encoding: 79 79 41
Width: 539
Flags: MW
HStem: -140 73 685 66
VStem: 1 15 16 76 455 79 467 84
LayerCount: 2
Fore
SplineSet
453 446 m 0xe8
 461 487 513 437 522 420 c 0
 545 375 530 321 519 276 c 0
 504 213 476 154 445 98 c 0
 393 3 309 -128 191 -140 c 0
 119 -147 63 -89 31 -31 c 0
 30 -29 17 -13 16 -5 c 1
 17 -10 24 -19 26 -23 c 1x98
 21 -13 18 -4 15 4 c 1
 15 2 l 1
 15 2 1 46 1 51 c 0
 -1 71 1 91 3 111 c 0
 9 158 24 202 35 247 c 0
 46 293 65 335 86 376 c 0
 95 394 104 412 115 429 c 0
 117 434 139 474 144 473 c 1
 138 462 l 1
 166 507 l 1
 164 505 l 1
 168 511 173 522 176 526 c 2
 197 556 l 2
 212 576 226 596 241 615 c 0
 275 658 314 698 361 725 c 0
 392 743 429 760 464 745 c 0
 501 728 547 685 551 643 c 0
 553 620 538 587 526 569 c 0
 497 524 456 483 414 451 c 0
 393 434 364 409 335 414 c 0
 323 415 294 427 305 443 c 0
 305 444 308 445 312 447 c 1
 311 447 l 1
 313 448 350 473 352 475 c 0
 355 478 388 509 391 508 c 1
 391 508 363 479 361 476 c 1
 395 505 423 541 445 581 c 0
 457 604 476 639 470 667 c 0
 464 696 433 685 414 674 c 0x64
 373 649 340 606 313 568 c 1
 339 604 371 645 410 669 c 1
 389 654 368 630 356 617 c 0
 284 535 230 434 185 335 c 0
 142 240 100 130 92 26 c 0
 89 -12 93 -63 141 -67 c 0
 159 -68 178 -63 194 -57 c 0
 204 -53 213 -49 221 -44 c 2
 221 -44 242 -32 237 -37 c 1
 247 -30 256 -22 265 -14 c 1
 263 -15 240 -31 240 -30 c 0
 241 -21 267 -3 273 3 c 0
 284 14 295 26 305 39 c 0
 327 68 346 99 363 131 c 0
 398 195 425 264 442 335 c 0
 449 364 456 395 455 426 c 0
 455 432 452 440 453 446 c 0xe8
57 249 m 0
 81 319 118 386 156 449 c 0
 193 509 230 571 277 624 c 0
 289 637 303 653 318 667 c 1
 304 655 292 641 280 629 c 0
 231 574 188 514 148 452 c 0
 108 389 74 318 51 247 c 0
 36 202 22 154 16 106 c 1
 23 154 41 204 57 249 c 0
450 682 m 0x44
 445 682 441 682 437 681 c 1
 462 689 469 674 467 654 c 1
 468 668 464 680 450 682 c 0x44
456 613 m 1
 460 624 465 638 467 651 c 1
 466 637 461 624 456 613 c 1
244 458 m 1
 243 457 242 456 242 455 c 1
 242 455 242 456 243 457 c 1
 221 419 l 1
 241 452 l 1
 245 459 l 1
 244 458 l 1
 243 457 l 1
 244 458 l 1
453 604 m 1
 451 598 449 595 448 594 c 1
 453 604 l 1
246 461 m 1
 251 471 l 1
 244 459 l 1
 245 460 l 1
 246 461 l 1
422 676 m 1
 420 674 419 674 418 674 c 1
 422 676 l 1
218 412 m 1
 215 408 l 1
 218 412 l 1
EndSplineSet
Validated: 37
EndChar

StartChar: P
Encoding: 80 80 42
Width: 505
Flags: MW
HStem: 341 20G
VStem: 0 11 21 70 330 21 532 98
LayerCount: 2
Fore
SplineSet
533 754 m 0
 585 769 629 712 633 664 c 1
 632 667 633 658 633 660 c 1
 633 654 634 641 632 640 c 1
 633 641 631 647 630 651 c 1
 631 633 629 617 626 600 c 1
 628 605 631 612 631 612 c 1
 633 603 626 590 624 581 c 0
 617 557 609 533 599 511 c 0
 581 467 555 430 525 394 c 0
 495 357 464 324 426 295 c 0
 412 284 398 280 384 272 c 0
 371 265 361 253 347 245 c 0
 311 223 266 195 224 188 c 0
 217 187 209 187 203 188 c 0
 197 188 190 189 184 190 c 0
 176 195 171 192 170 182 c 1
 154 164 146 126 138 103 c 0
 118 50 98 -7 91 -63 c 1
 90 -62 89 -61 89 -59 c 1xa8
 71 -78 17 -88 8 -55 c 0
 7 -53 7 -51 7 -50 c 1
 6 -51 6 -52 6 -54 c 1
 -9 -35 7 8 11 27 c 2
 32 129 l 2
 39 159 47 190 60 218 c 0
 64 228 70 237 74 247 c 0
 75 248 80 275 82 276 c 0
 83 275 83 273 83 272 c 1
 84 275 85 277 85 280 c 1
 81 271 86 296 86 297 c 0
 90 309 95 321 100 333 c 0
 108 352 113 369 117 388 c 0
 119 396 149 479 159 477 c 0
 160 477 156 470 157 469 c 1
 161 478 165 487 168 496 c 1
 167 494 166 492 164 491 c 0
 162 492 217 611 222 623 c 0
 231 645 240 669 253 689 c 0
 259 697 266 700 270 706 c 0
 273 710 274 718 277 723 c 0
 282 733 293 757 306 762 c 0
 327 771 342 743 348 727 c 0
 354 711 351 705 345 694 c 1
 348 696 l 2
 351 695 331 656 327 657 c 0
 326 657 328 662 330 666 c 1
 301 613 276 558 253 502 c 1
 256 508 305 618 308 617 c 1
 306 618 251 488 246 476 c 0
 227 430 210 383 197 335 c 1
 220 381 244 425 273 468 c 0
 299 506 330 539 358 575 c 2
 358 575 367 594 372 595 c 1
 372 595 361 579 362 580 c 2
 376 598 l 1
 375 598 375 598 374 599 c 0
 376 613 399 633 408 643 c 0
 421 658 435 672 449 685 c 0
 471 707 502 745 533 754 c 0
532 632 m 2
 532 633 l 1
 537 729 438 600 421 580 c 0
 367 515 309 444 265 373 c 1
 266 376 268 377 270 377 c 1
 270 377 238 316 234 310 c 0
 220 284 207 258 194 232 c 1
 198 234 238 252 240 250 c 0
 240 249 220 239 212 234 c 1
 313 276 397 355 458 446 c 1
 438 417 415 390 391 364 c 0
 376 349 360 333 344 319 c 0
 336 313 318 303 310 295 c 1
 319 306 338 316 347 325 c 0
 359 335 371 346 382 357 c 0
 406 383 429 410 449 439 c 0
 488 494 527 562 532 631 c 1
 531 629 531 628 532 632 c 2
40 115 m 0
 35 97 31 72 27 52 c 1
 44 109 66 168 84 226 c 1
 71 187 50 158 40 115 c 0
20 -13 m 0
 22 -2 19 10 21 21 c 1
 17 5 14 -10 11 -27 c 1
 12 -22 19 -17 20 -13 c 0
240 469 m 1
 239 468 l 1
 219 417 l 1
 240 469 l 1
241 473 m 1
 240 471 240 471 240 470 c 1
 240 471 241 471 241 473 c 1
243 477 m 1
 243 478 l 1
 242 476 l 1
 243 477 l 1
256 359 m 1
 256 359 257 360 257 361 c 1
 257 360 256 360 256 359 c 1
EndSplineSet
Validated: 37
EndChar

StartChar: Q
Encoding: 81 81 43
Width: 557
Flags: MW
HStem: -98 67 591 71 692 11
VStem: 2 69 533 74
LayerCount: 2
Fore
SplineSet
404 99 m 1
 399 88 l 2
 395 78 388 69 381 61 c 0
 369 47 344 32 336 16 c 0
 329 0 364 -26 374 -37 c 0
 393 -58 407 -81 425 -103 c 0
 430 -110 453 -126 444 -134 c 0
 431 -147 409 -118 401 -112 c 0
 381 -99 361 -89 343 -72 c 0
 327 -57 300 -46 289 -27 c 1
 241 -65 171 -121 108 -89 c 0
 77 -73 53 -43 37 -14 c 0
 34 -8 13 24 18 29 c 1
 18 29 26 13 28 13 c 1
 18 29 11 46 6 65 c 1
 6 64 l 1
 -2 61 0 185 2 198 c 0
 17 291 58 385 103 467 c 0
 124 506 148 544 179 575 c 0
 211 608 234 652 266 686 c 0
 291 714 327 753 368 754 c 0
 388 755 405 744 419 731 c 0
 423 727 444 708 436 703 c 1
 441 705 436 695 434 694 c 0
 431 691 427 692 424 692 c 0
 422 692 421 692 419 691 c 1
 427 692 413 688 410 687 c 0
 403 684 396 677 390 673 c 2
 349 640 l 1
 372 662 391 682 421 696 c 1
 398 688 379 671 360 656 c 1
 372 667 l 1xf8
 261 575 182 453 126 321 c 1
 176 423 240 521 315 607 c 1
 241 513 184 407 137 298 c 1
 157 345 181 391 207 436 c 0
 219 459 232 481 246 503 c 0
 254 517 273 535 278 550 c 1
 273 534 260 521 251 507 c 0
 240 491 230 472 219 455 c 0
 200 421 182 386 165 350 c 0
 133 283 106 214 87 141 c 0
 76 98 59 37 84 -4 c 0
 119 -62 194 -13 230 16 c 1
 217 29 201 43 194 60 c 0
 186 77 193 101 215 104 c 0
 233 106 249 82 262 71 c 0
 277 58 277 60 291 74 c 0
 329 113 359 162 389 207 c 0
 412 244 437 281 456 320 c 1
 452 314 440 300 441 298 c 1
 437 313 465 352 471 365 c 0
 486 400 500 435 512 472 c 0
 521 500 532 532 533 562 c 0
 534 593 515 596 489 587 c 0
 437 568 394 528 359 487 c 0
 349 475 336 446 321 442 c 0
 300 437 303 463 305 477 c 0
 315 530 357 565 395 600 c 0
 428 630 475 675 523 659 c 0
 565 644 590 598 601 558 c 0
 616 505 600 448 581 398 c 0
 559 339 530 284 496 231 c 0
 477 202 457 174 436 145 c 0
 431 137 416 108 406 100 c 1
 409 103 411 110 414 114 c 1
 404 99 l 1
EndSplineSet
Validated: 37
EndChar

StartChar: R
Encoding: 82 82 44
Width: 539
Flags: MW
HStem: -237 90 341 20G
VStem: 0 91 332 19 362 9 532 98
LayerCount: 2
Fore
SplineSet
533 754 m 0
 585 769 629 712 633 664 c 1
 632 666 633 659 633 659 c 2
 633 654 634 641 632 640 c 1
 633 641 631 647 630 651 c 1
 631 633 629 617 626 600 c 1
 628 605 631 612 631 612 c 1
 635 592 614 548 608 533 c 0
 594 494 574 458 550 425 c 0
 529 397 507 369 482 345 c 0
 460 322 428 285 396 277 c 1
 493 361 571 463 594 593 c 1
 577 499 517 417 453 350 c 0
 421 315 393 275 356 250 c 0
 315 224 255 185 205 188 c 1
 221 158 237 129 255 101 c 1
 223 158 l 1
 251 112 315 21 324 11 c 2
 393 -68 l 2
 409 -86 427 -111 444 -125 c 1
 442 -123 441 -120 440 -118 c 0
 440 -117 475 -138 479 -140 c 0
 489 -144 499 -148 509 -147 c 0
 535 -147 567 -127 584 -109 c 0
 593 -99 603 -86 605 -113 c 0
 606 -124 602 -132 594 -142 c 0
 562 -183 518 -232 461 -237 c 0
 440 -239 420 -232 402 -221 c 0
 398 -218 350 -173 351 -170 c 0
 352 -170 353 -171 353 -171 c 1
 352 -169 350 -168 349 -167 c 1
 351 -171 339 -162 338 -161 c 0
 331 -155 326 -147 320 -139 c 0
 311 -126 301 -114 290 -101 c 0
 285 -97 243 -38 251 -32 c 0
 253 -31 255 -36 256 -36 c 1
 252 -29 248 -23 245 -16 c 1
 245 -17 246 -19 245 -21 c 0
 243 -22 198 66 194 74 c 0
 185 92 172 109 167 129 c 0
 163 142 166 147 160 158 c 1
 130 88 101 12 91 -63 c 1
 90 -62 89 -61 89 -59 c 1
 67 -82 19 -84 5 -53 c 0
 -10 -20 12 33 19 66 c 0
 29 110 36 153 51 195 c 0
 57 211 65 226 72 241 c 0
 74 245 80 275 82 276 c 0
 83 275 83 273 83 272 c 1
 84 275 85 277 85 280 c 1
 81 271 86 296 86 297 c 0
 90 309 95 321 100 333 c 0
 108 352 113 369 117 388 c 0
 119 396 149 479 158 477 c 0
 160 477 156 470 157 469 c 1
 161 478 165 487 168 496 c 1
 167 494 166 492 164 491 c 0
 162 492 217 611 222 623 c 0
 231 645 240 669 253 689 c 0
 259 697 266 700 270 706 c 0
 273 710 274 718 277 723 c 0
 282 733 293 757 306 762 c 0
 327 771 342 743 348 727 c 0
 354 711 351 705 345 694 c 1
 348 696 l 2
 351 695 331 656 327 657 c 0
 326 657 329 665 332 671 c 1xb4
 244 526 188 385 148 250 c 1
 168 316 196 380 229 441 c 1
 219 418 l 1
 243 469 l 1
 226 425 209 381 197 335 c 1
 220 381 244 425 273 468 c 0
 299 506 330 539 358 575 c 2
 358 575 366 593 371 595 c 1
 370 594 361 579 362 580 c 2
 376 598 l 1
 375 598 375 598 374 599 c 0
 376 613 399 633 408 643 c 0
 421 658 435 672 449 685 c 0x48
 471 707 502 745 533 754 c 0
532 632 m 2
 532 633 l 1
 537 729 438 600 421 580 c 0
 367 515 309 444 265 373 c 1
 266 376 268 377 270 377 c 1
 270 377 238 316 234 310 c 0
 220 284 207 258 194 232 c 1
 198 234 238 252 240 250 c 0
 240 249 220 239 212 234 c 1
 313 276 397 355 458 446 c 1
 438 417 415 390 391 364 c 0
 376 349 360 333 344 319 c 0
 336 313 318 303 310 295 c 1
 319 306 338 316 347 325 c 0
 359 335 371 346 382 357 c 0
 406 383 429 410 449 439 c 0
 488 494 527 562 532 631 c 1
 531 629 531 628 532 632 c 2
297 592 m 0
 292 580 286 569 280 558 c 1
 306 615 l 2
 308 619 299 596 297 592 c 0
211 183 m 1
 210 183 216 172 223 158 c 1
 215 172 209 182 211 183 c 1
282 61 m 1
 283 59 l 1
 283 60 l 2
 282 62 282 61 282 61 c 1
282 61 m 1
 281 61 281 62 280 63 c 1
 281 62 281 61 282 61 c 1
256 359 m 1
 256 359 257 360 257 361 c 1
 257 360 256 360 256 359 c 1
EndSplineSet
Validated: 37
EndChar

StartChar: S
Encoding: 83 83 45
Width: 499
Flags: MW
HStem: -115 56 484 96 728 58
VStem: 0 12 19 70 198 103 219 7 332 98 562 71
LayerCount: 2
Fore
SplineSet
600 738 m 0xb580
 617 724 622 706 630 687 c 0
 642 665 620 636 608 618 c 0
 590 591 569 566 546 542 c 0
 529 525 511 504 489 491 c 0
 469 479 440 482 464 507 c 0
 471 511 499 581 513 580 c 1
 511 578 503 561 498 552 c 1
 525 589 598 698 541 724 c 0
 518 734 484 724 461 716 c 0
 435 707 410 693 388 676 c 1
 419 699 455 715 494 722 c 0
 511 725 534 729 548 717 c 0
 563 702 554 686 552 671 c 1
 552 696 560 720 523 723 c 0
 492 724 460 713 433 700 c 0
 386 677 343 638 319 591 c 0
 266 486 345 374 386 280 c 1
 366 318 343 355 324 393 c 1
 338 362 343 333 360 303 c 0
 383 266 407 232 420 190 c 0
 447 100 419 27 350 -33 c 1
 370 -19 l 1
 371 -49 280 -87 259 -95 c 0
 199 -119 120 -124 60 -94 c 0
 -26 -50 -6 61 36 129 c 0
 46 145 120 243 142 204 c 0
 151 188 119 145 113 129 c 0xf580
 105 112 100 94 96 76 c 0
 89 44 83 6 97 -25 c 0
 113 -63 156 -63 191 -53 c 0
 239 -38 282 -3 308 40 c 0
 321 62 330 87 332 113 c 0
 332 123 331 132 329 142 c 0
 327 147 321 156 323 163 c 1
 323 159 327 152 329 147 c 1
 327 154 325 160 324 168 c 1
 324 167 320 175 319 175 c 0
 316 182 313 190 311 197 c 2
 293 242 l 2
 273 294 249 345 227 397 c 0
 211 435 200 477 198 518 c 0
 197 527 192 588 208 588 c 1
 207 588 204 572 205 572 c 0xad80
 209 590 216 609 226 628 c 1
 219 618 l 1
 224 653 266 690 290 712 c 0xb380
 325 744 369 768 415 780 c 0
 463 792 506 784 551 765 c 0
 569 758 586 750 600 738 c 0xb580
41 -72 m 1
 2 -23 19 84 60 143 c 1
 13 79 -11 -7 41 -72 c 1
299 510 m 1
 299 496 l 1
 299 500 300 505 299 510 c 1
EndSplineSet
Validated: 33
EndChar

StartChar: T
Encoding: 84 84 46
Width: 442
Flags: HMW
HStem: -108 78 701 36<713.5 714>
VStem: 0 818
LayerCount: 2
Fore
SplineSet
882 600 m 1048
155 -29 m 0
 168.076171875 -1.541015625 192.398412798 55.1952383951 205 93 c 0
 236 186 272 278 308 370 c 0
 343 462 376 555 420 644 c 1
 403 641 386 639 369 637 c 0
 356 635 347 630 334 627 c 0
 313 621 290 621 268 618 c 0
 243 615 218 612 193 619 c 0
 169 626 130 660 165 678 c 0
 176 684 193 686 203 687 c 0
 251 695 298 704 346 707 c 0
 366 709 383 711 402 715 c 0
 412 718 422 720 432 721 c 0
 441 722 458 720 466 725 c 0
 479 733 479 749 486 757 c 0
 499 772 529 770 546 765 c 0
 564 759 568 751 580 740 c 0
 586 734 577 736 586 733 c 0
 592 732 600 734 605 735 c 0
 617 735 629 736 641 737 c 0
 689 739 737 740 785 737 c 0
 790 736 796 735 801 735 c 0
 803 736 804 742 809 741 c 0
 814 740 817 737 818 732 c 0
 820 714 784 711 773 709 c 0
 755 705 731 707 714 701 c 0
 713 701 710 695 707 694 c 0
 703 692 698 691 694 690 c 0
 681 687 668 685 656 683 c 2
 584 671 l 2
 567 669 538 674 529 656 c 0
 527 652 528 646 527 641 c 0
 523 629 515 618 509 607 c 2
 471 531 l 2
 452 496 439 458 423 422 c 0
 414 401 402 380 396 358 c 0
 392 341 389.3647234 323.853874908 382 306 c 0
 349 226 310.966796875 146.639648438 280 65 c 0
 258 7 208 -107 145 -106 c 0
 127.972758528 -105.729726326 145 -50 155 -29 c 0
437 500 m 0
 461 546 479 598 505 644 c 1
 483 611 450 563 435 527 c 0
 417 486 374 369 354 318 c 1
 373 361 422 473 437 500 c 0
EndSplineSet
Validated: 524321
EndChar

StartChar: U
Encoding: 85 85 47
Width: 562
Flags: MW
HStem: -147 65 504 80 653 92
VStem: 0 98 319 18 326 12 339 63 604 10
LayerCount: 2
Fore
SplineSet
614 540 m 0xf9
 615 530 609 527 604 522 c 1
 605 523 606 523 607 523 c 0
 609 522 585 485 582 487 c 0
 580 487 591 504 590 504 c 0
 555 452 527 397 503 340 c 1
 515 365 551 441 558 446 c 1
 551 437 506 338 502 329 c 0
 485 289 469 247 457 205 c 0
 446 164 437 123 425 82 c 0
 415 47 401 7 397 -26 c 1
 398 -22 399 -18 402 -14 c 1
 401 -15 401 -62 402 -69 c 0
 404 -81 402 -83 412 -82 c 0
 429 -80 449 -52 459 -41 c 0
 466 -32 479 -8 490 -4 c 0xc3
 498 0 500 -1 504 -10 c 0
 510 -24 500 -51 495 -65 c 0
 489 -82 480 -95 470 -110 c 0
 455 -132 439 -148 410 -147 c 0
 383 -145 359 -133 343 -111 c 0
 317 -75 314 -26 319 16 c 0
 321 32 327 45 331 59 c 0
 332 64 332 94 335 95 c 0
 336 94 336 93 336 92 c 1
 337 94 337 96 337 99 c 1
 335 97 337 121 339 126 c 0
 342 139 346 152 350 165 c 0
 357 189 359 213 367 237 c 1
 339 192 311 146 280 104 c 0x88
 250 65 217 30 184 -6 c 2
 184 -6 173 -21 168 -23 c 1
 171 -21 180 -10 180 -10 c 1
 161 -28 l 1
 172 -20 156 -37 152 -39 c 0
 147 -44 140 -47 133 -48 c 0
 126 -49 118 -47 111 -45 c 0
 70 -32 32 4 11 41 c 0
 0 62 -1 83 0 106 c 0
 2 128 5 149 9 170 c 0
 11 176 20 220 24 220 c 1
 24 220 22 207 23 207 c 0
 27 225 31 243 36 260 c 1
 30 247 l 1
 28 262 42 288 46 302 c 0
 50 316 54 330 59 344 c 0
 70 380 83 415 99 449 c 0
 115 486 129 524 147 560 c 0
 156 577 163 597 176 612 c 0
 184 621 188 623 193 635 c 0
 207 665 224 700 245 727 c 0
 249 732 253 737 259 741 c 0
 288 756 323 725 335 700 c 0
 343 678 336 671 326 658 c 1
 329 660 332 662 332 661 c 0
 332 655 292 600 288 601 c 1
 288 601 297 616 302 624 c 1
 279 592 259 559 240 524 c 1
 243 528 246 532 248 533 c 1x34
 236 520 178 375 172 361 c 0
 149 305 129 247 115 187 c 1
 118 217 l 1
 117 211 l 1
 117 214 118 217 118 220 c 1
 112 195 l 1
 116 205 l 1
 110 154 90 101 98 48 c 0
 99 41 101 28 109 24 c 0
 133 13 199 100 210 114 c 0
 243 152 278 192 305 230 c 1
 303 228 294 214 290 215 c 1
 290 215 328 274 332 281 c 0
 348 303 363 326 378 349 c 2
 476 497 l 2
 492 521 512 562 534 577 c 0
 561 596 610 572 614 540 c 0xf9
353 65 m 0x82
 362 105 363 140 374 180 c 1x82
 361 145 350 110 344 72 c 0x88
 336 26 333 -26 342 -72 c 1
 334 -31 344 24 353 65 c 0x82
186 445 m 0x24
 170 405 154 365 142 324 c 0
 137 310 134 296 131 282 c 1
 146 335 167 386 190 439 c 0
 220 506 254 571 296 631 c 1
 254 573 214 512 186 445 c 0x24
163 348 m 1
 174 376 204 448 226 494 c 1
 202 446 181 397 163 348 c 1
480 282 m 2
 487 302 l 1
 469 256 l 1
 473 264 477 273 480 282 c 2
240 523 m 1
 240 524 l 1
 240 523 l 1
315 655 m 1
 315 654 314 653 313 653 c 1
 314 653 315 654 315 655 c 1
EndSplineSet
Validated: 37
EndChar

StartChar: V
Encoding: 86 86 48
Width: 362
Flags: MW
HStem: -87 841
VStem: 60 31 91 80
LayerCount: 2
Fore
SplineSet
171 479 m 2xc0
 177 365 l 2
 181 299 165 235 157 174 c 1
 158 177 159 180 161 182 c 0
 165 184 162 163 162 162 c 1
 188 212 223 257 249 307 c 0
 288 380 342 445 392 511 c 0
 435 566 478 620 528 669 c 0
 550 691 576 708 599 728 c 0
 605 733 602 736 611 739 c 0
 627 744 647 723 652 710 c 0
 665 674 597 662 580 647 c 0
 572 640 571 632 563 624 c 0
 555 615 544 608 535 599 c 0
 514 579 492 560 473 538 c 0
 407 462 349 383 293 300 c 0
 281 282 265 264 256 244 c 0
 251 234 247 220 241 209 c 0
 211 157 179 106 151 52 c 0
 132 15 126 -33 101 -66 c 0
 86 -86 -1 -104 0 -62 c 0
 0 -48 14 -29 19 -16 c 0
 29 14 34 45 39 76 c 0
 43 105 46 136 54 164 c 0
 57 174 60 180 61 190 c 2
 61 190 60 213 62 214 c 1
 62 213 63 212 63 211 c 1
 63 213 64 215 64 218 c 1
 61 209 60 230 60 231 c 0
 59 240 61 249 61 258 c 0
 63 279 65 299 63 320 c 0
 62 331 55 423 65 425 c 0
 67 426 66 418 68 418 c 1
 67 427 67 437 67 446 c 1
 66 444 66 442 65 441 c 1
 66 444 55 551 54 559 c 0
 53 579 49 598 46 617 c 0
 44 627 42 638 41 648 c 0
 40 656 43 664 43 670 c 0
 43 677 38 682 40 691 c 0
 43 707 62 720 74 729 c 0
 90 740 110 753 130 754 c 0
 146 756 146 748 149 737 c 1
 149 738 150 740 151 742 c 0
 154 743 162 701 158 700 c 0
 156 699 155 703 154 707 c 1
 159 673 163 638 165 604 c 1
 164 632 163 656 163 656 c 1
 163 656 165 622 167 578 c 2
 167 567 l 1
 167 568 l 1
 167 566 l 1
 167 567 l 1
 167 565 l 1
 167 566 l 1
 167 564 168 564 168 562 c 1
 168 563 167 564 167 565 c 1
 167 563 167 562 168 560 c 0
 168 554 168 548 169 542 c 1
 169 542 168 542 168 543 c 1
 171 479 l 1
 171 480 170 482 170 483 c 1
 170 482 171 480 171 479 c 2xc0
90 251 m 1xa0
 90 254 l 2xa0
 93 297 92 343 91 387 c 1
 92 300 85 214 73 127 c 0
 68 92 61 57 54 22 c 0
 52 13 49 4 47 -3 c 1
 54 15 60 34 65 55 c 0xc0
 80 120 84 185 90 251 c 1xa0
EndSplineSet
Validated: 37
EndChar

StartChar: W
Encoding: 87 87 49
Width: 677
Flags: MW
HStem: 340 20G 341 20G 627 110
VStem: 0 104 139 13 152 75 352 96<35 36 35 106> 383 89<300 302> 527 11
LayerCount: 2
Fore
SplineSet
918 710 m 0x5a80
 926 684 894 671 878 658 c 0
 870 652 861 645 855 639 c 0
 846 630 850 630 844 620 c 0
 830 597 809 576 792 555 c 0
 773 531 758 507 741 483 c 0
 726 461 705 440 694 416 c 0
 686 397 677 378 665 359 c 0
 639 319 616 277 592 235 c 0
 574 204 564 171 546 138 c 0
 518 87 493 33 468 -20 c 0
 461 -35 454 -49 451 -63 c 0
 447 -79 443 -87 424 -89 c 0
 389 -92 356 -63 352 -29 c 0
 346 14 351 62 352 106 c 0
 353 129 355 156 363 179 c 0
 366 189 369 193 370 204 c 0
 371 207 371 220 372 218 c 1
 372 227 370 238 373 251 c 0x5a80
 376 267 381 283 383 299 c 0
 383 305 391 389 404 387 c 0
 406 387 403 381 405 381 c 0
 406 387 407 394 409 400 c 1
 408 400 408 399 407 399 c 1
 408 399 420 454 422 459 c 1
 384 410 l 2
 368 388 347 368 333 345 c 0
 303 295 270 248 238 199 c 0
 207 154 179 107 152 60 c 0
 137 34 117 8 108 -21 c 0
 107 -26 106 -31 104 -36 c 0
 91 -66 44 -72 18 -57 c 0
 -7 -42 -1 -17 7 6 c 0
 15 29 20 47 26 70 c 0
 38 120 60 167 73 216 c 0
 86 264 99 312 111 360 c 0x5580
 131 438 147 521 152 603 c 1
 147 536 129 466 116 401 c 0
 99 320 75 236 49 157 c 1
 59 197 65 238 76 278 c 0
 81 295 88 310 93 327 c 0
 94 328 99 360 100 361 c 1
 100 360 100 359 101 358 c 1
 101 360 102 361 102 363 c 1
 99 357 100 380 101 381 c 0
 102 390 104 399 106 408 c 0
 111 428 115 446 116 466 c 0
 116 477 125 564 134 564 c 0
 136 564 134 557 135 556 c 1
 137 565 138 574 139 584 c 1
 138 582 138 580 136 579 c 1
 137 582 140 630 140 635 c 1
 94 604 107 676 118 697 c 0
 126 715 143 736 165 737 c 0
 170 737 171 733 176 733 c 0
 181 732 182 735 186 734 c 0
 203 731 213 715 220 700 c 0x7a80
 229 681 232 661 233 640 c 0
 233 627 228 620 228 611 c 1
 228 612 229 613 230 614 c 0
 234 615 232 573 227 573 c 0
 226 572 227 591 227 590 c 0
 221 531 209 471 198 413 c 1
 201 424 221 530 222 530 c 1
 222 530 189 348 186 331 c 0
 173 264 162 197 144 131 c 1
 197 207 l 2
 218 236 231 266 254 295 c 0
 277 322 297 352 319 380 c 0
 331 397 337 414 349 430 c 0
 386 483 432 535 470 583 c 0
 474 588 473 594 484 597 c 0
 496 600 511 591 519 583 c 0
 530 574 537 561 538 547 c 0
 539 532 531 531 527 522 c 1
 531 525 l 2
 534 524 523 492 520 492 c 0
 518 492 518 496 519 500 c 1
 503 454 493 407 484 360 c 1
 486 364 494 402 501 429 c 1xb680
 490 375 472 266 470 255 c 0
 467 220 464 185 458 150 c 0
 454 126 446 99 444 77 c 1
 444 78 445 79 447 81 c 0
 450 83 448 37 448 35 c 1
 466 77 484 120 505 161 c 0
 520 191 539 219 553 250 c 0
 586 323 626 391 669 459 c 0
 712 527 755 596 805 659 c 0
 824 683 847 704 867 728 c 0
 872 734 868 739 880 741 c 0
 896 744 913 724 918 711 c 1
 918 711 917 712 918 710 c 0x5a80
474 323 m 1x5980
 471 313 472 307 472 300 c 1
 474 312 477 323 480 337 c 1
 480 336 479 335 479 334 c 0
 476 327 473 320 474 323 c 1x5980
510 458 m 1
 510 458 507 452 505 443 c 1
 507 453 509 458 510 458 c 1
EndSplineSet
Validated: 37
EndChar

StartChar: X
Encoding: 88 88 50
Width: 637
Flags: MW
HStem: -177 86 766 33
VStem: -57 748 325 107
LayerCount: 2
Fore
SplineSet
665 726 m 0xe0
 672 722 700 689 689 682 c 1
 691 668 674 655 667 644 c 0
 649 619 629 596 609 573 c 0
 565 522 524 470 479 422 c 2
 449 390 l 2
 438 377 432 371 432 356 c 0
 431 324 444 289 448 257 c 0
 455 194 457 124 469 66 c 1
 469 71 469 77 472 77 c 0
 481 74 491 13 495 2 c 0
 503 -20 511 -43 526 -62 c 0
 538 -78 555 -92 577 -91 c 0
 600 -91 632 -76 648 -59 c 0
 653 -54 659 -37 668 -41 c 0
 675 -44 674 -61 673 -68 c 0
 668 -91 641 -111 626 -127 c 0
 577 -183 504 -198 450 -142 c 0
 417 -108 399 -64 387 -19 c 0
 382 1 381 21 378 41 c 0
 377 45 366 69 368 74 c 1
 368 73 370 69 371 67 c 1
 369 83 l 1
 370 71 364 88 363 89 c 0
 360 96 360 104 359 110 c 0
 356 126 354 142 352 158 c 0
 348 190 339 220 335 251 c 1
 232 138 134 19 22 -86 c 0
 6 -101 -10 -117 -28 -129 c 0
 -39 -136 -51 -149 -56 -131 c 0
 -63 -107 -24 -64 -11 -46 c 0
 3 -26 29 -5 40 16 c 0
 44 23 44 30 49 38 c 0
 58 52 70 65 80 78 c 0
 100 104 122 128 143 154 c 0
 177 197 216 239 246 285 c 0
 264 313 290 338 313 362 c 0
 327 378 327 386 325 407 c 0
 324 422 321 437 319 451 c 0
 315 485 313 519 308 552 c 0
 303 587 294 622 292 656 c 0
 291 667 295 674 293 684 c 0
 292 692 286 703 283 711 c 0
 275 738 267 751 247 768 c 0
 232 781 245 788 262 793 c 0
 287 802 303 803 321 786 c 1
 320 788 319 790 319 792 c 0
 320 795 362 754 353 747 c 1
 353 747 341 765 339 766 c 1
 356 741 368 713 377 682 c 1
 376 689 375 693 375 693 c 1
 377 693 398 598 399 589 c 0
 405 554 410 518 415 482 c 1xd0
 451 532 492 579 533 626 c 0
 561 659 589 695 622 723 c 0
 635 734 649 737 665 726 c 0xe0
471 14 m 0
 457 62 450 118 443 170 c 1
 443 176 l 2
 441 190 437 204 434 219 c 1
 439 167 437 108 448 59 c 0
 458 8 488 -88 552 -99 c 1
 506 -88 482 -26 471 14 c 0
412 479 m 1
 414 481 413 483 411 486 c 1
 412 483 412 481 412 479 c 1
EndSplineSet
Validated: 33
EndChar

StartChar: Y
Encoding: 89 89 51
Width: 551
Flags: MW
HStem: -372 69
VStem: 0 72 24 11 299 9
LayerCount: 2
Fore
SplineSet
40 306 m 1xb0
 43 313 l 1
 43 312 l 1
 49 325 49 350 52 363 c 0
 60 395 68 427 79 458 c 0
 99 515 120 574 147 628 c 0
 154 641 164 650 172 662 c 0
 180 673 184 688 190 701 c 0
 199 721 212 757 234 765 c 0
 258 775 284 753 298 735 c 0
 311 713 311 700 299 681 c 1
 301 683 304 685 304 684 c 0
 304 676 271 625 266 627 c 1
 266 627 278 651 279 654 c 1
 260 623 242 592 227 559 c 1
 229 562 230 563 232 564 c 1
 226 560 193 467 190 458 c 0
 158 375 135 289 124 200 c 0
 122 182 115 136 147 145 c 0
 170 152 190 180 205 198 c 0xb0
 257 259 311 319 357 385 c 1
 356 384 343 370 343 371 c 0
 339 382 358 401 363 408 c 0
 376 424 387 441 398 458 c 2
 489 601 l 2
 503 622 518 643 530 665 c 0
 539 681 544 694 565 694 c 0
 590 694 623 668 634 643 c 2
 634 643 634 642 635 641 c 0
 635 640 635 639 636 639 c 1
 635 639 l 1
 636 638 636 637 636 637 c 1
 637 636 l 1
 646 592 599 543 586 503 c 0
 577 474 571 446 560 418 c 0
 547 387 535 355 522 323 c 2
 446 134 l 2
 422 76 404 16 377 -41 c 0
 331 -142 283 -252 212 -339 c 0
 156 -408 43 -358 11 -288 c 0
 -31 -193 57 -96 122 -37 c 0
 130 -30 197 41 201 15 c 0
 203 5 185 -12 180 -19 c 0
 168 -34 157 -50 147 -67 c 0
 123 -105 103 -146 88 -189 c 0
 79 -216 65 -254 76 -282 c 0
 88 -316 126 -303 146 -284 c 0xd0
 174 -257 192 -217 210 -183 c 0
 315 22 388 240 461 458 c 1
 419 388 378 318 332 251 c 0
 311 222 289 194 264 168 c 0
 254 159 245 150 237 139 c 0
 233 134 227 118 220 118 c 1
 225 126 l 1
 222 122 218 119 215 116 c 1
 216 116 217 116 218 115 c 0
 212 86 167 70 142 76 c 0
 109 84 69 113 47 139 c 0
 27 163 22 191 24 222 c 0
 25 228 25 280 35 281 c 0
 36 281 34 269 35 268 c 1
 37 282 39 295 42 309 c 1
 41 308 41 306 40 306 c 1xb0
104 471 m 1
 108 482 114 493 118 504 c 2
 118 504 152 565 151 565 c 1
 179 641 192 658 226 722 c 1
 204 682 175 641 157 601 c 0
 137 556 120 516 104 471 c 1
347 -41 m 1
 367 3 385 46 403 90 c 1
 397 79 380 53 376 42 c 0
 363 9 361 -9 347 -41 c 1
637 636 m 1
 637 637 l 1
 636 637 l 1
 637 636 l 1
EndSplineSet
Validated: 37
EndChar

StartChar: Z
Encoding: 90 90 52
Width: 545
Flags: MW
HStem: -69 80 8 48 626 66
VStem: 683 23
LayerCount: 2
Fore
SplineSet
677 726 m 1x70
 678 726 l 2
 679 727 681 728 682 728 c 2
 682 728 683 728 683 729 c 1
 683 728 l 1
 707 736 711 700 701 682 c 0
 697 676 659 638 653 644 c 0
 652 645 660 652 661 653 c 1
 634 639 614 615 592 594 c 0
 588 590 583 586 579 581 c 0
 517 528 459 468 401 412 c 0
 326 339 269 253 202 173 c 1
 227 201 250 230 275 259 c 0
 321 313 373 362 424 412 c 1
 399 381 375 351 349 321 c 0
 324 292 297 269 275 239 c 1
 282 244 l 1
 275 239 248 193 244 188 c 0
 214 147 184 107 157 63 c 1
 171 59 186 60 201 56 c 0x70
 216 53 228 45 241 38 c 0
 265 27 292 15 318 11 c 0
 375 1 438 21 486 52 c 0
 493 56 525 84 534 75 c 0
 540 67 525 48 521 43 c 0
 496 6 450 -22 410 -41 c 0xb0
 358 -67 310 -81 254 -56 c 0
 212 -36 175 12 124 8 c 0
 101 7 80 -7 63 -22 c 0
 51 -33 45 -53 27 -47 c 0
 7 -40 -7 -10 3 9 c 0
 12 27 32 42 43 60 c 0
 72 107 97 157 131 201 c 0
 147 222 168 237 183 257 c 0
 188 262 190 269 195 274 c 0
 196 275 204 286 201 278 c 1
 205 283 204 284 208 293 c 0
 213 301 220 309 226 316 c 0
 245 337 263 360 281 382 c 0
 288 391 339 456 349 448 c 0
 350 448 344 442 345 441 c 1
 366 463 l 1
 354 453 377 479 380 482 c 2
 429 532 l 2
 457 560 485 594 517 616 c 1
 437 609 356 641 277 617 c 0
 260 612 244 604 231 591 c 0
 225 585 223 573 215 574 c 0
 187 579 225 636 231 643 c 0
 240 657 245 672 259 682 c 0
 273 692 293 695 311 697 c 0
 329 699 347 698 366 697 c 0
 385 697 405 700 424 698 c 0
 513 689 594 685 677 726 c 1x70
283 245 m 1
 282 245 282 244 282 244 c 1
 283 245 l 1
EndSplineSet
Validated: 37
EndChar

StartChar: t_t
Encoding: 65537 -1 53
Width: 547
Flags: MW
HStem: -105 84 478 39 494 32 503 35 722 53
VStem: 4 59 64 10 202 85<-109 -105 -105 -88 -88.5 -84.5> 615 18
LayerCount: 2
Fore
SplineSet
392 263 m 0x22
 362 183 338 101 313 19 c 0
 302 -20 287 -63 287 -104 c 0
 287 -114 287 -125 294 -132 c 1
 312 -128 328 -110 340 -97 c 1
 339 -98 323 -112 322 -110 c 0
 321 -104 341 -87 344 -83 c 2
 371 -50 l 1
 421 15 l 2
 458 65 494 116 530 166 c 0
 546 187 561 208 576 229 c 0
 579 232 583 240 587 242 c 0
 605 249 605 226 601 214 c 0
 594 196 577 178 565 162 c 0
 557 150 552 138 544 125 c 0
 519 83 491 43 464 3 c 0
 434 -40 405 -84 373 -125 c 0
 354 -151 327 -193 296 -206 c 0
 276 -214 252 -204 237 -192 c 0
 222 -181 211 -164 205 -147 c 0
 204 -142 195 -116 201 -110 c 1
 201 -113 202 -128 202 -128 c 1
 202 -120 201 -113 202 -105 c 1
 201 -105 202 -89 202 -88 c 0
 202 -81 203 -75 204 -69 c 0
 207 -51 211 -33 215 -15 c 0
 224 23 232 61 240 100 c 1
 206 45 172 -10 132 -60 c 0
 120 -74 106 -94 88 -102 c 0
 60 -114 23 -89 7 -68 c 0
 -8 -48 -8 -31 -4 -8 c 0
 -2 0 -2 43 4 49 c 1
 4 48 4 44 3 41 c 1
 5 52 l 1
 4 52 5 64 5 66 c 0
 5 73 7 80 9 87 c 0
 12 104 17 121 22 138 c 0
 31 168 40 198 47 229 c 0
 53 260 64 290 75 320 c 0
 77 324 100 390 106 390 c 0
 107 390 103 377 104 377 c 2
 122 425 l 1
 120 420 115 412 115 414 c 0
 115 425 126 440 130 450 c 2
 144 486 l 1
 131 485 119 480 105 479 c 0
 79 477 52 479 26 478 c 0
 13 478 -92 471 -93 488 c 0
 -94 495 -45 503 -40 504 c 0
 6 515 60 516 107 517 c 0
 119 518 136 514 147 517 c 0
 158 520 150 512 159 525 c 2
 164 538 l 2
 172 559 181 579 191 598 c 0xc5
 211 641 229 684 251 726 c 0
 260 742 272 754 281 766 c 0
 291 781 297 801 307 817 c 0
 316 831 326 849 338 862 c 0
 353 878 379 882 400 881 c 0
 416 881 449 878 450 855 c 0
 450 844 439 838 432 831 c 1
 435 833 438 836 438 834 c 0
 438 828 401 775 397 776 c 0
 396 776 411 801 412 803 c 1
 368 737 330 667 296 596 c 1
 321 647 352 708 359 712 c 1
 351 705 274 541 266 526 c 1
 302 526 338 527 374 528 c 0
 397 528 395 526 405 549 c 2
 426 596 l 2x22
 434 611 441 627 452 641 c 0
 457 648 463 651 467 660 c 0
 476 681 485 700 498 720 c 0
 508 736 517 756 535 765 c 0
 557 777 598 780 620 767 c 0
 645 752 627 737 615 722 c 1
 618 725 622 729 622 727 c 0
 622 721 583 665 580 666 c 0
 579 666 594 692 595 694 c 1
 561 643 533 588 506 534 c 1
 508 534 510 536 513 540 c 1
 511 537 511 534 511 534 c 1
 607 538 l 2
 613 538 619 538 624 539 c 0
 625 539 622 544 626 543 c 0
 631 543 634 545 636 538 c 0
 644 511 588 503 572 503 c 0
 560 502 541 508 529 506 c 0
 524 505 526 502 521 500 c 0
 514 498 504 500 498 497 c 0
 484 492 474 457 467 443 c 0x1880
 458 423 449 403 441 383 c 0
 424 344 407 304 392 263 c 0x22
299 263 m 1
 306 286 l 1
 304 282 300 275 300 275 c 1
 300 292 316 317 321 333 c 0
 327 351 333 369 340 387 c 0
 353 424 368 459 383 494 c 1
 360 495 339 495 318 490 c 0
 305 487 292 488 278 488 c 0
 272 488 264 489 258 488 c 0
 247 485 248 487 243 474 c 0
 217 418 193 361 172 303 c 0
 152 247 133 191 114 135 c 0
 104 106 95 77 88 47 c 0
 85 35 73 -10 79 -18 c 0
 80 -24 83 -28 87 -29 c 1
 85 -27 86 -22 84 -21 c 1
 97 -22 105 -13 116 -1 c 0xa2
 140 26 161 57 181 86 c 0
 222 144 259 204 299 263 c 1
106 183 m 0
 96 150 87 117 80 83 c 1
 92 135 111 185 130 234 c 0
 157 303 182 374 212 443 c 0
 247 524 281 609 323 690 c 1
 277 602 238 509 197 421 c 0
 162 344 131 264 106 183 c 0
353 255 m 0
 340 217 328 179 317 141 c 1
 329 180 343 217 359 255 c 0
 372 287 384 322 395 356 c 1
 381 322 364 289 353 255 c 0
491 497 m 1
 480 497 456 430 448 408 c 1
 448 409 449 409 449 410 c 2
 451 415 l 1
 451 414 l 1
 453 419 l 2
 465 445 477 471 491 497 c 1
74 60 m 1
 69 38 51 -22 74 -36 c 1
 58 -25 65 6 67 22 c 0
 68 26 68 29 68 30 c 2
 74 60 l 1
424 352 m 1
 411 322 399 292 387 261 c 1
 411 319 l 1
 411 321 l 1
 411 321 412 321 412 322 c 2
 424 352 l 1
543 599 m 1
 542 599 532 581 524 564 c 1
 532 582 538 600 543 599 c 1
286 575 m 1
 292 588 l 1
 286 575 l 1
278 558 m 1
 286 575 l 1
 278 558 l 1
453 419 m 1
 453 419 452 419 452 418 c 1
 453 419 l 1
524 563 m 1
 523 562 523 561 523 560 c 1
 523 561 523 562 524 563 c 1
521 557 m 1
 521 558 522 559 523 560 c 1
 522 559 521 558 521 557 c 1
452 418 m 1
 451 417 451 416 451 415 c 1
 452 418 l 1
EndSplineSet
Validated: 37
Ligature2: "'liga' Standard Ligatures in Latin lookup 0 subtable" t t
EndChar

StartChar: l_l
Encoding: 65538 -1 54
Width: 677
Flags: MW
HStem: -284 65 -177 63 795 58 858 57
VStem: 6 89 369 19 414 51 713 50
LayerCount: 2
Fore
SplineSet
739 261 m 0
 761 246 724 187 717 175 c 0
 704 152 695 127 683 104 c 0
 649 36 611 -29 571 -93 c 0
 532 -153 490 -231 429 -272 c 0
 413 -282 399 -286 381 -284 c 0
 326 -276 305 -221 300 -172 c 0
 292 -103 308 -35 320 31 c 0
 319 32 321 44 321 45 c 1x84
 278 -20 231 -89 172 -141 c 0
 143 -167 110 -187 71 -172 c 0
 5 -147 2 -55 6 4 c 0
 10 76 29 143 47 212 c 0
 47 214 47 238 52 245 c 1
 51 242 51 235 50 228 c 1
 52 236 54 245 57 253 c 1
 55 253 l 1
 52 273 66 302 72 321 c 0
 80 348 89 374 99 400 c 0
 114 443 131 485 145 528 c 0
 158 572 178 614 198 656 c 0
 210 679 221 703 235 725 c 0
 238 730 261 776 266 776 c 1
 266 776 257 757 258 757 c 0
 268 776 280 796 291 814 c 1
 291 814 291 815 292 815 c 1
 292 816 l 2
 295 819 297 822 299 825 c 2
 301 829 l 2
 308 840 314 851 320 859 c 0
 333 876 348 896 367 908 c 0
 395 925 429 910 447 885 c 0x5a
 488 828 451 751 428 695 c 0
 412 654 392 615 371 577 c 0
 360 558 350 537 336 519 c 0
 328 509 320 505 315 493 c 0
 281 427 240 364 199 302 c 0
 179 272 151 245 142 210 c 0
 135 187 129 165 123 142 c 2
 115 112 l 2
 115 111 111 99 111 104 c 1
 108 96 107 88 106 80 c 1
 108 88 110 97 113 97 c 0
 116 97 65 -107 122 -114 c 0
 151 -117 183 -74 199 -55 c 0
 233 -15 264 30 293 75 c 0
 308 98 325 122 338 146 c 0
 349 169 354 195 362 219 c 0
 377 267 394 314 407 363 c 0
 420 411 440 458 460 504 c 0
 470 526 479 548 490 570 c 0
 493 575 514 624 519 624 c 1
 512 604 l 1
 524 628 535 652 548 676 c 1
 544 670 539 661 538 662 c 0
 537 662 587 750 592 758 c 0
 610 788 631 823 660 844 c 0
 697 869 742 839 755 801 c 0x6b
 783 723 727 627 691 561 c 0
 676 535 654 516 642 491 c 0
 625 457 604 424 583 392 c 0
 558 356 534 319 508 284 c 0
 496 268 479 253 470 236 c 0
 462 221 459 200 454 184 c 0
 441 138 428 92 417 46 c 0
 411 24 406 2 401 -20 c 2
 395 -51 l 1
 395 -51 390 -72 389 -71 c 1
 387 -82 385 -94 384 -107 c 1
 385 -99 392 -78 392 -78 c 1
 404 -98 362 -222 416 -219 c 0
 433 -218 450 -196 460 -185 c 0
 487 -156 509 -122 530 -88 c 0
 572 -22 610 47 647 116 c 0
 657 134 718 275 739 261 c 0
183 347 m 2
 183 345 l 1xdd
 181 341 l 1
 262 473 343 610 397 755 c 1
 377 702 351 652 325 602 c 2
 283 521 l 2
 273 505 256 483 248 465 c 1
 255 484 270 503 280 521 c 2
 315 585 l 2
 336 627 357 670 376 713 c 0
 391 747 422 804 414 842 c 0
 409 868 395 858 384 844 c 0
 356 811 338 768 321 729 c 0x12
 301 685 284 640 268 595 c 0
 253 554 240 513 226 472 c 0
 218 450 210 428 203 406 c 2
 194 379 l 1
 188 362 l 2
 184 353 184 351 188 357 c 1
 187 353 185 350 183 347 c 2
506 351 m 1
 527 385 l 1
 528 386 l 1
 528 385 527 385 527 385 c 1
 528 386 l 1
 529 387 l 1
 546 413 550 421 548 418 c 1
 582 475 615 533 646 592 c 0
 668 636 700 689 712 742 c 1
 702 695 673 650 653 610 c 2
 609 528 l 1
 589 492 l 2
 585 486 576 476 573 469 c 1
 578 485 592 503 601 517 c 0
 612 536 622 555 632 574 c 0
 652 613 672 651 689 691 c 0
 695 706 733 790 701 795 c 0
 692 796 686 787 681 780 c 0x29
 655 750 639 710 623 674 c 0
 607 639 592 602 579 566 c 0
 551 495 529 423 506 351 c 1
428 191 m 0
 412 130 397 69 385 9 c 1
 408 123 448 234 479 347 c 1
 460 296 441 245 428 191 c 0
57 155 m 0
 58 156 57 170 55 170 c 0
 51 170 46 149 43 127 c 0
 37 96 32 64 30 33 c 1x12
 33 49 l 1
 33 43 32 38 32 34 c 1
 33 42 37 46 39 58 c 0
 44 88 44 124 55 152 c 1
 55 152 56 152 57 155 c 0
215 621 m 0
 212 615 213 616 214 618 c 0
 235 657 261 694 281 734 c 1
 271 716 254 701 245 684 c 0x1c
 234 663 224 642 215 621 c 0
372 834 m 0
 359 816 350 798 341 779 c 1
 356 808 386 857 404 861 c 1
 403 861 402 862 401 862 c 0
 389 862 378 843 372 834 c 0
369 -95 m 0
 369 -91 370 -87 370 -84 c 1
 369 -88 368 -94 368 -100 c 1
 368 -98 369 -96 369 -95 c 0
43 122 m 1
 39 101 l 1
 40 108 41 115 43 122 c 1
322 41 m 1
 324 49 l 1
 322 46 321 44 322 41 c 1
293 817 m 1
 299 825 l 1
 301 829 l 1
 293 817 l 1
534 396 m 1
 531 391 l 1
 532 393 533 393 534 396 c 1
35 72 m 1
 35 75 36 78 36 81 c 1
 36 78 35 74 35 72 c 1
38 92 m 1
 38 97 l 1
 38 92 l 1
39 101 m 1
 38 97 l 1
 38 98 39 99 39 101 c 1
37 84 m 1
 37 83 36 82 36 81 c 1
 36 82 37 83 37 84 c 1
530 390 m 1
 530 390 530 391 531 391 c 1
 530 390 l 1
EndSplineSet
Validated: 37
Ligature2: "'liga' Standard Ligatures in Latin lookup 0 subtable" l l
EndChar

StartChar: zero
Encoding: 48 48 55
Width: 378
Flags: MW
HStem: 494 46
VStem: 1 7 12 99 339 46<379 388 388 388>
LayerCount: 2
Fore
SplineSet
353 496 m 0
 376 467 385 430 385 393 c 0
 385 365 378 338 374 311 c 0
 370 289 371 267 368 246 c 0
 363 217 354 190 345 162 c 0
 318 83 283 -5 215 -59 c 0
 188 -80 163 -84 132 -93 c 0
 122 -96 118 -101 104 -100 c 0
 84 -98 63 -87 49 -73 c 0
 35 -60 26 -43 20 -24 c 1
 -5 -25 0 90 1 105 c 0
 1 122 3 139 6 156 c 2
 12 184 l 2
 14 195 11 203 13 215 c 0
 18 255 37 299 52 337 c 0
 58 352 64 366 71 380 c 0
 78 396 80 412 89 427 c 0
 108 463 138 496 173 518 c 0
 226 551 312 549 353 496 c 0
339 388 m 2
 340 399 340 403 340 402 c 1
 339 438 331 483 296 494 c 0
 283 498 285 493 275 487 c 0
 251 474 233 463 214 443 c 0
 203 432 198 410 189 392 c 0
 179 372 169 354 162 333 c 0
 154 309 144 288 141 265 c 0
 139 243 129 223 124 202 c 0
 114 165 110 127 111 91 c 0
 112 66 107 42 109 18 c 0
 110 0 109 -41 130 -49 c 0
 145 -55 167 -44 178 -35 c 0xb0
 210 -6 233 40 252 77 c 0
 263 99 278 120 286 143 c 0
 294 169 300 196 309 222 c 0
 325 273 336 324 339 377 c 2
 339 388 l 2
21 139 m 0xb0
 35 228 58 313 99 392 c 1xb0
 68 333 41 272 26 206 c 0xd0
 12 146 2 75 12 12 c 1
 7 56 14 103 21 139 c 0xb0
EndSplineSet
Validated: 37
EndChar

StartChar: one
Encoding: 49 49 56
Width: 257
Flags: MW
HStem: 464 34
VStem: 127 7
LayerCount: 2
Fore
SplineSet
285 500 m 0
 287 496 289 489 288 484 c 0
 285 458 271 426 262 402 c 0
 257 389 250 376 245 363 c 0
 237 344 238 328 232 310 c 0
 221 278 207 247 196 214 c 0
 187 187 173 158 169 130 c 0
 159 65 138 -1 124 -66 c 0
 119 -89 110 -108 84 -109 c 0
 62 -110 20 -98 17 -72 c 0
 17 -68 18 -65 18 -62 c 0
 24 -24 41 16 52 53 c 0
 61 83 77 111 85 141 c 0
 95 180 105 218 119 255 c 2
 155 357 l 1
 172 405 l 2
 175 414 194 448 191 457 c 0
 184 476 108 449 86 457 c 0
 73 462 70 470 77 482 c 0
 80 487 84 490 88 494 c 0
 92 496 95 497 99 498 c 0
 101 498 102 499 101 502 c 0
 139 521 185 513 224 523 c 0
 238 527 240 537 258 530 c 0
 270 524 281 513 285 500 c 0
193 324 m 2
 185 298 176 273 167 248 c 1
 184 270 195 306 201 344 c 1
 193 324 l 2
128 132 m 2
 132 139 137 145 139 152 c 1
 139 151 138 156 138 155 c 0
 136 153 135 152 134 149 c 1
 134 154 l 1
 129 144 115 127 123 122 c 1
 122 122 121 124 120 123 c 0
 118 121 123 120 124 121 c 0
 125 122 126 125 126 128 c 2
 126 128 127 129 127 130 c 2
 127 131 l 1
 128 132 l 2
161 233 m 0
 162 233 162 234 162 235 c 2
 189 316 l 1
 185 306 l 2
 170 269 160 230 147 194 c 1
 152 207 157 220 161 233 c 0
220 403 m 2
 220 404 220 404 221 406 c 0
 221 407 222 413 221 412 c 0
 213 403 211 386 208 373 c 1
 220 403 l 2
133 149 m 0
 135 150 130 140 127 131 c 1
 128 137 129 145 133 149 c 0
142 183 m 1
 141 182 141 179 141 178 c 1
 141 179 142 181 142 183 c 1
EndSplineSet
Validated: 37
EndChar

StartChar: two
Encoding: 50 50 57
Width: 384
Flags: MW
HStem: -111 51 474 64
VStem: -27 455
LayerCount: 2
Fore
SplineSet
172 83 m 0
 155 61 139 39 125 14 c 0
 112 -9 93 -35 86 -60 c 1
 137 -50 187 -35 240 -34 c 0
 254 -34 329 -40 313 -71 c 0
 309 -79 288 -82 281 -84 c 0
 260 -89 238 -93 217 -96 c 0
 171 -103 126 -108 80 -111 c 0
 39 -115 -35 -118 -26 -56 c 0
 -25 -43 -16 -32 -14 -19 c 1
 -14 -19 -17 -15 -16 -13 c 0
 -15 -6 -12 0 -9 6 c 0
 10 44 39 79 66 110 c 0
 78 123 94 137 103 151 c 0
 108 160 110 171 117 181 c 0
 143 216 169 250 197 283 c 0
 220 310 239 340 261 368 c 0
 281 395 307 423 314 456 c 0
 317 473 319 478 295 474 c 0
 260 468 224 443 197 421 c 0
 184 410 139 346 129 381 c 0
 124 401 144 423 155 436 c 0
 196 491 281 536 350 538 c 0
 379 539 418 530 426 497 c 0
 438 451 396 407 376 370 c 0
 351 325 320 285 289 244 c 0
 249 190 211 136 172 83 c 0
123 68 m 0
 127 70 132 87 135 92 c 0
 141 101 149 108 156 116 c 0
 167 127 185 140 190 155 c 0
 193 157 194 159 192 160 c 2
 158 125 l 2
 150 116 141 109 134 98 c 0
 133 97 120 67 123 68 c 0
EndSplineSet
Validated: 33
EndChar

StartChar: three
Encoding: 51 51 58
Width: 353
Flags: MW
HStem: -116 52 475 60
VStem: -25 69 243 79
LayerCount: 2
Fore
SplineSet
364 484 m 0
 366 441 343 396 322 359 c 0
 300 320 274 282 242 249 c 1
 274 256 310 227 317 199 c 0
 324 174 323 148 315 123 c 0
 305 92 298 62 281 34 c 0
 239 -38 173 -113 84 -116 c 0
 38 -118 -41 -94 -22 -31 c 0
 -16 -10 -7 16 7 33 c 0
 14 43 55 75 57 45 c 0
 58 42 51 31 51 28 c 0
 47 16 45 4 44 -8 c 0
 43 -29 45 -59 70 -64 c 0
 109 -70 141 -8 159 17 c 0
 192 62 227 116 240 172 c 0
 252 219 220 207 190 190 c 0
 172 181 145 159 124 164 c 0
 105 168 101 189 106 204 c 0
 111 219 134 237 146 250 c 2
 169 274 l 2
 173 278 176 278 179 283 c 0
 179 284 177 289 178 291 c 0
 188 317 213 338 228 362 c 0
 240 382 253 403 264 424 c 0
 267 430 278 464 276 469 c 0
 273 474 266 474 261 475 c 0
 220 478 177 437 153 411 c 0
 142 400 130 392 121 380 c 0
 115 374 110 363 101 362 c 0
 80 359 81 388 86 401 c 0
 99 436 135 451 160 475 c 0
 196 508 360 587 364 484 c 0
197 -27 m 1
 209 -13 271 28 292 125 c 1
 285 95 262 67 248 40 c 0
 236 16 215 -5 197 -27 c 1
EndSplineSet
Validated: 33
EndChar

StartChar: four
Encoding: 52 52 59
Width: 384
Flags: MW
HStem: -113 647 120 51
VStem: 30 392
LayerCount: 2
Fore
SplineSet
376 354 m 0xa0
 367 331 366 310 357 287 c 0
 347 262 338 238 330 213 c 1
 339 215 405 228 395 203 c 0
 386 178 334 187 319 175 c 0
 311 170 312 157 310 148 c 0
 308 131 303 116 298 99 c 0
 282 51 272 2 261 -46 c 0
 253 -83 240 -125 192 -110 c 0
 171 -103 151 -88 152 -64 c 0
 154 -34 171 -3 182 24 c 0
 197 64 204 107 219 147 c 1
 183 139 147 125 110 120 c 0
 103 120 39 127 43 138 c 1
 46 138 l 1
 44 139 43 139 42 141 c 1
 43 137 34 148 33 150 c 0
 29 156 30 164 30 171 c 0
 32 189 43 206 47 223 c 0
 49 231 71 308 82 306 c 0
 84 305 80 300 82 299 c 1
 91 321 l 1
 90 320 89 318 87 317 c 0
 86 318 122 410 125 418 c 0
 132 436 137 455 144 473 c 0
 149 486 157 495 162 505 c 0
 172 526 196 543 221 528 c 0
 230 522 237 512 239 502 c 0
 242 488 235 485 233 475 c 1
 233 476 234 478 236 479 c 0
 240 478 231 443 226 444 c 0
 225 444 229 458 229 459 c 1
 218 425 205 391 191 358 c 1
 200 378 l 1
 174 317 121 187 114 171 c 1
 151 178 192 181 226 187 c 1
 222 187 219 187 215 188 c 0
 213 191 230 195 228 194 c 1
 235 199 234 196 239 203 c 0
 245 213 248 230 252 242 c 0x60
 263 271 272 302 282 332 c 2
 308 406 l 2
 313 421 322 438 324 454 c 0
 325 462 321 461 321 471 c 0
 321 481 328 496 333 504 c 0
 339 515 347 526 360 529 c 0
 368 531 378 530 385 527 c 0
 391 524 392 520 397 518 c 0
 400 516 403 518 405 517 c 0
 416 510 421 499 422 486 c 0
 424 463 407 438 400 416 c 0
 393 395 384 375 376 354 c 0xa0
270 77 m 0
 278 95 282 113 287 131 c 1
 282 119 276 106 272 93 c 0
 267 78 263 63 259 48 c 1
 262 58 266 68 270 77 c 0
121 356 m 2
 121 355 l 2
 121 354 120 353 120 353 c 1
 121 353 121 354 121 354 c 1
 129 371 143 387 145 407 c 1
 142 399 133 388 130 381 c 0
 126 373 123 365 121 356 c 2
200 378 m 1
 208 397 214 409 214 409 c 1
 214 409 208 395 200 378 c 1
158 284 m 1
 156 281 l 2
 154 277 152 273 151 269 c 1
 156 280 l 1
 158 284 l 1
EndSplineSet
Validated: 37
EndChar

StartChar: five
Encoding: 53 53 60
Width: 359
Flags: MW
HStem: -101 49 216 35
VStem: 0 78 246 93 382 14
LayerCount: 2
Fore
SplineSet
398 469 m 1
 406 468 386 443 382 449 c 0
 382 451 383 452 383 453 c 1
 369 443 351 437 333 432 c 1
 347 435 359 438 359 438 c 2
 360 435 227 409 214 406 c 0
 197 402 203 405 197 392 c 0
 192 382 190 367 187 356 c 0
 181 339 171 321 167 305 c 1
 168 308 169 309 172 310 c 0
 179 306 158 256 155 248 c 1
 174 252 194 251 213 254 c 0
 225 256 233 262 249 262 c 0
 264 263 282 261 297 256 c 0
 327 245 341 214 339 183 c 0
 337 162 326 144 323 123 c 0
 320 105 316 88 308 69 c 0
 288 27 263 -14 227 -46 c 0
 201 -69 181 -86 145 -95 c 0
 104 -104 49 -105 16 -76 c 0
 -9 -54 1 -22 9 6 c 0
 16 25 39 76 69 68 c 0
 89 63 71 34 69 22 c 0
 64 -7 64 -52 103 -52 c 0
 137 -52 163 -6 179 19 c 0
 193 41 287 222 224 216 c 0
 190 213 160 190 128 180 c 0
 114 176 98 177 89 191 c 0
 84 201 88 208 90 218 c 2
 110 333 l 2
 114 353 123 367 130 384 c 0
 131 387 136 411 135 398 c 1
 137 406 133 408 136 421 c 0
 139 433 146 444 149 456 c 0
 152 471 153 485 165 497 c 0
 167 499 168 502 171 503 c 0
 175 506 179 506 183 508 c 0
 191 509 185 507 185 505 c 1
 199 509 l 1
 198 509 198 510 197 511 c 0
 195 518 309 522 321 517 c 0
 328 515 326 511 333 509 c 0
 339 507 352 509 359 506 c 0
 369 504 410 489 399 471 c 0
 396 468 396 469 396 469 c 1
 396 469 396 468 395 466 c 1
 398 469 l 1
282 89 m 0
 272 69 264 48 255 28 c 1
 277 63 297 99 308 138 c 1
 303 121 290 104 282 89 c 0
260 418 m 1
 241 414 l 1
 247 415 254 416 260 418 c 1
260 418 m 1
 263 418 267 419 270 420 c 1
 260 418 l 1
300 425 m 1
 298 425 296 424 295 424 c 1
 296 424 297 424 300 425 c 1
EndSplineSet
Validated: 37
EndChar

StartChar: six
Encoding: 54 54 61
Width: 355
Flags: MW
HStem: -90 45 234 40
VStem: 18 87 268 85
LayerCount: 2
Fore
SplineSet
350 189 m 0
 364 119 326 63 302 3 c 0
 279 -56 198 -97 137 -90 c 0
 81 -84 36 -41 22 13 c 0
 10 58 29 108 47 149 c 0
 64 189 80 232 95 274 c 1
 77 233 l 2
 58 193 49 182 33 141 c 1
 51 221 74 267 104 343 c 0
 116 375 133 405 145 436 c 0
 154 457 159 485 177 501 c 0
 201 523 248 518 258 483 c 0
 262 470 257 461 252 449 c 0
 219 372 183 296 156 218 c 1
 169 230 186 237 199 248 c 0
 208 257 212 264 227 269 c 0
 240 274 254 276 268 274 c 0
 314 267 341 232 350 189 c 0
255 153 m 1
 255 151 l 1
 258 161 l 2
 258 162 258 163 259 164 c 2
 259 164 259 165 260 166 c 2
 260 167 l 1
 267 187 274 218 263 229 c 0
 249 243 220 224 208 216 c 0
 182 198 160 173 141 147 c 0
 124 123 118 88 111 58 c 0
 106 34 88 -76 145 -37 c 0
 173 -17 194 21 210 51 c 0
 227 82 242 115 254 149 c 2
 254 149 254 150 255 153 c 1
255 153 m 1
 258 161 l 1
 258 161 258 163 259 164 c 1
 255 153 l 1
259 164 m 1
 259 165 259 165 260 166 c 2
 260 167 l 1
 260 167 259 166 259 164 c 1
EndSplineSet
Validated: 37
EndChar

StartChar: eight
Encoding: 56 56 62
Width: 416
Flags: MW
HStem: -94 42
VStem: 0 21 177 45 268 67
LayerCount: 2
Fore
SplineSet
474 431 m 2
 474 430 l 2
 475 393 449 365 425 341 c 0
 415 331 413 320 404 309 c 0
 389 291 369 276 351 262 c 0
 332 246 313 231 294 217 c 0
 277 204 277 205 287 186 c 2
 297 169 l 2
 313 139 332 107 335 73 c 0
 349 -71 179 -122 68 -80 c 0
 -9 -51 -16 30 23 94 c 0
 42 126 69 153 96 178 c 0
 112 192 129 205 146 218 c 0
 152 222 158 226 164 231 c 0
 177 240 180 237 177 251 c 0
 168 293 130 332 139 378 c 0
 150 440 252 464 303 468 c 0
 362 474 340 447 302 427 c 0
 275 412 249 399 231 372 c 0
 213 345 226 314 237 286 c 1
 278 319 318 355 348 399 c 0
 357 411 367 425 372 439 c 0
 381 462 363 478 369 500 c 0
 379 543 444 500 460 475 c 0
 468 462 474 447 474 431 c 2
158 -52 m 0
 213 -55 266 -12 268 45 c 0
 270 87 244 129 226 165 c 1
 192 136 155 108 126 75 c 0
 111 58 93 36 97 13 c 1
 92 -22 125 -51 158 -52 c 0
62 93 m 0
 65 95 65 97 64 98 c 1
 54 86 44 75 36 63 c 0
 27 50 19 39 21 23 c 0
 21 18 23 10 25 5 c 1
 25 6 33 -3 33 0 c 0
 34 4 26 16 25 21 c 0
 25 34 30 44 36 54 c 0
 44 66 58 79 62 93 c 0
EndSplineSet
Validated: 33
EndChar

StartChar: nine
Encoding: 57 57 63
Width: 352
Flags: MW
HStem: -95 605
VStem: 38 84 289 83
LayerCount: 2
Fore
SplineSet
372 386 m 0
 373 364 368 343 363 322 c 0
 353 277 341 233 327 189 c 0
 301 109 264 34 234 -44 c 0
 223 -72 207 -100 172 -95 c 0
 161 -93 151 -88 143 -81 c 0
 133 -71 136 -69 139 -57 c 0
 143 -37 155 -18 163 1 c 0
 185 56 215 107 235 163 c 1
 223 132 202 101 189 70 c 0
 169 25 150 -19 132 -64 c 1
 124 -37 152 2 161 24 c 0
 185 83 213 142 235 202 c 1
 220 189 203 179 191 167 c 0
 178 155 162 148 144 146 c 0
 136 145 128 145 120 146 c 0
 54 157 31 225 38 285 c 0
 43 321 59 355 75 387 c 0
 84 403 87 418 98 434 c 0
 137 489 213 526 280 504 c 0
 329 488 367 438 372 386 c 0
283 383 m 0
 287 402 299 454 272 463 c 0
 253 470 235 448 225 436 c 0
 179 383 145 310 128 243 c 0
 124 226 113 193 136 187 c 0
 156 182 181 202 195 213 c 0
 218 232 247 260 259 287 c 0
 272 316 278 352 283 383 c 0
244 185 m 0
 248 190 248 193 245 193 c 0
 242 189 241 186 244 185 c 0
EndSplineSet
Validated: 33
EndChar

StartChar: seven
Encoding: 55 55 64
Width: 348
Flags: MW
HStem: 440 52
VStem: 13 15
LayerCount: 2
Fore
SplineSet
398 456 m 0
 400 436 388 415 381 399 c 0
 370 374 351 351 335 328 c 0
 319 305 306 279 291 254 c 0
 280 237 267 220 259 202 c 0
 224 123 173 47 128 -28 c 0
 110 -58 82 -94 43 -69 c 0
 26 -58 10 -35 13 -14 c 0
 15 -5 23 4 26 11 c 2
 61 78 l 2
 83 119 110 156 131 198 c 0
 174 285 237 361 291 441 c 1
 236 438 180 437 125 440 c 0
 104 441 80 440 61 447 c 0
 38 455 52 473 70 481 c 0
 98 493 134 493 164 493 c 0
 177 493 191 491 201 494 c 0
 214 496 226 499 241 499 c 0
 276 500 310 496 345 497 c 0
 373 498 394 486 398 456 c 0
142 177 m 2
 165 212 188 248 210 284 c 1
 191 254 171 225 151 197 c 0
 125 161 99 125 76 86 c 0
 60 58 41 27 28 -3 c 1
 41 24 60 50 76 76 c 2
 142 177 l 2
EndSplineSet
Validated: 33
EndChar

StartChar: at
Encoding: 64 64 65
Width: 686
Flags: MW
HStem: -67 30 -1 20 -1 28 10 66 338 51 430 26
VStem: 0 81 147 9 370 34<238 267> 548 69
LayerCount: 2
Fore
SplineSet
320 456 m 0xaf40
 451 465 607 406 617 257 c 0
 619 194 589 131 552 81 c 0
 522 40 475 -4 420 -1 c 1
 420 -2 406 -2 404 -1 c 0
 389 3 378 13 371 26 c 0
 365 36 352 80 359 95 c 1
 356 86 362 70 364 62 c 1x20c0
 354 121 380 182 405 236 c 1
 392 216 l 1
 404 238 l 1
 373 192 344 145 311 100 c 0
 292 75 272 41 243 22 c 1
 242 21 l 1
 243 22 l 1
 210 2 171 2 155 53 c 0x1180
 137 105 152 165 170 215 c 0
 191 276 226 343 283 377 c 0
 352 417 388 347 404 290 c 1
 420 311 441 339 471 337 c 0
 497 335 516 313 512 286 c 0
 509 270 498 255 490 240 c 0
 481 222 471 203 463 185 c 0
 447 150 433 114 424 77 c 0
 420 63 406 24 433 27 c 0
 452 30 468 60 478 74 c 0x2940
 511 123 540 180 548 239 c 0
 561 339 496 426 393 430 c 0
 279 433 182 354 128 259 c 0
 97 204 73 139 81 75 c 0
 87 26 114 -25 167 -36 c 0
 171 -38 182 -35 191 -35 c 1
 185 -35 180 -38 174 -37 c 1
 188 -39 205 -39 219 -36 c 2
 220 -36 l 1
 248 -26 275 -19 298 1 c 0
 309 12 337 37 328 0 c 0xc640
 318 -41 249 -57 214 -64 c 0
 143 -77 72 -45 32 15 c 0
 0 62 -5 114 3 165 c 1
 3 166 l 2
 5 181 9 197 13 212 c 1
 9 212 63 319 74 332 c 0
 133 408 225 450 320 456 c 0xaf40
347 213 m 1
 347 214 348 214 348 215 c 2
 349 216 l 2
 359 230 370 241 370 261 c 0
 370 273 367 286 365 297 c 0
 362 311 357 338 340 338 c 0
 314 337 291 282 282 264 c 0
 261 222 244 178 233 132 c 0
 230 119 225 101 227 88 c 0
 229 81 231 78 234 77 c 0
 235 77 235 77 236 76 c 0
 240 77 244 79 249 82 c 2
 258 92 l 2
 273 108 288 132 294 140 c 0x1880
 312 164 329 188 346 213 c 1
 347 213 l 1
368 180 m 1x0980
 354 159 340 136 324 115 c 1
 339 137 353 159 368 180 c 1x0980
313 98 m 1
 313 99 314 100 314 100 c 2
 317 105 320 110 324 115 c 1
 324 114 321 109 313 98 c 1
404 235 m 1
 407 239 409 243 411 248 c 1
 409 244 406 240 404 235 c 1
261 35 m 1
 247 24 l 1
 252 27 256 30 261 35 c 1
285 61 m 1
 287 63 l 2
 290 66 292 69 294 73 c 1
 285 61 l 1
157 160 m 0
 158 164 158 166 156 158 c 1
 157 159 157 159 157 160 c 0
282 56 m 1
 287 63 l 1
 287 62 285 59 282 56 c 1
298 77 m 1
 294 73 l 1
 295 74 297 75 298 77 c 1
216 -36 m 1
 215 -36 214 -36 213 -35 c 1
 214 -35 215 -36 216 -36 c 1
15 217 m 1
 14 216 14 215 14 214 c 1
 14 215 14 216 15 217 c 1
EndSplineSet
Validated: 37
EndChar

StartChar: bar
Encoding: 124 124 66
Width: 372
Flags: MW
HStem: -402 1270
VStem: 75 271 339 7
LayerCount: 2
Fore
SplineSet
346 849 m 2xa0
 346 842 347 807 343 806 c 1
 343 806 342 811 342 816 c 1
 341 791 338 766 335 742 c 1
 336 743 l 1
 336 743 335 741 335 739 c 0
 331 706 326 673 320 640 c 0
 316 606 311 575 310 569 c 2
 280 394 l 2
 260 284 232 173 209 67 c 1
 211 72 214 79 214 79 c 1
 221 68 202 18 200 6 c 2
 183 -66 l 2
 171 -116 158 -166 144 -216 c 0
 131 -259 116 -301 101 -343 c 0
 96 -357 92 -395 78 -402 c 0
 70 -406 80 -356 80 -353 c 0
 89 -303 98 -252 105 -201 c 0
 113 -156 121 -111 131 -67 c 0
 134 -53 139 -40 142 -27 c 0
 144 -19 144 14 150 21 c 1
 149 19 149 10 149 8 c 1
 150 13 150 19 152 24 c 1
 150 22 151 33 151 35 c 2
 154 53 l 1
 163 97 l 2
 168 121 174 145 177 170 c 0
 181 199 186 227 193 255 c 0
 194 259 204 318 209 318 c 1
 208 307 l 1
 211 319 212 332 215 344 c 1
 214 343 213 341 213 340 c 0
 214 339 266 614 273 640 c 0
 277 655 283 664 285 679 c 0
 289 706 296 732 302 759 c 0
 308 786 314 813 322 839 c 0
 323 844 335 875 340 864 c 1
 339 866 339 867 339 868 c 0
 340 870 345 851 346 850 c 2
 346 849 l 2xa0
295 495 m 1
 286 446 l 1
 294 491 l 2
 294 492 295 493 295 495 c 1
295 494 m 1
 295 497 l 1
 295 495 l 1
 295 494 l 1
301 526 m 1
 300 522 299 519 299 516 c 1
 301 526 l 1
337 744 m 1
 336 744 336 743 336 743 c 1
 336 743 336 744 337 744 c 1
EndSplineSet
Validated: 37
EndChar

StartChar: backslash
Encoding: 92 92 67
Width: 470
Flags: MW
HStem: -224 915
VStem: 0 24
LayerCount: 2
Fore
SplineSet
417 -206 m 2
 419 -222 417 -230 404 -220 c 0
 394 -212 387 -193 381 -182 c 0
 370 -164 360 -145 350 -127 c 0
 330 -89 309 -51 292 -12 c 0
 285 3 281 18 275 32 c 0
 274 36 257 63 258 67 c 1
 259 66 260 65 260 64 c 1
 257 70 l 1
 257 68 248 83 247 86 c 2
 232 118 l 2
 224 136 217 154 207 171 c 0
 202 181 152 274 160 280 c 0
 161 281 164 273 165 273 c 1
 152 301 l 1
 153 299 153 297 154 296 c 1
 152 295 59 507 53 528 c 0
 46 556 29 588 17 617 c 0
 14 624 -10 687 4 689 c 1
 3 690 1 690 1 690 c 2
 0 692 14 689 16 687 c 0
 20 685 40 663 37 660 c 1
 37 660 24 676 24 675 c 0
 39 657 53 638 65 618 c 1
 65 619 l 1
 65 619 66 618 67 615 c 0
 79 595 90 575 101 554 c 0
 116 527 130 500 133 496 c 0
 155 451 177 406 200 361 c 0
 236 289 264 211 295 138 c 1
 295 140 294 141 294 143 c 1
 297 135 311 112 313 106 c 0
 321 89 328 71 335 54 c 0
 347 23 360 -7 371 -38 c 0
 390 -91 411 -149 417 -205 c 1
 417 -206 l 2
157 441 m 1
 162 431 l 1
 157 441 l 1
156 445 m 1
 155 445 154 446 154 446 c 1
 155 446 155 445 155 445 c 1
 156 445 l 1
156 445 m 1
 156 444 156 443 157 442 c 1
 156 443 156 444 156 445 c 1
EndSplineSet
Validated: 37
EndChar

StartChar: percent
Encoding: 37 37 68
Width: 523
Flags: MW
HStem: -29 14 135 32 432 32
VStem: 72 22 222 23 299 70 448 23
LayerCount: 2
Fore
SplineSet
411 364 m 0
 378 321 336 279 308 234 c 0
 281 192 243 154 211 116 c 0
 188 89 169 61 146 34 c 0
 136 22 65 -70 51 -59 c 0
 40 -49 99 38 104 46 c 0
 167 136 234 224 306 307 c 0
 345 353 383 399 425 441 c 0
 429 446 488 506 493 489 c 0
 499 470 464 435 454 423 c 0
 447 414 435 405 430 396 c 0
 424 386 419 375 411 364 c 0
399 167 m 0
 422 165 468 157 471 126 c 0
 476 80 460 25 426 -7 c 0
 412 -20 398 -23 381 -29 c 0
 380 -29 370 -33 370 -33 c 2
 352 -36 343 -27 329 -18 c 0
 321 -13 313 -13 307 0 c 0
 302 9 300 22 299 32 c 0
 298 55 300 74 308 95 c 0
 319 124 329 150 361 162 c 1
 350 141 331 124 323 100 c 1
 329 115 347 133 355 147 c 0
 356 149 360 160 362 162 c 0
 370 169 390 168 399 167 c 0
75 352 m 1
 63 355 93 415 98 424 c 0
 107 443 118 454 142 461 c 0
 176 471 244 461 245 415 c 0
 246 381 240 350 223 320 c 0
 204 288 182 275 147 268 c 0
 143 267 141 262 133 263 c 0
 128 263 122 265 118 268 c 0
 113 270 109 273 105 276 c 0
 101 278 98 277 94 280 c 0
 82 289 81 295 83 307 c 0
 87 323 94 339 94 357 c 1
 93 339 81 316 80 299 c 1
 72 316 73 334 75 352 c 1
448 90 m 2
 448 91 l 2
 449 106 443 140 421 135 c 0
 420 135 412 128 409 126 c 0
 401 120 400 118 398 115 c 0
 390 103 381 84 377 69 c 0
 376 65 375 56 373 49 c 0
 371 42 369 33 369 26 c 0
 369 8 367 -29 397 -11 c 0
 408 -3 427 24 433 36 c 0
 440 51 446 74 448 90 c 2
143 322 m 1
 143 314 144 286 150 282 c 0
 157 278 168 286 173 290 c 0
 202 312 226 365 222 401 c 0
 220 414 211 436 193 432 c 1
 195 432 175 418 175 418 c 2
 169 412 175 414 172 409 c 0
 162 394 157 379 153 364 c 0
 151 355 148 327 143 322 c 1
EndSplineSet
Validated: 33
EndChar

StartChar: bracketright
Encoding: 93 93 69
Width: 417
Flags: MW
HStem: -140 29 584 69
VStem: -29 436
LayerCount: 2
Fore
SplineSet
407 624 m 0
 409 580 394 530 382 488 c 0
 376 465 369 443 361 421 c 0
 358 415 355 380 349 376 c 1
 349 377 351 389 351 389 c 1
 346 372 l 1
 348 375 345 354 344 351 c 0
 341 338 337 325 333 313 c 0
 327 292 320 271 316 250 c 0
 310 224 303 199 295 174 c 0
 294 171 280 123 276 123 c 1
 278 133 l 1
 274 122 271 112 268 101 c 1
 270 104 l 1
 262 86 215 -115 184 -131 c 0
 167 -140 146 -138 127 -140 c 0
 100 -143 71 -141 44 -139 c 0
 28 -138 -12 -138 -24 -125 c 0
 -35 -115 -26 -116 -17 -114 c 1
 -21 -114 l 1
 -14 -112 28 -99 31 -106 c 1
 31 -106 8 -110 9 -110 c 0
 30 -107 51 -106 72 -105 c 0
 81 -104 106 -108 114 -103 c 2
 116 -101 l 1
 115 -101 115 -102 114 -103 c 1
 114 -101 86 -104 85 -102 c 0
 85 -101 113 -102 114 -101 c 0
 120 -97 123 -67 125 -60 c 2
 149 20 l 1
 192 169 l 2
 217 260 251 351 278 440 c 1
 277 437 276 435 274 433 c 1
 277 439 281 463 282 467 c 2
 293 503 l 1
 318 584 l 1
 278 587 228 592 192 611 c 0
 150 633 232 639 247 642 c 0
 272 646 406 674 407 624 c 0
183 -47 m 2
 215 47 l 2
 224 76 231 107 239 138 c 1
 230 107 221 76 207 47 c 0
 195 20 185 -10 178 -39 c 0
 174 -54 172 -69 169 -83 c 1
 174 -71 179 -59 183 -47 c 2
126 -70 m 1
 122 -83 119 -94 117 -98 c 1
 121 -92 124 -79 126 -70 c 1
168 78 m 2
 162 58 l 1
 164 66 167 74 169 83 c 1
 169 81 168 79 168 78 c 2
173 97 m 1
 173 95 172 94 172 92 c 1
 172 94 173 95 173 97 c 1
271 105 m 1
 270 105 270 104 270 104 c 1
 271 105 l 1
EndSplineSet
Validated: 37
EndChar

StartChar: slash
Encoding: 47 47 70
Width: 522
Flags: MW
HStem: -202 787
VStem: -52 14 165 11
LayerCount: 2
Fore
SplineSet
576 585 m 0
 582 585 559 541 556 537 c 0
 539 509 518 484 497 459 c 1
 497 459 498 459 498 460 c 1
 481 439 467 413 450 391 c 0
 413 343 375 297 337 251 c 0
 283 185 233 116 177 51 c 0
 177 50 176 49 176 49 c 1
 164 35 l 2
 128 -7 90 -59 52 -103 c 0
 34 -124 16 -146 -3 -167 c 0
 -10 -175 -32 -205 -45 -202 c 0
 -62 -197 -43 -169 -39 -161 c 1
 -40 -163 -38 -158 -38 -159 c 2
 -38 -160 l 1
 -38 -159 l 1
 -38 -160 -39 -161 -40 -165 c 1
 -37 -160 -37 -158 -37 -158 c 1
 -33 -150 l 1
 -39 -137 -4 -95 3 -84 c 0
 31 -40 62 3 92 45 c 0
 138 108 187 170 236 231 c 0
 299 312 367 390 437 466 c 0
 463 495 490 524 519 551 c 0
 536 567 552 582 576 585 c 0
-33 -150 m 1
 -19 -125 l 1
 -22 -129 -34 -145 -33 -150 c 1
496 457 m 1
 496 457 497 458 497 459 c 1
 497 458 496 457 496 457 c 1
-37 -158 m 1
 -38 -159 l 1
 -38 -159 -37 -159 -37 -158 c 1
165 36 m 1
 164 35 l 1
 165 35 165 36 165 36 c 1
EndSplineSet
Validated: 37
EndChar

StartChar: numbersign
Encoding: 35 35 71
Width: 537
Flags: MW
HStem: 169 57 173 56<201 305> 190 18 285 59<173 173> 294 56<306 312 308.5 320 308.5 324> 304 32
VStem: 46 465 77 7
LayerCount: 2
Fore
SplineSet
78 327 m 1x91
 81 342 97 339 109 339 c 1
 99 340 85 343 78 334 c 1
 81 340 86 341 95 342 c 0
 120 344 147 343 173 344 c 0
 198 345 212 346 222 370 c 0
 232 395 245 417 260 439 c 0x51
 271 454 327 516 341 475 c 0
 347 458 328 438 320 425 c 0
 304 399 292 371 275 346 c 1
 277 346 279 346 281 345 c 1
 282 347 289 349 290 349 c 0
 296 351 305 350 312 350 c 2
 351 347 l 2
 368 346 374 346 384 362 c 0
 396 384 406 408 420 430 c 0x4a
 431 448 446 469 465 480 c 0
 480 488 505 491 506 469 c 0
 508 449 485 423 475 407 c 0
 461 384 449 359 433 336 c 1
 447 334 499 337 510 322 c 0
 517 313 479 306 475 306 c 0
 464 304 455 304 445 304 c 0
 441 304 418 302 424 304 c 1
 409 301 403 282 396 271 c 2
 365 224 l 1
 401 221 442 219 476 208 c 0
 483 206 491 206 479 196 c 0
 470 188 452 190 441 190 c 0
 423 189 406 184 388 183 c 0
 376 182 365 184 353 183 c 0
 326 182 318 160 305 139 c 0x26
 288 111 266 86 245 60 c 0
 238 52 211 8 211 42 c 0
 211 59 229 78 237 92 c 0
 253 119 264 148 279 175 c 1
 253 174 227 173 201 173 c 0
 182 174 168 175 155 160 c 0x46
 127 128 105 91 78 59 c 0
 76 56 56 26 53 27 c 0
 38 30 51 58 55 65 c 0
 65 83 77 97 84 115 c 0
 91 135 99 152 110 169 c 1
 92 170 69 174 57 189 c 0
 43 206 51 222 71 226 c 0
 92 230 127 217 144 232 c 0
 150 237 151 246 154 252 c 0
 159 264 167 274 173 285 c 1
 155 284 138 286 122 289 c 1
 123 288 118 286 115 287 c 0
 111 289 106 291 103 294 c 1
 104 294 l 1
 97 298 89 303 84 309 c 1
 84 307 l 2
 84 306 83 309 81 312 c 0
 80 315 78 318 78 322 c 0
 77 324 77 326 77 327 c 2
 77 331 l 1
 77 330 78 328 78 327 c 1x91
317 249 m 0x4a
 324 264 333 278 343 291 c 1
 337 291 330 292 324 294 c 2
 320 294 l 2
 319 294 317 294 319 295 c 1
 316 294 308 294 306 294 c 0
 302 293 291 291 288 291 c 0
 277 290 264 291 253 288 c 0
 226 282 216 249 202 228 c 1
 221 228 240 229 259 229 c 0
 271 229 294 224 305 229 c 0
 314 234 314 239 317 249 c 0x4a
126 339 m 0x52
 129 339 132 340 136 340 c 2
 137 340 l 2
 138 340 117 339 126 339 c 0x52
153 341 m 1
 149 341 145 340 141 340 c 1
 145 340 149 340 153 341 c 1
77 331 m 1
 77 332 78 332 78 333 c 1
 77 332 77 332 77 331 c 1
EndSplineSet
Validated: 37
EndChar

StartChar: underscore
Encoding: 95 95 72
Width: 762
Flags: MW
HStem: -121 43<17 97> -117 42<205 364 346 364 309 368 346 346> -112 33 -104 12<753.5 756>
VStem: 766 7<-102 -97>
LayerCount: 2
Fore
SplineSet
773 -97 m 2x18
 773 -98 772 -98 772 -98 c 2
 772 -99 771 -99 771 -99 c 2
 771 -100 771 -100 770 -100 c 0
 769 -101 768 -101 768 -101 c 2
 767 -102 766 -102 766 -102 c 2
 765 -102 764 -102 762 -103 c 0
 760 -103 758 -103 756 -104 c 0
 751 -104 747 -105 743 -105 c 0
 734 -106 725 -106 717 -106 c 0
 706 -106 696 -107 687 -107 c 0x18
 678 -106 669 -106 659 -106 c 0
 656 -106 655 -105 655 -105 c 1
 646 -105 l 1
 646 -107 643 -110 631 -110 c 2
 573 -112 l 2
 558 -112 545 -111 529 -111 c 0
 516 -112 495 -113 483 -113 c 0
 475 -112 466 -113 458 -113 c 0
 455 -113 451 -112 447 -112 c 0x28
 438 -112 429 -113 419 -113 c 1
 419 -114 416 -115 410 -116 c 0
 396 -117 383 -117 368 -117 c 2
 346 -117 l 2
 340 -116 335 -115 329 -115 c 0
 313 -116 299 -117 283 -117 c 2
 205 -117 l 1x48
 207 -119 179 -121 172 -121 c 2
 97 -121 l 2
 84 -121 70 -121 56 -120 c 0
 42 -120 28 -119 15 -117 c 0
 9 -116 2 -115 -4 -113 c 0x88
 -11 -112 -18 -110 -24 -107 c 0
 -27 -106 -30 -104 -33 -102 c 0
 -36 -100 -39 -98 -41 -95 c 0
 -41 -94 -42 -93 -42 -92 c 2
 -42 -89 l 1
 -39 -84 l 2
 -36 -82 -33 -82 -30 -81 c 0
 -28 -81 -27 -81 -27 -82 c 1
 -25 -81 -22 -81 -19 -81 c 2
 -18 -81 l 2
 -10 -81 -5 -81 1 -80 c 0
 6 -80 11 -79 17 -78 c 2
 50 -78 l 2
 73 -78 97 -77 121 -77 c 0x28
 144 -76 167 -75 190 -76 c 0x48
 201 -76 211 -77 222 -77 c 0
 230 -77 237 -78 244 -78 c 2
 260 -78 l 2x28
 276 -77 292 -75 309 -75 c 2
 364 -75 l 1x48
 418 -77 l 2
 434 -77 450 -77 466 -78 c 0
 472 -78 479 -79 485 -79 c 0x28
 573 -81 661 -84 740 -91 c 0
 744 -91 747 -91 750 -92 c 2
 757 -92 l 1
 757 -91 757 -90 759 -90 c 0
 760 -89 762 -89 763 -89 c 2
 767 -89 l 2
 768 -89 768 -89 769 -90 c 2
 771 -90 l 1
 771 -91 771 -91 772 -91 c 1
 772 -92 773 -92 773 -92 c 1
 773 -97 l 2x18
EndSplineSet
Validated: 33
EndChar

StartChar: bracketleft
Encoding: 91 91 73
Width: 355
Flags: MW
HStem: -141 68 592 20<285 292> 616 32
VStem: 1 437
LayerCount: 2
Fore
SplineSet
282 581 m 1
 285 592 l 1
 283 583 282 572 281 567 c 0x50
 267 511 249 456 233 401 c 0
 200 289 163 179 128 68 c 1
 129 71 131 75 134 78 c 1
 126 61 124 39 119 21 c 0
 110 -10 100 -42 90 -73 c 1
 105 -74 246 -94 226 -118 c 0
 221 -124 208 -124 201 -125 c 2
 147 -135 l 2
 117 -139 86 -144 56 -141 c 0
 32 -140 4 -134 1 -105 c 0
 -3 -77 9 -48 15 -20 c 0
 23 15 32 50 45 84 c 0
 48 93 52 128 58 134 c 1
 57 132 57 125 57 122 c 1
 59 127 59 133 61 140 c 2
 61 140 63 153 63 156 c 0
 66 169 70 181 74 194 c 0
 82 223 90 251 97 281 c 0
 98 286 122 388 132 388 c 1
 132 388 130 379 130 378 c 1
 137 399 l 2
 139 406 145 416 137 406 c 1
 137 406 190 580 195 594 c 0
 199 605 202 619 209 629 c 0
 223 650 249 647 272 649 c 0
 311 652 349 652 388 647 c 0
 401 645 433 646 438 631 c 0
 440 626 429 626 427 625 c 1
 433 625 411 621 407 620 c 0
 403 619 380 612 377 617 c 1
 377 617 385 619 392 620 c 1
 371 617 349 616 328 616 c 0xb0
 316 616 304 619 293 613 c 2
 292 612 l 1
 295 614 322 615 323 613 c 1
 323 614 295 613 293 611 c 0
 291 610 290 608 289 606 c 1
 290 608 291 610 291 611 c 1
 287 604 284 591 282 581 c 1
218 568 m 0
 219 572 220 576 222 580 c 1
 205 543 188 506 178 467 c 2
 155 385 l 1
 158 395 162 404 166 414 c 0
 187 464 205 515 218 568 c 0
240 433 m 2
 240 435 l 1
 238 426 235 418 233 410 c 1
 235 417 237 425 240 433 c 2
123 276 m 1
 130 302 l 1
 123 276 l 1
246 453 m 1
 242 442 l 1
 246 453 l 1
289 606 m 1
 287 602 286 598 285 592 c 1
 286 598 288 603 289 606 c 1
239 617 m 1
 234 606 l 1
 236 609 237 613 239 617 c 1
234 606 m 1
 231 601 l 1
 234 606 l 1
230 401 m 1
 233 410 l 1
 230 401 l 1
128 66 m 1
 128 68 l 1
 128 66 l 1
EndSplineSet
Validated: 37
EndChar

StartChar: cent
Encoding: 162 162 74
Width: 316
Flags: MW
HStem: -7 28<150 157.5> 376 36
VStem: 28 71 93 31 290 39
LayerCount: 2
Fore
SplineSet
329 377 m 2xe8
 329 374 l 1xe8
 333 345 320 305 303 283 c 0
 293 270 277 266 281 289 c 0
 285 311 293 333 290 357 c 0
 288 369 273 383 259 372 c 0
 251 366 247 337 243 327 c 0
 238 314 232 301 228 287 c 0
 219 258 212 230 202 201 c 0
 180 141 160 81 137 22 c 1
 141 21 146 20 151 21 c 1
 150 21 l 1
 160 23 180 35 181 35 c 0
 199 50 212 73 224 92 c 0
 232 105 237 123 246 135 c 0
 257 149 270 144 271 124 c 0
 271 108 260 95 254 82 c 0
 247 64 240 47 227 31 c 0
 216 17 202 4 185 -3 c 0
 175 -7 166 -6 157 -7 c 1
 158 -7 159 -8 160 -8 c 0
 161 -11 136 -13 138 -13 c 1
 120 -13 122 -15 115 -31 c 0
 112 -37 105 -61 101 -64 c 0
 83 -80 101 -18 104 -8 c 1
 86 -5 71 2 60 13 c 1
 68 4 76 -3 76 -2 c 1xd8
 74 -7 44 29 42 32 c 0
 32 51 29 72 28 92 c 0
 27 133 35 176 47 215 c 0
 71 296 115 358 190 390 c 1
 185 390 l 2
 183 391 217 404 217 404 c 2
 227 412 230 435 234 449 c 0
 239 464 244 483 257 494 c 0
 264 501 285 512 292 498 c 0
 295 493 291 488 290 483 c 0
 284 459 278 436 270 412 c 1
 296 413 323 408 329 378 c 1
 328 379 328 379 329 377 c 2xe8
202 333 m 0
 204 337 205 342 206 346 c 1
 183 336 163 297 151 277 c 0
 144 266 136 255 130 244 c 0
 129 242 121 213 118 212 c 1
 118 215 l 1
 115 208 l 1
 119 216 115 201 115 200 c 0
 114 192 110 184 108 176 c 0
 103 160 99 143 99 127 c 0
 98 100 101 63 116 40 c 1
 128 92 152 143 161 195 c 0
 166 219 175 242 182 266 c 0
 188 286 191 315 202 333 c 0
85 274 m 0
 79 264 77 254 74 242 c 1
 78 249 83 256 86 260 c 0
 86 261 87 261 87 261 c 1
 87 262 l 1x90
 113 300 137 338 175 363 c 1
 150 347 130 328 109 307 c 0
 100 297 91 286 85 274 c 0
41 37 m 1
 52 23 l 1
 37 43 31 67 30 93 c 1
 30 74 33 54 41 37 c 1
124 -11 m 1
 126 -11 l 2
 127 -10 128 -10 130 -10 c 1
 127 -10 124 -10 124 -11 c 1
155 22 m 1
 154 22 152 21 151 21 c 1
 152 21 153 21 155 22 c 1
73 240 m 1
 73 240 73 241 74 242 c 1
 74 242 73 241 73 240 c 1
EndSplineSet
Validated: 37
EndChar

StartChar: braceright
Encoding: 125 125 75
Width: 394
Flags: MW
HStem: -117 28<20 20> 621 42<271 271>
VStem: 219 9 264 19 291 63
LayerCount: 2
Fore
SplineSet
296 313 m 0
 301 300 316 305 325 296 c 0
 346 275 313 249 294 242 c 0
 286 238 277 238 268 235 c 0
 257 232 251 227 243 218 c 0
 241 216 226 194 225 194 c 1
 228 202 l 1
 223 193 219 185 216 176 c 1
 216 177 217 178 218 179 c 1
 218 179 177 56 173 45 c 0
 165 24 158 2 147 -19 c 0
 138 -37 127 -48 115 -62 c 0
 92 -91 61 -119 20 -117 c 0
 12 -116 1 -117 0 -106 c 0
 -2 -92 15 -91 24 -89 c 1
 20 -89 l 1
 28 -86 54 -67 56 -64 c 1
 55 -67 44 -79 43 -80 c 1
 91 -44 99 41 113 97 c 1
 105 68 82 -23 78 -22 c 1
 80 -22 123 137 129 152 c 0
 149 206 185 261 248 267 c 1
 205 300 219 357 228 401 c 1
 227 397 224 391 223 392 c 0
 215 400 238 465 241 475 c 0
 250 506 260 537 264 570 c 0
 268 595 268 615 244 627 c 0
 237 630 227 629 224 637 c 0xf0
 214 661 258 663 270 663 c 0
 320 667 351 644 354 593 c 0
 357 543 344 490 329 443 c 0
 322 422 314 403 306 383 c 0x48
 304 379 301 348 297 345 c 0
 296 345 296 346 296 347 c 1
 296 345 295 343 295 341 c 1
 296 348 296 335 296 334 c 0
 296 328 294 319 296 313 c 0
271 621 m 1
 294 600 279 537 267 497 c 1
 277 526 288 554 291 585 c 0x48
 292 597 282 612 271 621 c 1
116 106 m 1
 113 97 l 1
 116 106 l 1
140 175 m 1
 136 167 l 1
 140 175 l 1
145 184 m 1
 142 179 l 1
 145 184 l 1
151 195 m 1
 147 189 l 1
 151 195 l 1
EndSplineSet
Validated: 37
EndChar

StartChar: dollar
Encoding: 36 36 76
Width: 304
Flags: MW
HStem: -69 574
VStem: 25 47 81 30 96 9 112 47 184 62 274 8 284 38<388 388>
LayerCount: 2
Fore
SplineSet
322 389 m 0x91
 326 359 284 315 262 298 c 0
 257 295 243 284 237 291 c 0
 235 295 239 299 243 303 c 1
 242 303 242 302 241 302 c 1
 242 302 263 342 265 341 c 0
 266 341 256 322 257 323 c 0
 268 342 282 365 284 388 c 0
 285 396 285 405 278 411 c 0
 275 414 262 418 260 414 c 1
 263 414 l 1
 262 413 261 413 260 413 c 0
 255 410 250 379 248 374 c 0
 245 362 241 350 237 339 c 0
 231 321 223 304 218 285 c 0
 214 273 212 261 208 249 c 0
 204 234 201 232 210 218 c 0
 255 153 261 96 209 37 c 1
 212 40 218 45 218 44 c 0
 223 29 167 -4 156 -9 c 0
 144 -14 130 -14 118 -18 c 0
 116 -19 112 -17 111 -18 c 0
 108 -20 104 -34 102 -38 c 0
 99 -44 91 -70 85 -69 c 0
 73 -66 89 -23 91 -17 c 1xa5
 43 -9 14 22 25 74 c 0
 29 90 58 158 85 151 c 0
 97 147 91 143 90 136 c 0
 87 118 75 99 72 80 c 0
 69 64 68 43 76 28 c 0
 79 23 84 17 90 15 c 0
 102 11 101 12 106 23 c 0
 110 32 104 28 105 35 c 0
 108 48 111 60 115 73 c 0
 120 91 127 109 132 128 c 0
 136 144 147 163 142 178 c 0xc0
 136 196 118 213 109 230 c 0
 99 249 95 270 96 291 c 0
 96 295 99 333 105 333 c 1
 105 333 103 325 104 325 c 0
 105 331 107 336 109 342 c 1x90
 102 304 101 259 128 227 c 1
 118 241 110 264 111 280 c 0
 111 294 114 307 114 321 c 0
 113 333 109 341 114 353 c 1
 114 352 113 352 113 352 c 1
 115 355 l 1
 114 354 l 1
 116 357 l 1
 121 366 l 2
 128 376 135 386 144 396 c 0
 160 413 180 428 201 438 c 0x88
 213 443 220 443 226 453 c 0
 230 460 231 470 234 477 c 0
 241 489 252 505 268 505 c 0
 289 504 280 488 277 475 c 0
 275 468 272 456 272 448 c 0
 272 433 271 440 288 431 c 0
 302 424 321 406 322 389 c 0x91
184 88 m 1x88
 184 89 l 2
 183 97 174 120 176 124 c 1x84
 181 113 l 1
 175 129 l 1
 178 118 166 140 168 136 c 0
 153 95 140 54 124 14 c 1
 138 17 151 24 160 35 c 0
 167 41 171 49 175 58 c 0
 178 66 178 82 184 88 c 1x88
209 399 m 2
 211 404 l 1
 151 381 151 325 175 275 c 1
 186 316 195 356 208 396 c 1
 208 395 l 1
 208 396 209 396 209 398 c 1
 209 397 208 396 208 396 c 1
 208 397 208 398 209 399 c 2
282 385 m 2x8a
 282 385 282 403 274 411 c 1
 277 410 279 408 281 405 c 0
 282 403 285 385 282 385 c 2x8a
263 414 m 1
 268 415 272 414 274 411 c 1
 271 413 267 414 263 414 c 1
114 354 m 1
 113 352 112 351 112 350 c 1
 114 354 l 1
112 350 m 1
 111 349 111 348 111 348 c 1
 112 350 l 1
EndSplineSet
Validated: 37
EndChar

StartChar: parenright
Encoding: 41 41 77
Width: 442
Flags: MW
HStem: -103 33
VStem: 0 368 276 91<492.5 493 487 499>
LayerCount: 2
Fore
SplineSet
367 487 m 1xa0
 369 453 367 419 360 385 c 0
 358 374 354 365 351 355 c 0
 350 352 349 322 345 320 c 1
 345 323 l 1
 343 317 l 1
 345 319 343 300 342 298 c 2
 332 261 l 2
 326 242 320 223 315 204 c 0
 313 196 283 112 274 114 c 0
 273 114 277 121 276 122 c 1
 272 113 268 104 263 96 c 1
 264 97 265 99 267 100 c 0
 272 98 206 -1 200 -8 c 0
 175 -38 150 -64 116 -79 c 0
 87 -92 59 -108 25 -103 c 0
 12 -101 -9 -91 4 -75 c 0
 12 -66 22 -72 32 -73 c 1
 31 -72 l 1
 37 -72 68 -55 69 -55 c 0
 70 -56 61 -62 56 -65 c 1
 105 -37 136 27 160 78 c 1
 145 49 106 -22 99 -22 c 1
 106 -20 157 77 161 86 c 0
 180 125 197 166 210 208 c 0
 234 279 261 360 272 433 c 1
 272 432 271 431 271 430 c 1
 271 430 273 457 273 461 c 0
 275 473 276 486 276 499 c 0
 278 526 279 556 271 583 c 0
 265 604 256 612 236 619 c 0
 226 622 211 625 220 640 c 0
 231 657 271 653 287 648 c 0
 302 644 316 637 327 625 c 0
 358 592 364 538 367 493 c 2
 367 490 l 2
 368 475 368 482 367 487 c 1xa0
198 166 m 1
 188 140 l 1
 198 166 l 1
177 116 m 1
 185 135 l 1
 177 116 l 1
185 135 m 1
 186 136 l 2
 186 137 187 139 188 140 c 1
 187 140 187 139 186 137 c 2
 185 135 l 1
187 138 m 1
 187 139 188 141 188 140 c 0
 187 139 187 139 187 138 c 1
EndSplineSet
Validated: 37
EndChar

StartChar: question
Encoding: 63 63 78
Width: 340
Flags: MW
HStem: -83 124 106 73 659 62
VStem: 14 120 85 7 352 94
LayerCount: 2
Fore
SplineSet
446 675 m 1xf4
 446 674 l 2xf4
 446 663 439 609 430 605 c 0
 429 606 430 607 430 608 c 1
 427 602 l 1
 429 606 423 586 422 585 c 0
 417 572 410 561 403 550 c 2
 373 499 l 2
 369 492 320 417 313 420 c 0
 312 420 317 427 316 427 c 0
 311 419 305 412 299 404 c 1
 303 407 l 1
 295 399 183 228 170 214 c 0
 151 192 137 158 122 131 c 0
 116 121 102 93 88 112 c 0
 82 120 87 131 89 140 c 1
 87 135 l 2
 86 135 89 179 95 179 c 0
 96 179 92 161 92 160 c 1
 97 185 105 210 115 234 c 1
 111 227 109 223 109 223 c 2
 108 223 162 331 167 341 c 0x4c
 190 381 215 420 238 459 c 0
 261 497 284 534 308 571 c 0
 317 585 363 644 349 658 c 1
 351 656 350 647 350 648 c 0
 340 656 347 663 323 656 c 0
 288 648 254 619 229 594 c 0
 217 582 189 529 170 556 c 0
 160 571 169 592 178 606 c 0
 216 661 286 704 351 718 c 0
 388 725 439 720 446 675 c 1xf4
130 10 m 1
 144 10 120 -27 118 -31 c 0
 111 -47 101 -52 87 -65 c 0
 75 -76 65 -89 46 -79 c 0
 39 -76 21 -60 17 -52 c 0
 3 -22 40 19 63 31 c 0
 81 40 100 45 120 37 c 0
 125 36 125 40 130 34 c 0
 136 26 130 17 130 10 c 1
214 372 m 0
 198 345 185 317 168 292 c 1
 185 316 197 341 214 365 c 0
 228 386 239 408 250 431 c 1
 238 410 224 391 214 372 c 0
212 413 m 1
 196 387 l 1
 212 413 l 1
252 433 m 1
 251 432 251 431 250 431 c 1
 251 431 251 432 252 433 c 1
190 376 m 1
 190 375 189 375 189 374 c 1
 189 375 190 375 190 376 c 1
EndSplineSet
Validated: 37
EndChar

StartChar: exclam
Encoding: 33 33 79
Width: 220
Flags: MW
HStem: -83 124
VStem: 36 120 113 42 229 110<665 679>
LayerCount: 2
Fore
SplineSet
339 679 m 2xd0
 338 668 336 659 333 649 c 0
 324 623 313 597 303 571 c 0
 284 521 268 470 251 419 c 0
 223 336 203 250 173 167 c 0
 167 152 144 69 119 95 c 0
 103 111 121 162 125 181 c 0
 131 206 140 230 146 255 c 0
 172 362 195 471 215 580 c 0xb0
 219 608 228 637 229 665 c 0
 229 681 227 694 242 707 c 0
 271 732 334 722 339 680 c 1
 339 679 l 2xd0
152 10 m 1
 166 10 142 -27 140 -31 c 0
 133 -47 123 -52 109 -65 c 0
 97 -76 87 -89 68 -79 c 0
 61 -76 43 -60 39 -52 c 0
 25 -22 62 19 85 31 c 0
 103 40 122 45 142 37 c 0
 147 36 147 40 152 34 c 0
 158 26 152 17 152 10 c 1
226 470 m 1
 222 450 217 430 211 411 c 0
 204 391 198 370 196 350 c 0
 194 331 189 320 185 304 c 1
 192 329 208 354 213 381 c 0
 219 411 224 439 226 469 c 2
 226 470 l 1
184 300 m 1
 184 301 184 302 185 304 c 1
 184 302 184 301 184 300 c 1
EndSplineSet
Validated: 37
EndChar

StartChar: parenleft
Encoding: 40 40 80
Width: 339
Flags: MW
HStem: -103 45 623 33
VStem: 0 53 54 36
LayerCount: 2
Fore
SplineSet
368 637 m 0
 373 616 346 622 335 623 c 1
 335 623 336 622 337 622 c 1
 330 622 299 605 299 605 c 2
 298 606 307 612 311 615 c 1
 261 587 230 519 206 468 c 1
 215 486 239 532 255 556 c 1
 230 515 181 407 175 396 c 1
 185 423 l 1
 150 344 110 267 83 184 c 0x60
 73 153 40 35 58 -24 c 1
 32 70 147 326 167 369 c 1
 151 325 140 280 127 236 c 0
 115 195 100 149 93 109 c 1
 96 118 l 1
 94 110 94 80 93 75 c 0
 91 57 90 39 90 22 c 0
 90 -9 92 -57 126 -68 c 0
 138 -72 161 -73 146 -92 c 0x90
 129 -111 87 -102 68 -93 c 0
 9 -68 3 13 0 70 c 0
 -1 103 2 137 9 169 c 0
 11 178 14 186 17 195 c 0
 17 196 19 228 23 230 c 1
 23 227 l 1
 23 229 24 231 24 233 c 1
 23 230 25 250 26 252 c 0
 28 264 32 277 36 289 c 0
 42 308 48 327 52 346 c 0
 54 354 84 438 94 436 c 1
 94 436 91 429 92 428 c 1
 96 437 100 446 105 454 c 1
 101 450 l 2xa0
 99 451 146 529 151 536 c 0
 171 564 195 594 223 615 c 0
 244 631 358 685 368 637 c 0
73 -50 m 1
 79 -54 86 -57 94 -58 c 1
 86 -57 79 -54 73 -50 c 1
261 564 m 1
 264 569 266 571 268 572 c 1
 267 571 264 569 261 564 c 1
257 560 m 1
 261 564 l 1
 257 560 l 1
70 -47 m 1
 73 -50 l 1
 70 -47 l 1
255 556 m 1
 257 560 l 1
 255 556 l 1
EndSplineSet
Validated: 37
EndChar

StartChar: braceleft
Encoding: 123 123 81
Width: 352
Flags: MW
HStem: 639 29
VStem: 71 88 94 35 153 54
LayerCount: 2
Fore
SplineSet
424 660 m 0x90
 433 645 412 641 402 639 c 1
 405 639 l 1
 398 636 371 617 369 614 c 1
 370 617 382 629 383 630 c 1
 334 594 327 509 312 452 c 1
 320 482 343 573 348 572 c 1
 345 572 303 413 297 398 c 0
 277 344 241 289 178 283 c 1
 220 249 207 192 198 148 c 1
 199 152 202 159 203 158 c 0
 209 152 193 108 191 100 c 0x90
 186 79 180 59 174 38 c 0
 167 11 151 -32 163 -60 c 0
 168 -71 175 -74 185 -78 c 0
 216 -90 197 -109 172 -113 c 0
 144 -117 108 -117 89 -94 c 0
 65 -67 70 -23 75 10 c 0
 80 52 91 93 106 133 c 0
 110 145 116 156 120 168 c 0xc0
 121 171 126 202 129 205 c 1
 129 202 l 1
 130 204 131 207 131 210 c 1
 128 201 129 215 129 216 c 0
 130 222 132 231 130 237 c 0x90
 125 250 110 244 100 254 c 0
 80 275 113 301 131 308 c 0
 140 312 149 312 158 315 c 0
 168 318 175 323 183 332 c 0xa0
 185 334 200 356 201 356 c 1
 198 348 l 1
 210 374 l 1
 208 372 l 1
 213 383 240 472 243 480 c 0
 256 517 268 563 293 594 c 0
 309 614 329 639 353 652 c 0
 364 659 413 680 424 660 c 0x90
149 179 m 2
 149 180 l 2
 152 189 157 227 149 239 c 1
 159 223 134 163 131 152 c 2
 103 54 l 1
 114 97 132 136 148 177 c 0
 148 178 148 178 149 179 c 2
289 383 m 2xc0
 288 382 l 2
 284 373 280 364 275 355 c 1
 281 365 286 376 290 386 c 1
 289 385 289 384 289 383 c 2xc0
294 396 m 1
 290 387 l 1
 291 387 l 1
 294 396 l 1
310 444 m 1
 310 445 311 448 312 452 c 1
 310 444 l 1
149 179 m 1
 148 179 148 178 148 178 c 1
 148 178 148 179 149 180 c 1
 149 179 l 1
208 372 m 1
 208 371 207 371 207 371 c 1
 208 371 208 371 208 372 c 1
102 49 m 1
 101 48 101 46 101 44 c 1
 101 46 101 47 102 49 c 1
EndSplineSet
Validated: 37
EndChar

StartChar: comma
Encoding: 44 44 82
Width: 216
Flags: MW
HStem: -162 212
VStem: 17 141
LayerCount: 2
Fore
SplineSet
157 21 m 0
 161 3 145 -17 140 -33 c 0
 129 -64 104 -90 82 -115 c 0
 71 -127 52 -152 38 -159 c 0
 21 -167 14 -157 17 -142 c 0
 24 -102 65 -78 85 -46 c 1
 74 -49 45 -60 34 -55 c 0
 20 -49 24 -27 30 -17 c 0
 41 5 68 21 89 31 c 1
 79 37 114 52 122 50 c 0
 137 47 153 39 157 21 c 0
EndSplineSet
Validated: 33
EndChar

StartChar: hyphen
Encoding: 45 45 83
Width: 373
Flags: MW
HStem: 181 88
VStem: 17 357
LayerCount: 2
Fore
SplineSet
374 234 m 0
 376 219 345 215 335 214 c 0
 320 212 314 207 299 204 c 0
 266 199 232 197 200 190 c 0
 174 185 145 191 119 186 c 0
 98 183 75 178 53 184 c 0
 27 192 13 226 18 252 c 0
 22 270 34 264 49 265 c 0
 106 266 162 274 220 269 c 0
 251 267 282 263 312 256 c 0
 321 254 373 242 374 234 c 0
144 247 m 0
 168 246 193 245 218 251 c 1
 172 242 125 260 79 249 c 1
 99 252 124 247 144 247 c 0
EndSplineSet
Validated: 33
EndChar

StartChar: plus
Encoding: 43 43 84
Width: 401
Flags: MW
HStem: 183 85 202 65
VStem: 143 16
LayerCount: 2
Fore
SplineSet
390 234 m 0x60
 393 212 345 216 335 213 c 0
 332 212 325 206 320 205 c 0
 312 203 303 202 295 202 c 0
 283 201 271 199 260 197 c 0
 243 196 236 200 229 183 c 2
 211 144 l 2x60
 198 119 183 94 165 72 c 1
 162 75 l 1
 163 70 163 67 157 61 c 0
 145 48 139 62 139 80 c 0
 140 89 143 98 144 107 c 0
 144 113 143 117 143 125 c 0
 143 144 150 169 155 187 c 1
 106 184 31 166 34 243 c 0
 35 273 53 264 77 265 c 0
 98 267 118 267 138 268 c 0
 146 268 168 267 174 272 c 0
 179 276 182 299 183 307 c 0
 186 322 187 334 193 349 c 0xa0
 205 383 226 401 265 391 c 0
 284 386 289 381 285 364 c 0
 277 332 262 299 257 267 c 1
 283 264 308 261 333 255 c 0
 341 253 389 242 390 234 c 0x60
167 145 m 0xa0
 172 173 177 201 183 229 c 0
 190 262 194 303 204 339 c 1
 195 309 191 277 183 249 c 0
 168 200 153 147 159 95 c 1
 159 113 165 137 167 145 c 0xa0
EndSplineSet
Validated: 33
EndChar

StartChar: equal
Encoding: 61 61 85
Width: 401
Flags: MW
HStem: 125 87 159 56 254 86
VStem: 30 28
LayerCount: 2
Fore
SplineSet
377 310 m 0x70
 389 292 346 287 339 285 c 0
 325 282 312 276 296 274 c 0
 257 269 221 264 183 261 c 0
 132 258 49 231 45 309 c 0
 44 328 43 334 59 337 c 0
 96 343 137 341 174 344 c 0
 208 346 245 341 279 336 c 0
 303 333 328 327 351 318 c 0
 356 316 375 312 377 310 c 0x70
358 185 m 2
 381 176 336 159 330 158 c 0
 313 156 306 150 289 148 c 0x70
 252 142 214 136 177 134 c 0
 126 131 40 100 30 176 c 0
 28 192 27 205 42 209 c 0xb0
 56 213 81 211 96 212 c 0
 115 213 133 213 152 215 c 0
 188 219 227 214 262 209 c 0
 284 205 306 201 327 193 c 2
 358 185 l 2
137 159 m 0
 110 159 84 160 58 155 c 1
 107 165 157 143 206 158 c 1
 185 153 158 158 137 159 c 0
EndSplineSet
Validated: 37
EndChar

StartChar: greater
Encoding: 62 62 86
Width: 409
Flags: MW
HStem: 128 304
VStem: 98 11
LayerCount: 2
Fore
SplineSet
387 301 m 1
 389 286 359 268 348 259 c 0
 329 243 307 229 289 213 c 0
 264 192 234 176 207 158 c 0
 186 145 168 126 144 128 c 0
 97 131 83 179 115 208 c 0
 136 228 162 240 184 257 c 0
 214 279 248 294 281 310 c 1
 223 266 171 210 109 171 c 1
 144 192 175 219 208 244 c 0
 243 270 266 302 305 322 c 1
 271 341 235 363 206 391 c 0
 199 398 182 413 185 425 c 0
 187 439 209 429 218 425 c 0
 234 417 247 403 262 395 c 0
 265 393 275 391 280 388 c 2
 303 372 l 2
 330 351 365 326 387 301 c 1
EndSplineSet
Validated: 33
EndChar

StartChar: yen
Encoding: 165 165 87
Width: 298
Flags: MW
HStem: -1 21G 115 29 162 35 174 25 403 7
VStem: 78 16<164 176> 98 40<362 381> 137 24
LayerCount: 2
Fore
SplineSet
326 382 m 0x9d
 347 368 290 301 284 292 c 0
 262 261 243 231 223 199 c 1
 232 197 265 196 268 189 c 0
 277 171 237 177 231 174 c 0
 230 175 231 175 231 176 c 1x9d
 212 172 196 165 188 144 c 1
 205 143 222 141 239 136 c 0
 241 135 259 132 257 135 c 1
 267 122 246 121 237 120 c 0
 232 119 231 123 227 122 c 0
 225 121 219 116 213 116 c 0
 202 115 188 118 178 115 c 0
 163 112 157 93 149 81 c 0xdd
 132 53 111 26 95 -1 c 1
 109 37 128 66 146 102 c 0
 156 122 163 142 172 162 c 0
 173 163 173 164 173 164 c 1
 157 143 142 121 132 96 c 2
 110 42 l 2
 104 27 99 7 91 -7 c 0
 69 -44 33 -3 42 27 c 0
 52 56 78 80 91 108 c 1
 73 108 48 134 70 145 c 0
 71 146 74 145 75 145 c 0
 85 148 98 143 107 147 c 0
 117 150 119 155 126 165 c 1xad
 115 157 102 165 94 167 c 1
 95 166 95 165 94 164 c 0
 90 164 88 165 86 168 c 2
 86 169 l 2
 83 171 81 175 79 178 c 1
 79 177 79 176 78 176 c 1
 78 176 70 193 79 199 c 0
 84 202 101 200 108 201 c 0
 125 203 144 202 134 221 c 0
 134 222 135 222 135 222 c 1
 132 231 123 244 120 255 c 0
 116 269 121 274 119 283 c 1
 118 277 112 300 111 304 c 0x9d
 107 316 106 328 104 340 c 0
 103 344 98 358 98 366 c 0
 98 373 100 377 101 381 c 1
 100 381 99 381 98 382 c 0
 96 387 101 389 102 391 c 1
 102 388 l 1
 103 393 108 398 113 403 c 1
 111 402 110 402 109 403 c 1
 111 401 127 418 136 405 c 0
 141 398 140 381 143 372 c 0
 147 358 152 346 153 331 c 0x9a
 154 322 152 312 153 304 c 1
 153 306 153 307 155 308 c 0
 166 307 161 223 161 216 c 1
 206 282 l 2
 221 303 242 324 255 347 c 0
 263 362 268 382 289 391 c 0
 307 398 314 391 326 382 c 0x9d
83 197 m 1xad
 76 196 75 194 75 191 c 1
 76 194 78 196 83 197 c 1xad
104 198 m 1
 100 198 97 197 94 197 c 1
 97 197 100 197 104 198 c 1
129 408 m 1
 132 406 134 403 135 397 c 1
 134 404 132 407 129 408 c 1
139 376 m 1x9a
 138 378 138 380 138 382 c 1
 138 380 138 378 139 376 c 1x9a
EndSplineSet
Validated: 37
EndChar

StartChar: less
Encoding: 60 60 88
Width: 399
Flags: MW
HStem: 121 307
VStem: 380 8<383 391>
LayerCount: 2
Fore
SplineSet
389 392 m 1
 401 355 353 331 329 316 c 0
 305 302 284 284 259 271 c 2
 181 232 l 1
 219 211 263 187 291 153 c 0
 296 146 308 130 299 124 c 0
 286 112 248 142 238 149 c 0
 225 159 214 162 199 172 c 0
 182 184 167 197 150 210 c 0
 136 221 123 236 109 247 c 0
 101 253 98 251 101 260 c 0
 104 273 122 282 131 289 c 0
 146 301 160 313 176 323 c 0
 198 338 218 355 240 370 c 0
 260 383 280 396 300 410 c 0
 309 416 319 425 331 427 c 0
 341 429 357 426 366 421 c 0
 373 417 378 412 382 406 c 0
 390 395 390 395 381 385 c 2
 381 385 380 384 380 383 c 1
 382 386 385 389 388 391 c 2
 389 392 l 1
306 316 m 2
 350 356 l 1
 333 342 314 329 297 316 c 0
 273 299 252 279 230 262 c 1
 255 280 282 296 306 316 c 2
EndSplineSet
Validated: 33
EndChar

StartChar: Euro
Encoding: 8364 8364 89
Width: 287
Flags: MW
HStem: -10 34 213 43 226 186
VStem: 0 51 13 7 49 44 102 18
LayerCount: 2
Fore
SplineSet
207 335 m 0xaa
 204 333 194 320 193 318 c 0
 183 305 169 279 161 261 c 1
 176 260 193 255 206 252 c 0
 214 251 238 250 244 244 c 0
 260 226 208 229 202 226 c 0
 201 227 201 227 201 228 c 1
 190 225 174 218 160 217 c 0
 145 217 147 222 140 207 c 0
 139 205 131 188 130 188 c 0
 129 188 131 193 130 193 c 0
 128 187 126 180 125 174 c 1
 125 175 126 178 127 178 c 1
 127 176 127 175 126 173 c 1
 157 171 187 164 218 160 c 0
 224 159 236 162 235 153 c 0
 234 139 208 145 201 143 c 2
 184 138 l 2
 170 135 155 137 141 136 c 0
 128 135 124 135 120 124 c 0
 111 96 127 28 158 24 c 0
 169 23 194 32 203 22 c 0
 211 13 205 1 196 -5 c 0
 189 -9 184 -6 177 -7 c 1
 178 -7 179 -8 181 -8 c 0
 182 -11 153 -16 152 -12 c 1
 161 -10 l 1
 121 -14 81 -2 63 35 c 1
 68 24 74 15 83 8 c 0
 84 6 122 -14 122 -11 c 1
 121 -17 79 9 76 12 c 0xa2
 63 26 56 45 52 63 c 0
 50 76 49 89 49 103 c 0
 49 104 51 126 50 128 c 0
 46 132 27 127 21 130 c 0x84
 13 133 7 137 3 144 c 0
 -2 154 -1 167 9 172 c 0
 12 173 27 172 28 172 c 0
 34 172 40 172 46 173 c 0
 54 171 57 174 56 182 c 1
 61 191 62 204 65 213 c 1
 53 212 47 215 38 217 c 1
 39 216 38 215 38 214 c 0
 33 213 31 217 29 219 c 1
 33 219 l 1x50
 28 221 23 226 20 231 c 1
 20 230 20 229 19 228 c 0
 18 228 8 249 17 255 c 0
 23 259 39 256 46 256 c 0
 56 257 74 258 83 262 c 0
 89 264 93 271 96 276 c 1
 95 275 93 273 91 273 c 0
 82 284 138 345 146 352 c 0x48
 162 367 180 380 200 389 c 0
 218 397 310 431 318 398 c 0
 325 373 256 364 240 355 c 0
 229 349 216 343 207 335 c 0xaa
93 83 m 0x24
 94 78 98 65 101 58 c 1
 97 67 102 83 102 91 c 0
 102 106 102 119 101 133 c 1x82
 100 127 99 120 97 115 c 0
 94 103 90 96 93 83 c 0x24
16 248 m 1
 17 250 20 252 25 253 c 1x90
 19 253 17 250 16 248 c 1
52 77 m 2x28
 52 76 l 1x42
 52 81 51 86 51 91 c 1
 51 86 51 81 52 77 c 2x28
196 322 m 1
 193 318 l 2
 192 318 193 318 196 322 c 1
54 66 m 1
 53 68 53 69 53 71 c 1
 53 69 53 68 54 66 c 1
37 253 m 1
 38 253 l 1
 37 253 l 1
42 254 m 1
 40 254 39 253 38 253 c 1
 39 253 41 254 42 254 c 1
61 41 m 1
 61 39 62 38 63 36 c 1
 62 38 61 39 61 41 c 1
EndSplineSet
Validated: 37
EndChar

StartChar: asciitilde
Encoding: 126 126 90
Width: 436
Flags: MW
HStem: 156 61 186 63
VStem: 93 22
LayerCount: 2
Fore
SplineSet
393 212 m 2xa0
 396 194 371 178 358 170 c 0
 346 162 335 156 321 156 c 0
 313 155 304 156 296 157 c 0
 277 160 285 159 289 159 c 1xa0
 262 163 239 172 213 180 c 1
 214 181 l 1
 205 184 l 2
 201 185 189 186 185 186 c 0
 170 186 156 183 141 181 c 0
 131 180 117 172 108 173 c 0
 84 173 93 192 105 202 c 0
 105 203 110 211 115 211 c 1
 115 209 l 1
 127 218 139 225 152 232 c 1
 141 227 129 221 129 221 c 2
 127 224 178 244 184 246 c 0x60
 232 258 255 237 293 216 c 1
 287 220 311 214 312 214 c 0
 321 212 332 207 341 207 c 0
 349 207 389 225 393 213 c 1
 393 212 l 2xa0
186 244 m 2
 191 245 l 1
 189 245 l 2
 187 244 185 244 186 244 c 2
196 246 m 1
 194 245 192 245 191 245 c 1
 196 246 l 1
EndSplineSet
Validated: 37
EndChar

StartChar: semicolon
Encoding: 59 59 91
Width: 350
Flags: MW
HStem: 284 124
VStem: 81 132 172 121
LayerCount: 2
Fore
SplineSet
201 128 m 0xc0
 222 109 210 83 200 62 c 0
 191 41 185 25 169 6 c 0
 160 -5 150 -15 142 -25 c 0
 135 -32 127 -38 120 -46 c 0
 112 -53 105 -67 96 -72 c 0
 83 -79 71 -76 71 -61 c 0
 72 -22 122 9 141 39 c 1
 130 36 101 26 90 30 c 0
 76 37 80 58 86 69 c 0
 97 90 124 107 145 117 c 1
 135 123 164 135 168 136 c 0
 175 137 196 132 201 128 c 0xc0
289 378 m 1xa0
 302 378 279 341 276 336 c 0
 269 320 259 315 245 303 c 0
 233 291 223 278 204 288 c 0
 197 292 179 308 175 316 c 0
 161 346 198 386 221 398 c 0
 239 408 259 412 278 405 c 0
 283 403 283 408 288 401 c 0
 294 394 288 385 289 378 c 1xa0
EndSplineSet
Validated: 33
EndChar

StartChar: colon
Encoding: 58 58 92
Width: 309
Flags: MW
HStem: 2 124 284 124
VStem: 77 120 165 120
LayerCount: 2
Fore
SplineSet
193 96 m 1xe0
 207 96 183 59 181 54 c 0
 174 38 164 33 150 21 c 0
 138 9 128 -4 109 6 c 0
 102 10 84 26 80 34 c 0
 66 64 103 104 126 116 c 0
 144 126 163 130 183 123 c 0
 188 121 188 126 193 119 c 0
 199 112 193 103 193 96 c 1xe0
281 378 m 1xd0
 295 378 271 341 269 336 c 0
 262 320 252 315 238 303 c 0
 226 291 216 278 197 288 c 0
 190 292 172 308 168 316 c 0
 154 346 191 386 214 398 c 0
 232 408 251 412 271 405 c 0
 276 403 276 408 281 401 c 0
 287 394 281 385 281 378 c 1xd0
EndSplineSet
Validated: 33
EndChar

StartChar: period
Encoding: 46 46 93
Width: 219
Flags: MW
HStem: -83 124
VStem: 40 120
LayerCount: 2
Fore
SplineSet
156 10 m 1
 170 10 146 -27 144 -31 c 0
 137 -47 127 -52 113 -65 c 0
 101 -76 91 -89 72 -79 c 0
 65 -76 47 -60 43 -52 c 0
 29 -22 66 19 89 31 c 0
 107 40 126 45 146 37 c 0
 151 36 151 40 156 34 c 0
 162 26 156 17 156 10 c 1
EndSplineSet
Validated: 33
EndChar

StartChar: asterisk
Encoding: 42 42 94
Width: 275
Flags: MW
HStem: 328 255 406 123
VStem: 64 260
LayerCount: 2
Fore
SplineSet
311 401 m 0xa0
 313 399 318 402 319 399 c 0
 320 394 320 393 316 389 c 0
 305 381 283 402 275 406 c 1
 275 406 271 403 269 404 c 0
 261 406 254 410 247 414 c 2
 219 428 l 1
 207 403 192 378 175 357 c 0
 172 353 154 329 151 328 c 0
 129 325 148 368 150 375 c 2
 150 375 148 384 148 386 c 0
 148 394 152 401 154 409 c 2
 163 439 l 1
 134 430 105 425 75 421 c 0
 73 420 68 411 64 420 c 0
 60 431 82 439 89 442 c 0
 106 448 124 457 142 467 c 1
 123 477 93 482 83 505 c 0
 76 520 81 539 99 538 c 0
 104 537 109 532 113 530 c 0
 135 519 157 502 180 494 c 1
 192 539 l 2
 197 553 204 571 217 578 c 0
 228 585 264 586 272 572 c 0
 278 561 261 530 258 520 c 1
 278 526 321 542 323 507 c 0
 327 506 318 497 317 496 c 0
 310 490 296 487 287 484 c 0
 279 480 242 472 238 465 c 0
 232 456 274 433 284 425 c 0x60
 293 418 302 409 311 401 c 0xa0
EndSplineSet
Validated: 33
EndChar

StartChar: asciicircum
Encoding: 94 94 95
Width: 234
Flags: MW
HStem: 379 221
VStem: 196 82
LayerCount: 2
Fore
SplineSet
279 435 m 0
 283 411 275 377 243 379 c 0
 234 380 228 385 222 391 c 0
 195 422 195 480 196 518 c 1
 170 492 145 467 118 443 c 0
 106 433 67 393 49 401 c 0
 28 409 79 451 84 458 c 0
 93 471 100 484 113 497 c 2
 143 527 l 2
 162 545 179 564 200 579 c 0
 217 590 239 611 258 594 c 0
 277 578 277 547 278 523 c 0
 280 494 276 463 279 435 c 0
EndSplineSet
Validated: 33
EndChar

StartChar: quotedbl
Encoding: 34 34 96
Width: 235
Flags: MW
HStem: 372 237
VStem: 81 9 176 88
LayerCount: 2
Fore
SplineSet
154 525 m 0
 132 477 118 429 88 385 c 0
 80 374 67 364 64 381 c 0
 62 396 75 412 79 426 c 0
 83 440 85 454 90 467 c 1
 68 465 94 552 97 562 c 0
 100 573 101 593 107 600 c 0
 117 610 154 612 164 603 c 0
 177 590 169 576 165 561 c 0
 161 548 160 537 154 525 c 0
264 567 m 0
 265 542 251 518 240 497 c 0
 225 469 216 442 197 415 c 0
 194 411 163 371 154 376 c 0
 144 380 157 407 160 413 c 0
 168 432 175 451 184 469 c 1
 158 470 200 569 205 581 c 0
 206 584 201 586 205 592 c 0
 210 599 223 599 230 597 c 0
 243 592 262 584 264 567 c 0
EndSplineSet
Validated: 33
EndChar

StartChar: quotesingle
Encoding: 39 39 97
Width: 143
Flags: MW
HStem: 371 238
VStem: 83 9 106 66<585 592>
LayerCount: 2
Fore
SplineSet
172 592 m 2
 175 576 164 550 160 535 c 0
 155 519 144 504 139 488 c 0
 129 456 115 429 97 400 c 0xe0
 92 393 78 362 66 374 c 0
 58 382 75 412 77 420 c 0
 83 435 85 451 92 467 c 1xc0
 66 465 103 572 106 585 c 0
 106 589 101 590 107 598 c 0
 111 604 121 607 128 608 c 0
 141 609 167 612 172 593 c 1
 172 592 l 2
EndSplineSet
Validated: 33
EndChar

StartChar: ampersand
Encoding: 38 38 98
Width: 482
Flags: MW
HStem: 177 63<286 286> 328 34 399 193
VStem: 34 13 51 65 160 65 345 13 398 43
LayerCount: 2
Fore
SplineSet
499 261 m 0
 506 245 454 229 448 225 c 0
 435 217 424 211 410 205 c 0
 393 199 400 195 397 178 c 0
 392 146 378 118 362 90 c 0
 342 57 328 29 296 3 c 0
 273 -16 245 -32 215 -41 c 0
 179 -51 144 -45 107 -39 c 0
 96 -37 74 -36 64 -28 c 0
 0 1 54 127 75 169 c 0
 106 232 150 293 212 328 c 1
 196 338 181 351 172 367 c 0
 150 407 161 438 176 475 c 0
 188 504 220 525 244 543 c 0
 268 561 302 581 330 589 c 0
 394 606 457 538 437 476 c 0
 430 453 405 413 383 403 c 0
 371 397 345 395 345 415 c 0
 344 423 352 428 357 434 c 0
 369 447 421 511 387 524 c 0
 357 535 301 485 280 467 c 0
 263 451 211 402 229 374 c 0
 250 342 314 386 343 367 c 0
 361 355 364 320 347 308 c 0
 331 297 308 307 290 299 c 0
 272 291 255 280 239 269 c 0
 231 263 225 258 221 251 c 0
 217 246 215 239 210 233 c 0
 196 213 182 194 169 174 c 0
 148 141 130 101 120 63 c 0
 115 46 111 9 131 0 c 0
 154 -11 198 18 216 30 c 0
 275 71 319 132 359 192 c 1
 338 180 309 182 286 177 c 0
 270 174 260 167 258 189 c 0
 256 207 265 214 275 226 c 0
 275 227 272 232 275 235 c 0
 278 238 283 238 287 240 c 0
 296 242 305 238 313 239 c 0
 318 240 321 246 330 248 c 0
 342 251 357 251 369 253 c 0
 388 255 400 258 420 259 c 0
 433 260 448 261 461 263 c 0
 468 264 493 276 499 261 c 0
57 83 m 0xef
 69 118 88 154 107 186 c 0
 119 205 129 226 143 244 c 1
 134 236 125 226 117 216 c 0xef
 98 189 85 166 73 136 c 0xf7
 58 100 39 42 51 -1 c 1
 46 27 52 65 57 83 c 0xef
EndSplineSet
Validated: 33
EndChar

StartChar: cedilla
Encoding: 184 184 99
Width: 156
Flags: MW
HStem: -130 66
VStem: 46 42 99 36
LayerCount: 2
Fore
SplineSet
135 -56 m 2
 138 -104 90 -128 50 -130 c 0
 38 -130 34 -131 27 -121 c 0
 20 -110 18 -76 27 -67 c 0
 35 -59 36 -67 44 -68 c 0
 52 -69 97 -68 99 -60 c 0
 102 -43 69 -47 62 -47 c 0
 31 -48 54 -19 64 -1 c 0
 67 5 74 25 80 28 c 0
 83 29 98 22 99 21 c 0xa0
 103 13 91 -2 88 -7 c 1xe0
 108 -1 132 -38 135 -54 c 1
 134 -53 l 1
 134 -54 134 -54 135 -55 c 2
 135 -56 l 2
EndSplineSet
Validated: 33
EndChar

StartChar: tilde
Encoding: 732 732 100
Width: 279
Flags: MW
HStem: 432 44 447 75
VStem: 20 238
LayerCount: 2
Fore
SplineSet
237 485 m 0xa0
 240 488 246 506 256 492 c 0
 265 480 246 467 242 461 c 0
 236 453 231 446 221 440 c 0
 204 430 181 428 164 432 c 0xa0
 143 438 125 453 104 457 c 0
 91 460 79 463 65 459 c 0
 54 456 39 441 28 450 c 0
 -5 474 75 513 88 517 c 0x60
 136 536 154 496 195 480 c 0
 209 474 225 475 237 485 c 0xa0
EndSplineSet
Validated: 33
EndChar

StartChar: dieresis
Encoding: 168 168 101
Width: 281
Flags: MW
HStem: 409 9 437 9 510 8
VStem: 21 101 159 16 175 10 199 58
LayerCount: 2
Fore
SplineSet
259 502 m 0x22
 260 497 262 481 260 476 c 1
 259 476 l 1
 257 462 248 450 238 440 c 1
 242 443 246 446 247 446 c 0x62
 251 444 214 417 211 415 c 0
 203 410 200 408 191 409 c 0x82
 188 410 169 421 172 423 c 0
 173 424 174 424 175 423 c 1
 174 424 166 431 167 429 c 0
 177 416 164 429 163 432 c 0
 160 440 158 443 159 453 c 0x88
 160 469 168 481 180 492 c 0
 197 508 250 538 257 497 c 1
 255 518 235 522 218 518 c 1
 236 524 250 522 259 502 c 0x22
119 513 m 1x24
 129 514 114 480 113 477 c 0x70
 107 461 100 450 84 439 c 0
 78 435 66 424 59 424 c 0
 47 423 30 440 24 450 c 0
 14 468 30 495 43 509 c 0
 49 515 56 518 62 523 c 0
 64 525 60 529 66 532 c 0xa2
 73 536 80 532 86 532 c 0
 87 532 88 536 92 536 c 0
 97 536 101 535 105 533 c 0
 115 529 117 524 119 513 c 1x24
194 410 m 1
 196 414 189 412 185 415 c 1
 187 412 190 411 193 410 c 2
 194 410 l 1
199 510 m 0
 197 513 200 514 205 515 c 1
 205 515 200 510 199 510 c 0
254 468 m 1
 254 469 l 2
 254 470 254 472 255 474 c 1
 254 469 252 464 250 460 c 1
 254 468 l 1
258 485 m 0
 258 492 256 484 256 479 c 1
 256 481 257 483 258 485 c 0
210 418 m 1
 213 419 216 422 220 425 c 1
 210 418 l 1
235 437 m 1
 236 437 237 438 238 439 c 1
 235 437 l 1
233 435 m 1
 233 435 234 436 235 436 c 1
 234 436 233 435 233 435 c 1
218 518 m 1
 216 518 215 517 214 517 c 1
 215 517 216 518 218 518 c 1
EndSplineSet
Validated: 37
EndChar

StartChar: circumflex
Encoding: 710 710 102
Width: 218
Flags: MW
HStem: 401 170
VStem: 130 66<489.5 515.5>
LayerCount: 2
Fore
SplineSet
196 513 m 0
 198 486 197 458 195 431 c 0
 194 416 184 395 163 403 c 0
 131 415 130 477 130 502 c 1
 116 488 103 477 90 462 c 0
 76 446 53 425 33 418 c 0
 -2 406 44 463 52 471 c 0
 82 503 121 555 165 569 c 0
 177 574 184 571 190 558 c 0
 193 549 192 540 193 531 c 0
 193 528 191 524 192 521 c 0
 192 518 196 518 196 513 c 0
EndSplineSet
Validated: 33
EndChar

StartChar: caron
Encoding: 711 711 103
Width: 220
Flags: MW
HStem: 403 167
VStem: 22 63
LayerCount: 2
Fore
SplineSet
198 553 m 1
 207 551 160 498 156 494 c 0
 145 482 138 470 127 458 c 0
 107 439 88 420 63 408 c 0
 43 398 34 401 27 425 c 0
 19 453 25 480 22 508 c 0
 20 528 15 561 40 569 c 0
 83 583 83 493 85 472 c 1
 92 483 105 489 114 498 c 0
 123 505 124 508 132 517 c 0
 142 528 157 538 170 546 c 0
 173 548 199 560 198 553 c 1
EndSplineSet
Validated: 33
EndChar

StartChar: grave
Encoding: 96 96 104
Width: 162
Flags: MW
HStem: 399 130
VStem: 21 120
LayerCount: 2
Fore
SplineSet
141 412 m 1
 146 378 101 418 93 425 c 0
 73 442 56 467 34 482 c 0
 24 488 16 488 24 505 c 0
 26 508 30 508 31 509 c 0
 33 512 29 513 32 516 c 0
 38 523 49 528 58 529 c 0
 77 530 84 526 93 510 c 0
 100 496 110 486 116 472 c 0
 122 460 126 447 130 435 c 0
 134 427 139 423 141 413 c 2
 141 412 l 1
EndSplineSet
Validated: 33
EndChar

StartChar: breve
Encoding: 728 728 105
Width: 177
Flags: MW
HStem: 407 16
VStem: 21 135 22 64
LayerCount: 2
Fore
SplineSet
134 475 m 0xa0
 139 474 155 467 156 463 c 0
 158 456 148 445 145 440 c 0
 130 420 115 409 90 407 c 0
 74 405 58 404 43 413 c 0
 29 421 17 447 22 464 c 0
 29 484 62 482 77 474 c 0
 94 465 82 459 79 444 c 0
 78 430 82 416 98 426 c 0
 110 433 116 451 120 463 c 0
 123 470 119 476 134 475 c 0xa0
EndSplineSet
Validated: 33
EndChar

StartChar: ring
Encoding: 730 730 106
Width: 175
Flags: MW
HStem: 404 18 504 24<91.5 121 91.5 116>
VStem: 21 53
LayerCount: 2
Fore
SplineSet
152 481 m 1
 158 482 150 459 150 458 c 0
 145 446 139 435 129 426 c 0
 118 416 103 406 87 404 c 0
 42 400 10 428 24 474 c 0
 28 486 42 513 51 519 c 0
 58 523 64 520 70 522 c 0
 74 523 71 526 75 527 c 0
 82 529 88 528 95 528 c 0
 126 526 156 516 152 481 c 1
131 471 m 0
 135 477 129 500 121 504 c 0
 116 506 118 504 114 504 c 0
 97 500 94 490 88 479 c 0
 84 472 63 422 81 422 c 1
 80 434 95 425 99 427 c 1
 96 433 113 440 117 445 c 0
 122 451 126 462 131 471 c 0
EndSplineSet
Validated: 33
EndChar

StartChar: acute
Encoding: 180 180 107
Width: 157
Flags: MW
HStem: 398 133
VStem: 20 116
LayerCount: 2
Fore
SplineSet
136 493 m 0
 142 490 105 457 102 454 c 0
 87 437 65 421 48 408 c 0
 44 405 29 394 23 399 c 0
 13 406 33 446 38 455 c 2
 75 519 l 2
 78 525 73 530 85 531 c 0
 90 532 102 529 103 529 c 0
 113 526 124 522 131 511 c 0
 133 508 135 495 136 493 c 0
EndSplineSet
Validated: 33
EndChar

StartChar: Agrave
Encoding: 192 192 108
Width: 522
Flags: MW
HStem: -114 65<425.5 427 425.5 441.5> -114 1044 488 95 624 149 800 130
VStem: 0 101 31 67 98 7 320 10<75 77> 332 69 402 116 546 11
LayerCount: 2
Fore
SplineSet
553 551 m 0x3410
 563 535 553 529 546 520 c 1
 547 521 548 522 550 522 c 0
 552 521 530 486 526 488 c 0
 525 488 528 492 530 496 c 1
 500 452 479 404 461 354 c 1
 473 386 497 444 505 449 c 1
 498 441 461 344 458 334 c 0
 444 294 433 253 427 212 c 0
 420 170 416 128 411 87 c 0x2050
 407 54 399 16 402 -14 c 1
 402 -10 402 -6 404 -2 c 0
 405 -2 412 -46 418 -50 c 0
 421 -52 424 -49 427 -49 c 0
 445 -46 465 -18 475 -6 c 0
 482 2 494 26 504 30 c 0
 540 46 497 -64 487 -76 c 0
 471 -97 456 -114 427 -114 c 0
 403 -114 380 -105 362 -90 c 0
 330 -61 316 -16 314 25 c 0
 314 43 317 58 320 75 c 0
 320 79 318 109 321 110 c 1
 321 109 322 108 322 107 c 1
 322 109 321 111 322 112 c 1
 320 112 319 130 319 131 c 0
 320 144 323 156 325 169 c 0
 329 188 331 206 333 225 c 0
 333 232 351 317 361 316 c 0
 363 316 360 309 361 308 c 1
 369 336 l 1
 316 250 261 162 202 79 c 0
 183 54 149 -1 113 -3 c 0
 80 -5 50 30 34 55 c 2
 34 55 22 67 21 72 c 1
 22 69 31 60 31 60 c 1
 19 81 l 1
 22 71 14 88 13 88 c 0x82a0
 9 95 7 103 6 110 c 0
 1 127 0 145 0 162 c 0
 1 198 11 232 18 267 c 0
 24 303 36 337 50 370 c 0
 53 376 80 444 87 443 c 1
 87 443 82 430 83 429 c 1x44
 89 445 97 461 105 477 c 1
 102 473 98 468 98 468 c 1
 99 484 117 505 124 519 c 2
 154 578 l 2x11
 177 618 205 655 234 691 c 0
 259 722 290 755 329 769 c 0
 349 776 371 772 391 768 c 0
 428 760 466 734 494 710 c 0
 505 700 527 684 526 667 c 0
 526 653 509 639 498 632 c 0
 473 616 465 625 459 648 c 1
 459 647 462 637 460 636 c 0
 458 635 449 667 448 671 c 0
 446 677 444 684 441 690 c 1
 444 685 447 682 449 680 c 1
 445 692 439 700 433 704 c 0
 423 708 411 706 395 700 c 0
 373 692 353 678 336 662 c 0
 288 619 252 562 222 505 c 1
 241 540 263 573 287 605 c 0
 299 621 312 636 327 650 c 0
 334 657 350 666 358 674 c 1
 347 661 328 649 317 638 c 0
 304 624 293 609 282 594 c 0
 258 561 237 526 218 490 c 0
 178 414 146 333 125 250 c 0
 115 212 106 173 101 134 c 0
 100 125 93 91 103 85 c 0
 118 76 161 127 168 135 c 0
 191 159 214 183 234 207 c 1
 230 203 226 198 224 199 c 0
 223 199 262 256 266 261 c 2
 314 329 l 2
 348 378 381 429 414 478 c 0
 422 490 428 503 435 516 c 0
 440 527 448 533 454 540 c 0
 461 547 462 560 469 568 c 0
 494 599 535 578 553 551 c 0x3410
106 222 m 0x0880
 102 190 97 156 95 123 c 2
 95 119 l 1
 97 137 l 2
 99 170 106 203 114 236 c 0
 130 301 150 368 174 431 c 0
 197 490 223 547 256 601 c 0
 272 629 294 660 321 683 c 1
 290 658 266 622 249 592 c 0
 218 539 189 486 165 429 c 0
 137 364 116 292 106 222 c 0x0880
330 69 m 0
 329 49 330 30 332 11 c 1
 331 22 332 33 333 44 c 0
 335 63 339 81 341 100 c 0
 342 116 341 133 343 148 c 1
 340 141 338 134 336 128 c 0
 331 108 330 90 330 69 c 0
181 420 m 1
 181 422 l 1
 179 417 l 1
 181 420 l 1
338 696 m 1
 334 694 330 690 326 687 c 1
 338 696 l 1
434 702 m 1
 434 700 436 697 438 694 c 1
 434 702 l 1
441 691 m 1
 441 691 439 692 438 694 c 1
 441 691 l 1
458 346 m 1
 461 354 l 1
 458 346 l 1
465 813 m 1
 470 779 425 819 417 826 c 0
 397 843 380 868 358 883 c 0
 348 889 340 889 348 906 c 0
 350 909 354 909 355 910 c 0
 357 913 353 914 356 917 c 0
 362 924 373 929 382 930 c 0
 401 931 408 927 417 911 c 0
 424 897 434 887 440 873 c 0
 446 861 450 848 454 836 c 0
 458 828 463 824 465 814 c 2
 465 813 l 1
EndSplineSet
Validated: 37
EndChar

StartChar: Aacute
Encoding: 193 193 109
Width: 522
Flags: MW
HStem: -114 65<425.5 427 425.5 441.5> -114 1066 488 95 624 149
VStem: 0 101 31 67 98 7 320 10<75 77> 332 69 402 116 546 11
LayerCount: 2
Fore
SplineSet
553 551 m 0x3820
 563 535 553 529 546 520 c 1
 547 521 548 522 550 522 c 0
 552 521 530 486 526 488 c 0
 525 488 528 492 530 496 c 1
 500 452 479 404 461 354 c 1
 473 386 497 444 505 449 c 1
 498 441 461 344 458 334 c 0
 444 294 433 253 427 212 c 0
 420 170 416 128 411 87 c 0x20a0
 407 54 399 16 402 -14 c 1
 402 -10 402 -6 404 -2 c 0
 405 -2 412 -46 418 -50 c 0
 421 -52 424 -49 427 -49 c 0
 445 -46 465 -18 475 -6 c 0
 482 2 494 26 504 30 c 0
 540 46 497 -64 487 -76 c 0
 471 -97 456 -114 427 -114 c 0
 403 -114 380 -105 362 -90 c 0
 330 -61 316 -16 314 25 c 0
 314 43 317 58 320 75 c 0
 320 79 318 109 321 110 c 1
 321 109 322 108 322 107 c 1
 322 109 321 111 322 112 c 1
 320 112 319 130 319 131 c 0
 320 144 323 156 325 169 c 0
 329 188 331 206 333 225 c 0
 333 232 351 317 361 316 c 0
 363 316 360 309 361 308 c 1
 369 336 l 1
 316 250 261 162 202 79 c 0
 183 54 149 -1 113 -3 c 0
 80 -5 50 30 34 55 c 2
 34 55 22 67 21 72 c 1
 22 69 31 60 31 60 c 1
 19 81 l 1
 22 71 14 88 13 88 c 0x8540
 9 95 7 103 6 110 c 0
 1 127 0 145 0 162 c 0
 1 198 11 232 18 267 c 0
 24 303 36 337 50 370 c 0
 53 376 80 444 87 443 c 1
 87 443 82 430 83 429 c 1x48
 89 445 97 461 105 477 c 1
 102 473 98 468 98 468 c 1
 99 484 117 505 124 519 c 2
 154 578 l 2x12
 177 618 205 655 234 691 c 0
 259 722 290 755 329 769 c 0
 349 776 371 772 391 768 c 0
 428 760 466 734 494 710 c 0
 505 700 527 684 526 667 c 0
 526 653 509 639 498 632 c 0
 473 616 465 625 459 648 c 1
 459 647 462 637 460 636 c 0
 458 635 449 667 448 671 c 0
 446 677 444 684 441 690 c 1
 444 685 447 682 449 680 c 1
 445 692 439 700 433 704 c 0
 423 708 411 706 395 700 c 0
 373 692 353 678 336 662 c 0
 288 619 252 562 222 505 c 1
 241 540 263 573 287 605 c 0
 299 621 312 636 327 650 c 0
 334 657 350 666 358 674 c 1
 347 661 328 649 317 638 c 0
 304 624 293 609 282 594 c 0
 258 561 237 526 218 490 c 0
 178 414 146 333 125 250 c 0
 115 212 106 173 101 134 c 0
 100 125 93 91 103 85 c 0
 118 76 161 127 168 135 c 0
 191 159 214 183 234 207 c 1
 230 203 226 198 224 199 c 0
 223 199 262 256 266 261 c 2
 314 329 l 2
 348 378 381 429 414 478 c 0
 422 490 428 503 435 516 c 0
 440 527 448 533 454 540 c 0
 461 547 462 560 469 568 c 0
 494 599 535 578 553 551 c 0x3820
106 222 m 0x41
 102 190 97 156 95 123 c 2
 95 119 l 1
 97 137 l 2
 99 170 106 203 114 236 c 0
 130 301 150 368 174 431 c 0
 197 490 223 547 256 601 c 0
 272 629 294 660 321 683 c 1
 290 658 266 622 249 592 c 0
 218 539 189 486 165 429 c 0
 137 364 116 292 106 222 c 0x41
330 69 m 0
 329 49 330 30 332 11 c 1
 331 22 332 33 333 44 c 0
 335 63 339 81 341 100 c 0
 342 116 341 133 343 148 c 1
 340 141 338 134 336 128 c 0
 331 108 330 90 330 69 c 0
181 420 m 1
 181 422 l 1
 179 417 l 1
 181 420 l 1
338 696 m 1
 334 694 330 690 326 687 c 1
 338 696 l 1
434 702 m 1
 434 700 436 697 438 694 c 1
 434 702 l 1
441 691 m 1
 441 691 439 692 438 694 c 1
 441 691 l 1
458 346 m 1
 461 354 l 1
 458 346 l 1
531 914 m 0
 537 911 500 878 497 875 c 0
 482 858 460 842 443 829 c 0
 439 826 424 815 418 820 c 0
 408 827 428 867 433 876 c 2
 470 940 l 2
 473 946 468 951 480 952 c 0
 485 953 497 950 498 950 c 0
 508 947 519 943 526 932 c 0
 528 929 530 916 531 914 c 0
EndSplineSet
Validated: 37
EndChar

StartChar: Acircumflex
Encoding: 194 194 110
Width: 522
Flags: MW
HStem: -114 65<425.5 427 425.5 441.5> -114 1088 488 95 624 149
VStem: 0 101 31 67 98 7 320 10<75 77> 332 69 402 116 466 66<892.5 918.5> 546 11
LayerCount: 2
Fore
SplineSet
553 551 m 0x3810
 563 535 553 529 546 520 c 1
 547 521 548 522 550 522 c 0
 552 521 530 486 526 488 c 0
 525 488 528 492 530 496 c 1
 500 452 479 404 461 354 c 1
 473 386 497 444 505 449 c 1
 498 441 461 344 458 334 c 0
 444 294 433 253 427 212 c 0
 420 170 416 128 411 87 c 0x2090
 407 54 399 16 402 -14 c 1
 402 -10 402 -6 404 -2 c 0
 405 -2 412 -46 418 -50 c 0
 421 -52 424 -49 427 -49 c 0
 445 -46 465 -18 475 -6 c 0
 482 2 494 26 504 30 c 0
 540 46 497 -64 487 -76 c 0
 471 -97 456 -114 427 -114 c 0
 403 -114 380 -105 362 -90 c 0
 330 -61 316 -16 314 25 c 0
 314 43 317 58 320 75 c 0
 320 79 318 109 321 110 c 1
 321 109 322 108 322 107 c 1
 322 109 321 111 322 112 c 1
 320 112 319 130 319 131 c 0
 320 144 323 156 325 169 c 0
 329 188 331 206 333 225 c 0
 333 232 351 317 361 316 c 0
 363 316 360 309 361 308 c 1
 369 336 l 1
 316 250 261 162 202 79 c 0
 183 54 149 -1 113 -3 c 0
 80 -5 50 30 34 55 c 2
 34 55 22 67 21 72 c 1
 22 69 31 60 31 60 c 1
 19 81 l 1
 22 71 14 88 13 88 c 0x8540
 9 95 7 103 6 110 c 0
 1 127 0 145 0 162 c 0
 1 198 11 232 18 267 c 0
 24 303 36 337 50 370 c 0
 53 376 80 444 87 443 c 1
 87 443 82 430 83 429 c 1x48
 89 445 97 461 105 477 c 1
 102 473 98 468 98 468 c 1
 99 484 117 505 124 519 c 2
 154 578 l 2x12
 177 618 205 655 234 691 c 0
 259 722 290 755 329 769 c 0
 349 776 371 772 391 768 c 0
 428 760 466 734 494 710 c 0
 505 700 527 684 526 667 c 0
 526 653 509 639 498 632 c 0
 473 616 465 625 459 648 c 1
 459 647 462 637 460 636 c 0
 458 635 449 667 448 671 c 0
 446 677 444 684 441 690 c 1
 444 685 447 682 449 680 c 1
 445 692 439 700 433 704 c 0
 423 708 411 706 395 700 c 0
 373 692 353 678 336 662 c 0
 288 619 252 562 222 505 c 1
 241 540 263 573 287 605 c 0
 299 621 312 636 327 650 c 0
 334 657 350 666 358 674 c 1
 347 661 328 649 317 638 c 0
 304 624 293 609 282 594 c 0
 258 561 237 526 218 490 c 0
 178 414 146 333 125 250 c 0
 115 212 106 173 101 134 c 0
 100 125 93 91 103 85 c 0
 118 76 161 127 168 135 c 0
 191 159 214 183 234 207 c 1
 230 203 226 198 224 199 c 0
 223 199 262 256 266 261 c 2
 314 329 l 2
 348 378 381 429 414 478 c 0
 422 490 428 503 435 516 c 0
 440 527 448 533 454 540 c 0
 461 547 462 560 469 568 c 0
 494 599 535 578 553 551 c 0x3810
106 222 m 0x4120
 102 190 97 156 95 123 c 2
 95 119 l 1
 97 137 l 2
 99 170 106 203 114 236 c 0
 130 301 150 368 174 431 c 0
 197 490 223 547 256 601 c 0
 272 629 294 660 321 683 c 1
 290 658 266 622 249 592 c 0
 218 539 189 486 165 429 c 0
 137 364 116 292 106 222 c 0x4120
330 69 m 0
 329 49 330 30 332 11 c 1
 331 22 332 33 333 44 c 0
 335 63 339 81 341 100 c 0
 342 116 341 133 343 148 c 1
 340 141 338 134 336 128 c 0
 331 108 330 90 330 69 c 0
181 420 m 1
 181 422 l 1
 179 417 l 1
 181 420 l 1
338 696 m 1
 334 694 330 690 326 687 c 1
 338 696 l 1
434 702 m 1
 434 700 436 697 438 694 c 1
 434 702 l 1
441 691 m 1
 441 691 439 692 438 694 c 1
 441 691 l 1
458 346 m 1
 461 354 l 1
 458 346 l 1
532 916 m 0
 534 889 533 861 531 834 c 0
 530 819 520 798 499 806 c 0
 467 818 466 880 466 905 c 1
 452 891 439 880 426 865 c 0
 412 849 389 828 369 821 c 0
 334 809 380 866 388 874 c 0
 418 906 457 958 501 972 c 0
 513 977 520 974 526 961 c 0
 529 952 528 943 529 934 c 0
 529 931 527 927 528 924 c 0
 528 921 532 921 532 916 c 0
EndSplineSet
Validated: 37
EndChar

